<?xml version="1.0" encoding="utf-8" standalone="no"?>
<!DOCTYPE svg PUBLIC "-//W3C//DTD SVG 1.1//EN"
  "http://www.w3.org/Graphics/SVG/1.1/DTD/svg11.dtd">
<svg xmlns:xlink="http://www.w3.org/1999/xlink" width="460.8pt" height="345.6pt" viewBox="0 0 460.8 345.6" xmlns="http://www.w3.org/2000/svg" version="1.1">
 <metadata>
  <rdf:RDF xmlns:dc="http://purl.org/dc/elements/1.1/" xmlns:cc="http://creativecommons.org/ns#" xmlns:rdf="http://www.w3.org/1999/02/22-rdf-syntax-ns#">
   <cc:Work>
    <dc:type rdf:resource="http://purl.org/dc/dcmitype/StillImage"/>
    <dc:date>2024-02-21T23:30:09.757810</dc:date>
    <dc:format>image/svg+xml</dc:format>
    <dc:creator>
     <cc:Agent>
      <dc:title>Matplotlib v3.7.4, https://matplotlib.org/</dc:title>
     </cc:Agent>
    </dc:creator>
   </cc:Work>
  </rdf:RDF>
 </metadata>
 <defs>
  <style type="text/css">*{stroke-linejoin: round; stroke-linecap: butt}</style>
 </defs>
 <g id="figure_1">
  <g id="patch_1">
   <path d="M 0 345.6 
L 460.8 345.6 
L 460.8 0 
L 0 0 
z
" style="fill: #ffffff"/>
  </g>
  <g id="axes_1">
   <g id="patch_2">
    <path d="M 57.6 307.584 
L 414.72 307.584 
L 414.72 41.472 
L 57.6 41.472 
z
" style="fill: #ffffff"/>
   </g>
   <g id="PolyCollection_1"/>
   <g id="matplotlib.axis_1">
    <g id="xtick_1">
     <g id="line2d_1">
      <defs>
       <path id="m35930465d9" d="M 0 0 
L 0 3.5 
" style="stroke: #000000; stroke-width: 0.8"/>
      </defs>
      <g>
       <use xlink:href="#m35930465d9" x="73.832727" y="307.584" style="stroke: #000000; stroke-width: 0.8"/>
      </g>
     </g>
     <g id="text_1">
      <!-- 0 -->
      <g transform="translate(70.651477 322.182437) scale(0.1 -0.1)">
       <defs>
        <path id="DejaVuSans-30" d="M 2034 4250 
Q 1547 4250 1301 3770 
Q 1056 3291 1056 2328 
Q 1056 1369 1301 889 
Q 1547 409 2034 409 
Q 2525 409 2770 889 
Q 3016 1369 3016 2328 
Q 3016 3291 2770 3770 
Q 2525 4250 2034 4250 
z
M 2034 4750 
Q 2819 4750 3233 4129 
Q 3647 3509 3647 2328 
Q 3647 1150 3233 529 
Q 2819 -91 2034 -91 
Q 1250 -91 836 529 
Q 422 1150 422 2328 
Q 422 3509 836 4129 
Q 1250 4750 2034 4750 
z
" transform="scale(0.015625)"/>
       </defs>
       <use xlink:href="#DejaVuSans-30"/>
      </g>
     </g>
    </g>
    <g id="xtick_2">
     <g id="line2d_2">
      <g>
       <use xlink:href="#m35930465d9" x="137.303802" y="307.584" style="stroke: #000000; stroke-width: 0.8"/>
      </g>
     </g>
     <g id="text_2">
      <!-- 200 -->
      <g transform="translate(127.760052 322.182437) scale(0.1 -0.1)">
       <defs>
        <path id="DejaVuSans-32" d="M 1228 531 
L 3431 531 
L 3431 0 
L 469 0 
L 469 531 
Q 828 903 1448 1529 
Q 2069 2156 2228 2338 
Q 2531 2678 2651 2914 
Q 2772 3150 2772 3378 
Q 2772 3750 2511 3984 
Q 2250 4219 1831 4219 
Q 1534 4219 1204 4116 
Q 875 4013 500 3803 
L 500 4441 
Q 881 4594 1212 4672 
Q 1544 4750 1819 4750 
Q 2544 4750 2975 4387 
Q 3406 4025 3406 3419 
Q 3406 3131 3298 2873 
Q 3191 2616 2906 2266 
Q 2828 2175 2409 1742 
Q 1991 1309 1228 531 
z
" transform="scale(0.015625)"/>
       </defs>
       <use xlink:href="#DejaVuSans-32"/>
       <use xlink:href="#DejaVuSans-30" x="63.623047"/>
       <use xlink:href="#DejaVuSans-30" x="127.246094"/>
      </g>
     </g>
    </g>
    <g id="xtick_3">
     <g id="line2d_3">
      <g>
       <use xlink:href="#m35930465d9" x="200.774876" y="307.584" style="stroke: #000000; stroke-width: 0.8"/>
      </g>
     </g>
     <g id="text_3">
      <!-- 400 -->
      <g transform="translate(191.231126 322.182437) scale(0.1 -0.1)">
       <defs>
        <path id="DejaVuSans-34" d="M 2419 4116 
L 825 1625 
L 2419 1625 
L 2419 4116 
z
M 2253 4666 
L 3047 4666 
L 3047 1625 
L 3713 1625 
L 3713 1100 
L 3047 1100 
L 3047 0 
L 2419 0 
L 2419 1100 
L 313 1100 
L 313 1709 
L 2253 4666 
z
" transform="scale(0.015625)"/>
       </defs>
       <use xlink:href="#DejaVuSans-34"/>
       <use xlink:href="#DejaVuSans-30" x="63.623047"/>
       <use xlink:href="#DejaVuSans-30" x="127.246094"/>
      </g>
     </g>
    </g>
    <g id="xtick_4">
     <g id="line2d_4">
      <g>
       <use xlink:href="#m35930465d9" x="264.24595" y="307.584" style="stroke: #000000; stroke-width: 0.8"/>
      </g>
     </g>
     <g id="text_4">
      <!-- 600 -->
      <g transform="translate(254.7022 322.182437) scale(0.1 -0.1)">
       <defs>
        <path id="DejaVuSans-36" d="M 2113 2584 
Q 1688 2584 1439 2293 
Q 1191 2003 1191 1497 
Q 1191 994 1439 701 
Q 1688 409 2113 409 
Q 2538 409 2786 701 
Q 3034 994 3034 1497 
Q 3034 2003 2786 2293 
Q 2538 2584 2113 2584 
z
M 3366 4563 
L 3366 3988 
Q 3128 4100 2886 4159 
Q 2644 4219 2406 4219 
Q 1781 4219 1451 3797 
Q 1122 3375 1075 2522 
Q 1259 2794 1537 2939 
Q 1816 3084 2150 3084 
Q 2853 3084 3261 2657 
Q 3669 2231 3669 1497 
Q 3669 778 3244 343 
Q 2819 -91 2113 -91 
Q 1303 -91 875 529 
Q 447 1150 447 2328 
Q 447 3434 972 4092 
Q 1497 4750 2381 4750 
Q 2619 4750 2861 4703 
Q 3103 4656 3366 4563 
z
" transform="scale(0.015625)"/>
       </defs>
       <use xlink:href="#DejaVuSans-36"/>
       <use xlink:href="#DejaVuSans-30" x="63.623047"/>
       <use xlink:href="#DejaVuSans-30" x="127.246094"/>
      </g>
     </g>
    </g>
    <g id="xtick_5">
     <g id="line2d_5">
      <g>
       <use xlink:href="#m35930465d9" x="327.717025" y="307.584" style="stroke: #000000; stroke-width: 0.8"/>
      </g>
     </g>
     <g id="text_5">
      <!-- 800 -->
      <g transform="translate(318.173275 322.182437) scale(0.1 -0.1)">
       <defs>
        <path id="DejaVuSans-38" d="M 2034 2216 
Q 1584 2216 1326 1975 
Q 1069 1734 1069 1313 
Q 1069 891 1326 650 
Q 1584 409 2034 409 
Q 2484 409 2743 651 
Q 3003 894 3003 1313 
Q 3003 1734 2745 1975 
Q 2488 2216 2034 2216 
z
M 1403 2484 
Q 997 2584 770 2862 
Q 544 3141 544 3541 
Q 544 4100 942 4425 
Q 1341 4750 2034 4750 
Q 2731 4750 3128 4425 
Q 3525 4100 3525 3541 
Q 3525 3141 3298 2862 
Q 3072 2584 2669 2484 
Q 3125 2378 3379 2068 
Q 3634 1759 3634 1313 
Q 3634 634 3220 271 
Q 2806 -91 2034 -91 
Q 1263 -91 848 271 
Q 434 634 434 1313 
Q 434 1759 690 2068 
Q 947 2378 1403 2484 
z
M 1172 3481 
Q 1172 3119 1398 2916 
Q 1625 2713 2034 2713 
Q 2441 2713 2670 2916 
Q 2900 3119 2900 3481 
Q 2900 3844 2670 4047 
Q 2441 4250 2034 4250 
Q 1625 4250 1398 4047 
Q 1172 3844 1172 3481 
z
" transform="scale(0.015625)"/>
       </defs>
       <use xlink:href="#DejaVuSans-38"/>
       <use xlink:href="#DejaVuSans-30" x="63.623047"/>
       <use xlink:href="#DejaVuSans-30" x="127.246094"/>
      </g>
     </g>
    </g>
    <g id="xtick_6">
     <g id="line2d_6">
      <g>
       <use xlink:href="#m35930465d9" x="391.188099" y="307.584" style="stroke: #000000; stroke-width: 0.8"/>
      </g>
     </g>
     <g id="text_6">
      <!-- 1000 -->
      <g transform="translate(378.463099 322.182437) scale(0.1 -0.1)">
       <defs>
        <path id="DejaVuSans-31" d="M 794 531 
L 1825 531 
L 1825 4091 
L 703 3866 
L 703 4441 
L 1819 4666 
L 2450 4666 
L 2450 531 
L 3481 531 
L 3481 0 
L 794 0 
L 794 531 
z
" transform="scale(0.015625)"/>
       </defs>
       <use xlink:href="#DejaVuSans-31"/>
       <use xlink:href="#DejaVuSans-30" x="63.623047"/>
       <use xlink:href="#DejaVuSans-30" x="127.246094"/>
       <use xlink:href="#DejaVuSans-30" x="190.869141"/>
      </g>
     </g>
    </g>
   </g>
   <g id="matplotlib.axis_2">
    <g id="ytick_1">
     <g id="line2d_7">
      <defs>
       <path id="m8f607d7a7f" d="M 0 0 
L -3.5 0 
" style="stroke: #000000; stroke-width: 0.8"/>
      </defs>
      <g>
       <use xlink:href="#m8f607d7a7f" x="57.6" y="279.66178" style="stroke: #000000; stroke-width: 0.8"/>
      </g>
     </g>
     <g id="text_7">
      <!-- 0.2 -->
      <g transform="translate(34.696875 283.460998) scale(0.1 -0.1)">
       <defs>
        <path id="DejaVuSans-2e" d="M 684 794 
L 1344 794 
L 1344 0 
L 684 0 
L 684 794 
z
" transform="scale(0.015625)"/>
       </defs>
       <use xlink:href="#DejaVuSans-30"/>
       <use xlink:href="#DejaVuSans-2e" x="63.623047"/>
       <use xlink:href="#DejaVuSans-32" x="95.410156"/>
      </g>
     </g>
    </g>
    <g id="ytick_2">
     <g id="line2d_8">
      <g>
       <use xlink:href="#m8f607d7a7f" x="57.6" y="223.138351" style="stroke: #000000; stroke-width: 0.8"/>
      </g>
     </g>
     <g id="text_8">
      <!-- 0.4 -->
      <g transform="translate(34.696875 226.93757) scale(0.1 -0.1)">
       <use xlink:href="#DejaVuSans-30"/>
       <use xlink:href="#DejaVuSans-2e" x="63.623047"/>
       <use xlink:href="#DejaVuSans-34" x="95.410156"/>
      </g>
     </g>
    </g>
    <g id="ytick_3">
     <g id="line2d_9">
      <g>
       <use xlink:href="#m8f607d7a7f" x="57.6" y="166.614923" style="stroke: #000000; stroke-width: 0.8"/>
      </g>
     </g>
     <g id="text_9">
      <!-- 0.6 -->
      <g transform="translate(34.696875 170.414142) scale(0.1 -0.1)">
       <use xlink:href="#DejaVuSans-30"/>
       <use xlink:href="#DejaVuSans-2e" x="63.623047"/>
       <use xlink:href="#DejaVuSans-36" x="95.410156"/>
      </g>
     </g>
    </g>
    <g id="ytick_4">
     <g id="line2d_10">
      <g>
       <use xlink:href="#m8f607d7a7f" x="57.6" y="110.091495" style="stroke: #000000; stroke-width: 0.8"/>
      </g>
     </g>
     <g id="text_10">
      <!-- 0.8 -->
      <g transform="translate(34.696875 113.890714) scale(0.1 -0.1)">
       <use xlink:href="#DejaVuSans-30"/>
       <use xlink:href="#DejaVuSans-2e" x="63.623047"/>
       <use xlink:href="#DejaVuSans-38" x="95.410156"/>
      </g>
     </g>
    </g>
    <g id="ytick_5">
     <g id="line2d_11">
      <g>
       <use xlink:href="#m8f607d7a7f" x="57.6" y="53.568067" style="stroke: #000000; stroke-width: 0.8"/>
      </g>
     </g>
     <g id="text_11">
      <!-- 1.0 -->
      <g transform="translate(34.696875 57.367286) scale(0.1 -0.1)">
       <use xlink:href="#DejaVuSans-31"/>
       <use xlink:href="#DejaVuSans-2e" x="63.623047"/>
       <use xlink:href="#DejaVuSans-30" x="95.410156"/>
      </g>
     </g>
    </g>
   </g>
   <g id="line2d_12">
    <path d="M 73.832727 274.172142 
L 74.150083 276.432224 
L 74.784793 273.958274 
L 75.102149 274.312231 
L 75.419504 274.41628 
L 75.73686 270.128547 
L 76.37157 244.70629 
L 76.688926 233.202343 
L 77.006281 230.911358 
L 77.323636 238.803362 
L 77.958347 262.359324 
L 78.275702 265.126939 
L 78.593058 260.000958 
L 79.227769 242.86723 
L 79.545124 238.564158 
L 79.862479 238.563897 
L 80.179835 242.131141 
L 81.449256 265.473775 
L 81.766612 264.120921 
L 82.401322 256.271157 
L 82.718678 256.402786 
L 83.353388 262.670836 
L 83.670744 260.889269 
L 84.305455 246.604535 
L 84.62281 244.995464 
L 84.940165 252.591142 
L 85.574876 280.539191 
L 85.892231 287.878404 
L 86.209587 287.980372 
L 86.526942 285.365621 
L 86.844298 285.545166 
L 87.479008 295.282243 
L 87.796364 295.487903 
L 88.113719 288.178764 
L 88.74843 266.120205 
L 89.065785 262.031178 
L 89.38314 263.550295 
L 89.700496 266.194745 
L 90.017851 265.720331 
L 90.652562 257.537982 
L 90.969917 256.862503 
L 91.604628 264.357513 
L 91.921983 265.510346 
L 92.239339 262.548059 
L 92.556694 258.085884 
L 92.87405 256.040444 
L 93.191405 258.138281 
L 93.826116 265.293598 
L 94.143471 264.315156 
L 94.778182 257.497764 
L 95.095537 257.846318 
L 95.412893 261.870886 
L 96.047603 271.983576 
L 96.364959 273.933755 
L 96.682314 272.781082 
L 96.999669 268.136089 
L 97.317025 259.596713 
L 97.951736 236.500265 
L 98.269091 230.228441 
L 98.586446 232.836017 
L 99.538512 260.935787 
L 99.855868 256.101019 
L 100.490579 232.478644 
L 100.807934 229.616351 
L 101.125289 236.831056 
L 101.76 257.971032 
L 102.077355 259.912857 
L 102.712066 253.050943 
L 103.029421 253.464487 
L 103.346777 256.759519 
L 103.664132 258.51837 
L 103.981488 255.356003 
L 104.616198 243.015469 
L 104.933554 244.130888 
L 105.250909 252.737823 
L 105.88562 275.60392 
L 106.202975 281.544901 
L 106.520331 283.803805 
L 106.837686 285.199496 
L 107.155041 287.120984 
L 107.472397 288.113092 
L 107.789752 285.513206 
L 108.424463 269.019427 
L 108.741818 261.223101 
L 109.059174 257.563435 
L 109.376529 257.510271 
L 109.693884 258.407982 
L 110.01124 258.06278 
L 110.64595 255.361663 
L 110.963306 255.851288 
L 111.280661 257.309779 
L 111.598017 257.945377 
L 111.915372 256.825493 
L 112.232727 255.007111 
L 112.550083 254.520105 
L 112.867438 256.161629 
L 113.184793 258.422587 
L 113.502149 258.883517 
L 114.13686 254.966497 
L 114.454215 256.658708 
L 115.088926 270.606022 
L 115.406281 272.656116 
L 115.723636 264.820674 
L 116.358347 233.238856 
L 116.675702 226.073769 
L 116.993058 230.661214 
L 117.627769 251.612945 
L 117.945124 252.095832 
L 118.89719 229.325374 
L 119.214545 233.040426 
L 119.849256 250.323656 
L 120.166612 254.195 
L 120.483967 253.829111 
L 121.118678 250.753826 
L 121.436033 249.789425 
L 121.753388 247.664795 
L 122.070744 244.388646 
L 122.388099 242.48544 
L 122.705455 245.307439 
L 123.02281 254.061812 
L 123.657521 277.453348 
L 123.974876 283.757169 
L 124.292231 284.614695 
L 124.609587 281.98645 
L 125.244298 273.456368 
L 125.879008 260.316807 
L 126.196364 253.548924 
L 126.513719 249.838823 
L 126.831074 250.30265 
L 127.465785 255.270041 
L 127.78314 254.247709 
L 128.417851 248.901349 
L 128.735207 249.922014 
L 129.369917 255.452391 
L 129.687273 254.087055 
L 130.004628 250.304419 
L 130.321983 248.415834 
L 130.639339 252.025806 
L 131.27405 266.914431 
L 131.591405 265.829619 
L 131.90876 255.086579 
L 132.543471 228.276779 
L 132.860826 226.625738 
L 133.495537 242.048102 
L 133.812893 244.76038 
L 134.130248 239.773171 
L 134.447603 231.633204 
L 134.764959 227.382471 
L 135.082314 230.917524 
L 135.717025 249.369758 
L 136.03438 253.172204 
L 136.351736 250.662988 
L 136.986446 240.046283 
L 137.303802 238.524395 
L 137.621157 240.521405 
L 137.938512 245.358834 
L 138.573223 262.449893 
L 139.207934 280.718994 
L 139.525289 282.431659 
L 139.842645 276.937381 
L 140.477355 256.953636 
L 140.794711 251.021725 
L 141.112066 249.413564 
L 141.429421 249.611985 
L 141.746777 248.962986 
L 142.381488 245.735975 
L 142.698843 246.55074 
L 143.016198 248.880832 
L 143.333554 250.185121 
L 143.650909 248.635699 
L 143.968264 245.411147 
L 144.28562 244.155735 
L 144.602975 247.679585 
L 145.237686 260.205257 
L 145.555041 258.637188 
L 146.507107 227.094973 
L 146.824463 226.048686 
L 147.459174 236.058227 
L 147.776529 235.966336 
L 148.41124 226.691553 
L 148.728595 228.080641 
L 149.680661 249.385988 
L 149.998017 245.4994 
L 150.632727 231.099192 
L 150.950083 233.467463 
L 151.584793 258.643859 
L 151.902149 270.119366 
L 152.219504 274.959406 
L 152.53686 273.289216 
L 153.17157 260.229211 
L 153.806281 246.070792 
L 154.123636 241.638138 
L 154.440992 240.613338 
L 154.758347 242.690464 
L 155.075702 245.549784 
L 155.393058 246.272675 
L 155.710413 243.811148 
L 156.027769 240.237477 
L 156.345124 239.260669 
L 156.662479 242.940296 
L 157.29719 253.804096 
L 157.614545 251.984855 
L 158.566612 226.640739 
L 158.883967 224.926579 
L 159.518678 227.979266 
L 159.836033 227.230139 
L 160.153388 226.071511 
L 160.470744 227.644971 
L 161.105455 238.828318 
L 161.42281 240.964057 
L 161.740165 237.482977 
L 162.057521 231.809819 
L 162.374876 230.569382 
L 162.692231 238.312001 
L 163.326942 267.916073 
L 163.644298 274.049975 
L 163.961653 268.704087 
L 164.596364 243.86421 
L 164.913719 238.029893 
L 165.231074 238.639617 
L 165.54843 241.315324 
L 165.865785 241.606949 
L 166.500496 235.544547 
L 166.817851 235.547394 
L 167.769917 246.666661 
L 168.087273 244.399764 
L 169.356694 221.70885 
L 169.67405 219.469967 
L 169.991405 219.518574 
L 170.30876 222.360409 
L 170.943471 232.021522 
L 171.260826 233.564349 
L 171.578182 231.26756 
L 171.895537 228.036128 
L 172.212893 228.817235 
L 172.530248 236.707672 
L 173.164959 261.645429 
L 173.482314 265.575891 
L 173.799669 259.480573 
L 174.43438 236.463264 
L 174.751736 231.67584 
L 175.069091 232.786442 
L 175.386446 235.591419 
L 175.703802 236.223218 
L 176.338512 233.35919 
L 176.655868 235.335143 
L 176.973223 239.254858 
L 177.290579 240.732165 
L 177.607934 236.01384 
L 178.242645 215.475628 
L 178.56 211.096078 
L 178.877355 214.642847 
L 179.512066 228.013976 
L 179.829421 227.830227 
L 180.146777 223.780383 
L 180.464132 221.697917 
L 180.781488 226.360433 
L 181.733554 256.525538 
L 182.050909 255.063535 
L 183.002975 230.419088 
L 183.320331 227.256595 
L 183.637686 227.285863 
L 183.955041 229.152339 
L 184.589752 234.443842 
L 184.907107 235.228504 
L 185.224463 232.465564 
L 186.176529 211.959897 
L 186.493884 211.159484 
L 187.44595 221.429875 
L 187.763306 221.413316 
L 188.080661 222.58905 
L 188.398017 228.480473 
L 189.032727 248.613539 
L 189.350083 251.468816 
L 189.667438 244.709229 
L 190.302149 221.162666 
L 190.619504 218.30493 
L 190.93686 223.541567 
L 191.254215 231.119836 
L 191.57157 234.142639 
L 191.888926 229.813264 
L 192.523636 213.335837 
L 192.840992 210.276673 
L 193.158347 211.073708 
L 193.475702 212.477014 
L 193.793058 212.600068 
L 194.110413 212.989759 
L 194.427769 216.961989 
L 195.379835 243.303784 
L 195.69719 242.13168 
L 196.649256 218.1756 
L 196.966612 218.797048 
L 197.283967 222.991501 
L 197.601322 225.69288 
L 197.918678 223.547623 
L 198.870744 204.549677 
L 199.188099 203.549564 
L 199.505455 206.303735 
L 200.140165 219.404599 
L 200.774876 233.562167 
L 201.092231 234.972144 
L 201.409587 230.628071 
L 202.044298 215.908552 
L 202.361653 213.836235 
L 202.996364 218.8609 
L 203.313719 216.711457 
L 204.265785 195.678128 
L 204.58314 201.308676 
L 205.217851 226.135616 
L 205.535207 231.156188 
L 205.852562 227.54555 
L 206.487273 214.109988 
L 206.804628 213.27004 
L 207.121983 214.750825 
L 207.439339 213.659461 
L 207.756694 207.638523 
L 208.07405 199.398184 
L 208.391405 194.683759 
L 208.70876 197.50164 
L 209.660826 222.651681 
L 209.978182 221.922507 
L 210.930248 208.530591 
L 211.564959 201.536711 
L 211.882314 196.941054 
L 212.199669 194.529069 
L 212.517025 197.116497 
L 213.469091 218.4255 
L 213.786446 216.893302 
L 214.738512 194.971729 
L 215.055868 192.430027 
L 215.373223 193.300322 
L 215.690579 196.549274 
L 216.642645 210.719569 
L 216.96 210.101684 
L 217.277355 203.645464 
L 217.912066 185.628571 
L 218.229421 184.947701 
L 218.546777 192.446923 
L 218.864132 203.111493 
L 219.181488 209.221686 
L 219.498843 206.030328 
L 220.133554 185.077224 
L 220.450909 181.827582 
L 220.768264 187.236859 
L 221.08562 196.152551 
L 221.402975 201.105606 
L 221.720331 198.253218 
L 222.355041 183.123339 
L 222.672397 182.062675 
L 223.307107 191.485932 
L 223.624463 192.320752 
L 223.941818 188.210752 
L 224.259174 182.620574 
L 224.576529 179.831751 
L 224.893884 181.17604 
L 225.21124 184.203341 
L 225.528595 185.240944 
L 225.84595 182.786264 
L 226.480661 175.928983 
L 226.798017 176.136467 
L 227.115372 177.835331 
L 227.432727 178.274808 
L 227.750083 176.079866 
L 228.384793 169.945198 
L 228.702149 169.752016 
L 229.019504 170.736623 
L 229.33686 170.543981 
L 229.654215 167.996686 
L 230.288926 161.632331 
L 230.606281 161.225197 
L 230.923636 161.770496 
L 231.240992 160.866915 
L 232.193058 149.663733 
L 232.510413 149.033449 
L 232.827769 149.197219 
L 233.145124 147.096476 
L 234.09719 129.42492 
L 234.414545 128.343823 
L 234.731901 127.821299 
L 235.049256 121.634528 
L 235.366612 105.736461 
L 236.001322 61.986267 
L 236.318678 53.568 
L 236.636033 61.986234 
L 237.588099 121.63441 
L 237.905455 127.821248 
L 238.22281 128.34384 
L 238.540165 129.424954 
L 238.857521 134.288325 
L 239.492231 147.09651 
L 239.809587 149.197236 
L 240.126942 149.033416 
L 240.444298 149.663733 
L 240.761653 152.821367 
L 241.396364 160.867033 
L 241.713719 161.770547 
L 242.031074 161.225248 
L 242.34843 161.632365 
L 242.665785 164.256761 
L 243.300496 170.544031 
L 243.617851 170.736657 
L 243.935207 169.752066 
L 244.252562 169.945215 
L 244.569917 172.474418 
L 244.887273 176.079866 
L 245.204628 178.274825 
L 245.521983 177.835315 
L 245.839339 176.13645 
L 246.156694 175.929017 
L 246.47405 178.635786 
L 246.791405 182.786264 
L 247.10876 185.240927 
L 247.426116 184.203341 
L 247.743471 181.17604 
L 248.060826 179.831667 
L 248.378182 182.620557 
L 249.012893 192.320819 
L 249.330248 191.485966 
L 249.964959 182.062607 
L 250.282314 183.123255 
L 250.917025 198.253192 
L 251.23438 201.105589 
L 251.551736 196.152492 
L 251.869091 187.236892 
L 252.186446 181.827599 
L 252.503802 185.077208 
L 253.138512 206.030336 
L 253.455868 209.221669 
L 253.773223 203.111485 
L 254.407934 184.947735 
L 254.725289 185.62852 
L 255.677355 210.101625 
L 255.994711 210.719527 
L 256.312066 206.863917 
L 256.946777 196.54924 
L 257.264132 193.300255 
L 257.581488 192.42996 
L 257.898843 194.971695 
L 258.533554 209.90862 
L 258.850909 216.893319 
L 259.168264 218.425517 
L 259.48562 213.396059 
L 260.120331 197.11643 
L 260.437686 194.529085 
L 260.755041 196.94102 
L 261.389752 205.535076 
L 262.024463 212.094491 
L 262.659174 221.922524 
L 262.976529 222.651664 
L 263.293884 216.975423 
L 263.928595 197.501614 
L 264.24595 194.683843 
L 264.563306 199.39815 
L 265.198017 213.659427 
L 265.515372 214.750876 
L 265.832727 213.269989 
L 266.150083 214.109879 
L 266.467438 219.789876 
L 266.784793 227.545727 
L 267.102149 231.156238 
L 267.419504 226.135759 
L 268.054215 201.308642 
L 268.37157 195.678162 
L 268.688926 199.47638 
L 269.323636 216.711314 
L 269.640992 218.860782 
L 270.275702 213.836227 
L 270.593058 215.908535 
L 271.545124 234.972127 
L 271.862479 233.562193 
L 272.49719 219.404531 
L 273.131901 206.303811 
L 273.449256 203.549614 
L 273.766612 204.549854 
L 274.083967 209.576591 
L 274.718678 223.547514 
L 275.036033 225.692787 
L 275.353388 222.991509 
L 275.670744 218.797031 
L 275.988099 218.175381 
L 276.305455 223.909805 
L 276.940165 242.131807 
L 277.257521 243.303894 
L 277.574876 236.490048 
L 278.209587 216.961972 
L 278.526942 212.989658 
L 278.844298 212.599984 
L 279.161653 212.477022 
L 279.479008 211.073708 
L 279.796364 210.276715 
L 280.113719 213.335753 
L 281.065785 234.142698 
L 281.38314 231.11976 
L 282.017851 218.30498 
L 282.335207 221.162818 
L 283.287273 251.468985 
L 283.604628 248.613463 
L 284.556694 222.589168 
L 284.87405 221.413316 
L 285.191405 221.429892 
L 285.50876 219.222164 
L 286.143471 211.159467 
L 286.460826 211.960015 
L 286.778182 217.765434 
L 287.412893 232.465623 
L 287.730248 235.228487 
L 288.047603 234.443741 
L 288.999669 227.285863 
L 289.317025 227.256645 
L 289.63438 230.419054 
L 290.269091 247.145168 
L 290.586446 255.063434 
L 290.903802 256.525437 
L 291.221157 249.640529 
L 291.855868 226.3604 
L 292.173223 221.697799 
L 292.490579 223.780299 
L 292.807934 227.830337 
L 293.125289 228.014077 
L 293.442645 222.390082 
L 293.76 214.642838 
L 294.077355 211.096154 
L 294.394711 215.475737 
L 295.029421 236.013949 
L 295.346777 240.732131 
L 295.664132 239.254757 
L 295.981488 235.335109 
L 296.298843 233.359283 
L 296.616198 234.488246 
L 296.933554 236.223547 
L 297.250909 235.591427 
L 297.568264 232.786509 
L 297.88562 231.675562 
L 298.202975 236.463087 
L 299.155041 265.575925 
L 299.472397 261.645421 
L 300.424463 228.817379 
L 300.741818 228.036355 
L 301.376529 233.564088 
L 301.693884 232.021396 
L 302.64595 219.51854 
L 302.963306 219.469832 
L 303.280661 221.708765 
L 303.598017 225.807512 
L 304.550083 244.399823 
L 304.867438 246.666669 
L 305.184793 244.35739 
L 305.819504 235.547427 
L 306.13686 235.544488 
L 306.77157 241.606764 
L 307.088926 241.315206 
L 307.406281 238.639541 
L 307.723636 238.030062 
L 308.040992 243.864092 
L 308.675702 268.704007 
L 308.993058 274.050001 
L 309.310413 267.91614 
L 309.945124 238.312043 
L 310.262479 230.569095 
L 310.579835 231.809726 
L 310.89719 237.482876 
L 311.214545 240.963964 
L 311.531901 238.828343 
L 312.166612 227.644929 
L 312.483967 226.071621 
L 313.118678 227.9793 
L 313.753388 224.926672 
L 314.070744 226.64079 
L 314.388099 233.706936 
L 315.02281 251.985082 
L 315.340165 253.804315 
L 315.657521 249.404956 
L 315.974876 242.940507 
L 316.292231 239.260956 
L 316.609587 240.237587 
L 317.244298 246.272658 
L 317.561653 245.549666 
L 318.196364 240.613557 
L 318.513719 241.638138 
L 318.831074 246.070893 
L 320.100496 273.289427 
L 320.417851 274.959356 
L 320.735207 270.11937 
L 321.687273 233.467244 
L 322.004628 231.099023 
L 322.321983 237.000174 
L 322.639339 245.499492 
L 322.956694 249.385929 
L 323.27405 245.24069 
L 323.90876 228.080616 
L 324.226116 226.691401 
L 324.860826 235.96626 
L 325.178182 236.058278 
L 325.812893 226.04856 
L 326.130248 227.095133 
L 326.447603 236.14616 
L 327.082314 258.637289 
L 327.399669 260.205148 
L 328.351736 244.155726 
L 328.669091 245.41108 
L 328.986446 248.635825 
L 329.303802 250.185078 
L 329.621157 248.880815 
L 329.938512 246.550571 
L 330.255868 245.735849 
L 330.573223 247.079 
L 330.890579 248.962969 
L 331.207934 249.612364 
L 331.525289 249.413623 
L 331.842645 251.021725 
L 332.16 256.953787 
L 332.794711 276.937473 
L 333.112066 282.431625 
L 333.429421 280.718892 
L 334.064132 262.449758 
L 334.698843 245.358994 
L 335.016198 240.521321 
L 335.333554 238.52442 
L 335.650909 240.046401 
L 336.602975 253.172212 
L 336.920331 249.369623 
L 337.555041 230.91765 
L 337.872397 227.382699 
L 338.189752 231.633187 
L 338.507107 239.773196 
L 338.824463 244.760254 
L 339.141818 242.048018 
L 339.776529 226.625806 
L 340.093884 228.276889 
L 341.04595 265.829581 
L 341.363306 266.914393 
L 342.315372 248.415649 
L 342.632727 250.304427 
L 342.950083 254.086887 
L 343.267438 255.452223 
L 343.584793 253.227878 
L 343.902149 249.921829 
L 344.219504 248.901181 
L 344.53686 251.091532 
L 344.854215 254.247447 
L 345.17157 255.269999 
L 345.488926 253.232358 
L 345.806281 250.302549 
L 346.123636 249.838958 
L 346.440992 253.54878 
L 347.393058 273.456191 
L 348.027769 281.986467 
L 348.345124 284.614775 
L 348.662479 283.757392 
L 348.979835 277.453516 
L 349.931901 245.307481 
L 350.249256 242.485566 
L 350.566612 244.388731 
L 351.201322 249.789315 
L 351.836033 251.995282 
L 352.153388 253.829162 
L 352.470744 254.19489 
L 352.788099 250.323673 
L 353.42281 233.040393 
L 353.740165 229.325045 
L 354.057521 233.933539 
L 354.692231 252.095933 
L 355.009587 251.613054 
L 355.961653 226.073735 
L 356.279008 233.238653 
L 356.913719 264.820632 
L 357.231074 272.656234 
L 357.54843 270.606149 
L 358.18314 256.658784 
L 358.500496 254.96664 
L 359.135207 258.88355 
L 359.452562 258.422537 
L 360.087273 254.520215 
L 360.404628 255.007069 
L 360.721983 256.825544 
L 361.039339 257.945554 
L 361.356694 257.309829 
L 361.67405 255.851431 
L 361.991405 255.361545 
L 362.30876 256.495789 
L 362.626116 258.062797 
L 362.943471 258.407907 
L 363.260826 257.51033 
L 363.578182 257.563258 
L 363.895537 261.222966 
L 364.847603 285.513067 
L 365.164959 288.113248 
L 365.482314 287.120976 
L 366.43438 281.544826 
L 366.751736 275.603752 
L 367.703802 244.131031 
L 368.021157 243.015553 
L 368.973223 258.518269 
L 369.290579 256.759367 
L 369.607934 253.464327 
L 369.925289 253.050842 
L 370.56 259.913152 
L 370.877355 257.970948 
L 371.829421 229.61646 
L 372.146777 232.478678 
L 372.781488 256.100918 
L 373.098843 260.935712 
L 373.416198 255.3078 
L 374.050909 232.836118 
L 374.368264 230.228475 
L 374.68562 236.500088 
L 375.637686 268.136249 
L 375.955041 272.780986 
L 376.272397 273.933608 
L 376.589752 271.983563 
L 377.541818 257.846419 
L 377.859174 257.497646 
L 378.493884 264.314937 
L 378.81124 265.293454 
L 379.128595 262.472668 
L 379.44595 258.13818 
L 379.763306 256.040242 
L 380.080661 258.085985 
L 380.715372 265.510582 
L 381.032727 264.357404 
L 381.667438 256.86241 
L 381.984793 257.537814 
L 382.619504 265.720483 
L 382.93686 266.194619 
L 383.254215 263.55043 
L 383.57157 262.031203 
L 383.888926 266.12031 
L 384.840992 295.488 
L 385.158347 295.282222 
L 385.793058 285.545111 
L 386.110413 285.365574 
L 386.427769 287.980385 
L 386.745124 287.878576 
L 387.062479 280.539191 
L 387.69719 252.591344 
L 388.014545 244.995717 
L 388.331901 246.604434 
L 388.966612 260.889244 
L 389.283967 262.670634 
L 389.918678 256.402786 
L 390.236033 256.271005 
L 390.870744 264.120845 
L 391.188099 265.47407 
L 391.505455 262.298403 
L 392.457521 242.130939 
L 392.774876 238.563796 
L 393.092231 238.564302 
L 393.409587 242.867137 
L 394.361653 265.126821 
L 394.679008 262.358979 
L 395.631074 230.911468 
L 395.94843 233.202234 
L 396.900496 270.128559 
L 397.217851 274.41636 
L 397.535207 274.31213 
L 397.852562 273.958173 
L 398.487273 276.432014 
L 398.487273 276.432014 
" clip-path="url(#p0bf8ec6df7)" style="fill: none; stroke: #00008b; stroke-width: 1.5; stroke-linecap: square"/>
   </g>
   <g id="patch_3">
    <path d="M 57.6 307.584 
L 57.6 41.472 
" style="fill: none; stroke: #000000; stroke-width: 0.8; stroke-linejoin: miter; stroke-linecap: square"/>
   </g>
   <g id="patch_4">
    <path d="M 414.72 307.584 
L 414.72 41.472 
" style="fill: none; stroke: #000000; stroke-width: 0.8; stroke-linejoin: miter; stroke-linecap: square"/>
   </g>
   <g id="patch_5">
    <path d="M 57.6 307.584 
L 414.72 307.584 
" style="fill: none; stroke: #000000; stroke-width: 0.8; stroke-linejoin: miter; stroke-linecap: square"/>
   </g>
   <g id="patch_6">
    <path d="M 57.6 41.472 
L 414.72 41.472 
" style="fill: none; stroke: #000000; stroke-width: 0.8; stroke-linejoin: miter; stroke-linecap: square"/>
   </g>
  </g>
 </g>
 <defs>
  <clipPath id="p0bf8ec6df7">
   <rect x="57.6" y="41.472" width="357.12" height="266.112"/>
  </clipPath>
 </defs>
</svg>
