<?xml version="1.0" encoding="utf-8" standalone="no"?>
<!DOCTYPE svg PUBLIC "-//W3C//DTD SVG 1.1//EN"
  "http://www.w3.org/Graphics/SVG/1.1/DTD/svg11.dtd">
<svg xmlns:xlink="http://www.w3.org/1999/xlink" width="460.8pt" height="345.6pt" viewBox="0 0 460.8 345.6" xmlns="http://www.w3.org/2000/svg" version="1.1">
 <metadata>
  <rdf:RDF xmlns:dc="http://purl.org/dc/elements/1.1/" xmlns:cc="http://creativecommons.org/ns#" xmlns:rdf="http://www.w3.org/1999/02/22-rdf-syntax-ns#">
   <cc:Work>
    <dc:type rdf:resource="http://purl.org/dc/dcmitype/StillImage"/>
    <dc:date>2024-02-14T13:38:47.533403</dc:date>
    <dc:format>image/svg+xml</dc:format>
    <dc:creator>
     <cc:Agent>
      <dc:title>Matplotlib v3.7.4, https://matplotlib.org/</dc:title>
     </cc:Agent>
    </dc:creator>
   </cc:Work>
  </rdf:RDF>
 </metadata>
 <defs>
  <style type="text/css">*{stroke-linejoin: round; stroke-linecap: butt}</style>
 </defs>
 <g id="figure_1">
  <g id="patch_1">
   <path d="M 0 345.6 
L 460.8 345.6 
L 460.8 0 
L 0 0 
z
" style="fill: #ffffff"/>
  </g>
  <g id="axes_1">
   <g id="patch_2">
    <path d="M 57.6 307.584 
L 414.72 307.584 
L 414.72 41.472 
L 57.6 41.472 
z
" style="fill: #ffffff"/>
   </g>
   <g id="PolyCollection_1"/>
   <g id="matplotlib.axis_1">
    <g id="xtick_1">
     <g id="line2d_1">
      <defs>
       <path id="m84ff342ada" d="M 0 0 
L 0 3.5 
" style="stroke: #000000; stroke-width: 0.8"/>
      </defs>
      <g>
       <use xlink:href="#m84ff342ada" x="73.832727" y="307.584" style="stroke: #000000; stroke-width: 0.8"/>
      </g>
     </g>
     <g id="text_1">
      <!-- 0 -->
      <g transform="translate(70.651477 322.182437) scale(0.1 -0.1)">
       <defs>
        <path id="DejaVuSans-30" d="M 2034 4250 
Q 1547 4250 1301 3770 
Q 1056 3291 1056 2328 
Q 1056 1369 1301 889 
Q 1547 409 2034 409 
Q 2525 409 2770 889 
Q 3016 1369 3016 2328 
Q 3016 3291 2770 3770 
Q 2525 4250 2034 4250 
z
M 2034 4750 
Q 2819 4750 3233 4129 
Q 3647 3509 3647 2328 
Q 3647 1150 3233 529 
Q 2819 -91 2034 -91 
Q 1250 -91 836 529 
Q 422 1150 422 2328 
Q 422 3509 836 4129 
Q 1250 4750 2034 4750 
z
" transform="scale(0.015625)"/>
       </defs>
       <use xlink:href="#DejaVuSans-30"/>
      </g>
     </g>
    </g>
    <g id="xtick_2">
     <g id="line2d_2">
      <g>
       <use xlink:href="#m84ff342ada" x="137.303802" y="307.584" style="stroke: #000000; stroke-width: 0.8"/>
      </g>
     </g>
     <g id="text_2">
      <!-- 200 -->
      <g transform="translate(127.760052 322.182437) scale(0.1 -0.1)">
       <defs>
        <path id="DejaVuSans-32" d="M 1228 531 
L 3431 531 
L 3431 0 
L 469 0 
L 469 531 
Q 828 903 1448 1529 
Q 2069 2156 2228 2338 
Q 2531 2678 2651 2914 
Q 2772 3150 2772 3378 
Q 2772 3750 2511 3984 
Q 2250 4219 1831 4219 
Q 1534 4219 1204 4116 
Q 875 4013 500 3803 
L 500 4441 
Q 881 4594 1212 4672 
Q 1544 4750 1819 4750 
Q 2544 4750 2975 4387 
Q 3406 4025 3406 3419 
Q 3406 3131 3298 2873 
Q 3191 2616 2906 2266 
Q 2828 2175 2409 1742 
Q 1991 1309 1228 531 
z
" transform="scale(0.015625)"/>
       </defs>
       <use xlink:href="#DejaVuSans-32"/>
       <use xlink:href="#DejaVuSans-30" x="63.623047"/>
       <use xlink:href="#DejaVuSans-30" x="127.246094"/>
      </g>
     </g>
    </g>
    <g id="xtick_3">
     <g id="line2d_3">
      <g>
       <use xlink:href="#m84ff342ada" x="200.774876" y="307.584" style="stroke: #000000; stroke-width: 0.8"/>
      </g>
     </g>
     <g id="text_3">
      <!-- 400 -->
      <g transform="translate(191.231126 322.182437) scale(0.1 -0.1)">
       <defs>
        <path id="DejaVuSans-34" d="M 2419 4116 
L 825 1625 
L 2419 1625 
L 2419 4116 
z
M 2253 4666 
L 3047 4666 
L 3047 1625 
L 3713 1625 
L 3713 1100 
L 3047 1100 
L 3047 0 
L 2419 0 
L 2419 1100 
L 313 1100 
L 313 1709 
L 2253 4666 
z
" transform="scale(0.015625)"/>
       </defs>
       <use xlink:href="#DejaVuSans-34"/>
       <use xlink:href="#DejaVuSans-30" x="63.623047"/>
       <use xlink:href="#DejaVuSans-30" x="127.246094"/>
      </g>
     </g>
    </g>
    <g id="xtick_4">
     <g id="line2d_4">
      <g>
       <use xlink:href="#m84ff342ada" x="264.24595" y="307.584" style="stroke: #000000; stroke-width: 0.8"/>
      </g>
     </g>
     <g id="text_4">
      <!-- 600 -->
      <g transform="translate(254.7022 322.182437) scale(0.1 -0.1)">
       <defs>
        <path id="DejaVuSans-36" d="M 2113 2584 
Q 1688 2584 1439 2293 
Q 1191 2003 1191 1497 
Q 1191 994 1439 701 
Q 1688 409 2113 409 
Q 2538 409 2786 701 
Q 3034 994 3034 1497 
Q 3034 2003 2786 2293 
Q 2538 2584 2113 2584 
z
M 3366 4563 
L 3366 3988 
Q 3128 4100 2886 4159 
Q 2644 4219 2406 4219 
Q 1781 4219 1451 3797 
Q 1122 3375 1075 2522 
Q 1259 2794 1537 2939 
Q 1816 3084 2150 3084 
Q 2853 3084 3261 2657 
Q 3669 2231 3669 1497 
Q 3669 778 3244 343 
Q 2819 -91 2113 -91 
Q 1303 -91 875 529 
Q 447 1150 447 2328 
Q 447 3434 972 4092 
Q 1497 4750 2381 4750 
Q 2619 4750 2861 4703 
Q 3103 4656 3366 4563 
z
" transform="scale(0.015625)"/>
       </defs>
       <use xlink:href="#DejaVuSans-36"/>
       <use xlink:href="#DejaVuSans-30" x="63.623047"/>
       <use xlink:href="#DejaVuSans-30" x="127.246094"/>
      </g>
     </g>
    </g>
    <g id="xtick_5">
     <g id="line2d_5">
      <g>
       <use xlink:href="#m84ff342ada" x="327.717025" y="307.584" style="stroke: #000000; stroke-width: 0.8"/>
      </g>
     </g>
     <g id="text_5">
      <!-- 800 -->
      <g transform="translate(318.173275 322.182437) scale(0.1 -0.1)">
       <defs>
        <path id="DejaVuSans-38" d="M 2034 2216 
Q 1584 2216 1326 1975 
Q 1069 1734 1069 1313 
Q 1069 891 1326 650 
Q 1584 409 2034 409 
Q 2484 409 2743 651 
Q 3003 894 3003 1313 
Q 3003 1734 2745 1975 
Q 2488 2216 2034 2216 
z
M 1403 2484 
Q 997 2584 770 2862 
Q 544 3141 544 3541 
Q 544 4100 942 4425 
Q 1341 4750 2034 4750 
Q 2731 4750 3128 4425 
Q 3525 4100 3525 3541 
Q 3525 3141 3298 2862 
Q 3072 2584 2669 2484 
Q 3125 2378 3379 2068 
Q 3634 1759 3634 1313 
Q 3634 634 3220 271 
Q 2806 -91 2034 -91 
Q 1263 -91 848 271 
Q 434 634 434 1313 
Q 434 1759 690 2068 
Q 947 2378 1403 2484 
z
M 1172 3481 
Q 1172 3119 1398 2916 
Q 1625 2713 2034 2713 
Q 2441 2713 2670 2916 
Q 2900 3119 2900 3481 
Q 2900 3844 2670 4047 
Q 2441 4250 2034 4250 
Q 1625 4250 1398 4047 
Q 1172 3844 1172 3481 
z
" transform="scale(0.015625)"/>
       </defs>
       <use xlink:href="#DejaVuSans-38"/>
       <use xlink:href="#DejaVuSans-30" x="63.623047"/>
       <use xlink:href="#DejaVuSans-30" x="127.246094"/>
      </g>
     </g>
    </g>
    <g id="xtick_6">
     <g id="line2d_6">
      <g>
       <use xlink:href="#m84ff342ada" x="391.188099" y="307.584" style="stroke: #000000; stroke-width: 0.8"/>
      </g>
     </g>
     <g id="text_6">
      <!-- 1000 -->
      <g transform="translate(378.463099 322.182437) scale(0.1 -0.1)">
       <defs>
        <path id="DejaVuSans-31" d="M 794 531 
L 1825 531 
L 1825 4091 
L 703 3866 
L 703 4441 
L 1819 4666 
L 2450 4666 
L 2450 531 
L 3481 531 
L 3481 0 
L 794 0 
L 794 531 
z
" transform="scale(0.015625)"/>
       </defs>
       <use xlink:href="#DejaVuSans-31"/>
       <use xlink:href="#DejaVuSans-30" x="63.623047"/>
       <use xlink:href="#DejaVuSans-30" x="127.246094"/>
       <use xlink:href="#DejaVuSans-30" x="190.869141"/>
      </g>
     </g>
    </g>
   </g>
   <g id="matplotlib.axis_2">
    <g id="ytick_1">
     <g id="line2d_7">
      <defs>
       <path id="m97ff73d93c" d="M 0 0 
L -3.5 0 
" style="stroke: #000000; stroke-width: 0.8"/>
      </defs>
      <g>
       <use xlink:href="#m97ff73d93c" x="57.6" y="305.75173" style="stroke: #000000; stroke-width: 0.8"/>
      </g>
     </g>
     <g id="text_7">
      <!-- 100 -->
      <g transform="translate(31.5125 309.550948) scale(0.1 -0.1)">
       <use xlink:href="#DejaVuSans-31"/>
       <use xlink:href="#DejaVuSans-30" x="63.623047"/>
       <use xlink:href="#DejaVuSans-30" x="127.246094"/>
      </g>
     </g>
    </g>
    <g id="ytick_2">
     <g id="line2d_8">
      <g>
       <use xlink:href="#m97ff73d93c" x="57.6" y="275.146908" style="stroke: #000000; stroke-width: 0.8"/>
      </g>
     </g>
     <g id="text_8">
      <!-- 150 -->
      <g transform="translate(31.5125 278.946127) scale(0.1 -0.1)">
       <defs>
        <path id="DejaVuSans-35" d="M 691 4666 
L 3169 4666 
L 3169 4134 
L 1269 4134 
L 1269 2991 
Q 1406 3038 1543 3061 
Q 1681 3084 1819 3084 
Q 2600 3084 3056 2656 
Q 3513 2228 3513 1497 
Q 3513 744 3044 326 
Q 2575 -91 1722 -91 
Q 1428 -91 1123 -41 
Q 819 9 494 109 
L 494 744 
Q 775 591 1075 516 
Q 1375 441 1709 441 
Q 2250 441 2565 725 
Q 2881 1009 2881 1497 
Q 2881 1984 2565 2268 
Q 2250 2553 1709 2553 
Q 1456 2553 1204 2497 
Q 953 2441 691 2322 
L 691 4666 
z
" transform="scale(0.015625)"/>
       </defs>
       <use xlink:href="#DejaVuSans-31"/>
       <use xlink:href="#DejaVuSans-35" x="63.623047"/>
       <use xlink:href="#DejaVuSans-30" x="127.246094"/>
      </g>
     </g>
    </g>
    <g id="ytick_3">
     <g id="line2d_9">
      <g>
       <use xlink:href="#m97ff73d93c" x="57.6" y="244.542087" style="stroke: #000000; stroke-width: 0.8"/>
      </g>
     </g>
     <g id="text_9">
      <!-- 200 -->
      <g transform="translate(31.5125 248.341305) scale(0.1 -0.1)">
       <use xlink:href="#DejaVuSans-32"/>
       <use xlink:href="#DejaVuSans-30" x="63.623047"/>
       <use xlink:href="#DejaVuSans-30" x="127.246094"/>
      </g>
     </g>
    </g>
    <g id="ytick_4">
     <g id="line2d_10">
      <g>
       <use xlink:href="#m97ff73d93c" x="57.6" y="213.937265" style="stroke: #000000; stroke-width: 0.8"/>
      </g>
     </g>
     <g id="text_10">
      <!-- 250 -->
      <g transform="translate(31.5125 217.736484) scale(0.1 -0.1)">
       <use xlink:href="#DejaVuSans-32"/>
       <use xlink:href="#DejaVuSans-35" x="63.623047"/>
       <use xlink:href="#DejaVuSans-30" x="127.246094"/>
      </g>
     </g>
    </g>
    <g id="ytick_5">
     <g id="line2d_11">
      <g>
       <use xlink:href="#m97ff73d93c" x="57.6" y="183.332443" style="stroke: #000000; stroke-width: 0.8"/>
      </g>
     </g>
     <g id="text_11">
      <!-- 300 -->
      <g transform="translate(31.5125 187.131662) scale(0.1 -0.1)">
       <defs>
        <path id="DejaVuSans-33" d="M 2597 2516 
Q 3050 2419 3304 2112 
Q 3559 1806 3559 1356 
Q 3559 666 3084 287 
Q 2609 -91 1734 -91 
Q 1441 -91 1130 -33 
Q 819 25 488 141 
L 488 750 
Q 750 597 1062 519 
Q 1375 441 1716 441 
Q 2309 441 2620 675 
Q 2931 909 2931 1356 
Q 2931 1769 2642 2001 
Q 2353 2234 1838 2234 
L 1294 2234 
L 1294 2753 
L 1863 2753 
Q 2328 2753 2575 2939 
Q 2822 3125 2822 3475 
Q 2822 3834 2567 4026 
Q 2313 4219 1838 4219 
Q 1578 4219 1281 4162 
Q 984 4106 628 3988 
L 628 4550 
Q 988 4650 1302 4700 
Q 1616 4750 1894 4750 
Q 2613 4750 3031 4423 
Q 3450 4097 3450 3541 
Q 3450 3153 3228 2886 
Q 3006 2619 2597 2516 
z
" transform="scale(0.015625)"/>
       </defs>
       <use xlink:href="#DejaVuSans-33"/>
       <use xlink:href="#DejaVuSans-30" x="63.623047"/>
       <use xlink:href="#DejaVuSans-30" x="127.246094"/>
      </g>
     </g>
    </g>
    <g id="ytick_6">
     <g id="line2d_12">
      <g>
       <use xlink:href="#m97ff73d93c" x="57.6" y="152.727622" style="stroke: #000000; stroke-width: 0.8"/>
      </g>
     </g>
     <g id="text_12">
      <!-- 350 -->
      <g transform="translate(31.5125 156.526841) scale(0.1 -0.1)">
       <use xlink:href="#DejaVuSans-33"/>
       <use xlink:href="#DejaVuSans-35" x="63.623047"/>
       <use xlink:href="#DejaVuSans-30" x="127.246094"/>
      </g>
     </g>
    </g>
    <g id="ytick_7">
     <g id="line2d_13">
      <g>
       <use xlink:href="#m97ff73d93c" x="57.6" y="122.1228" style="stroke: #000000; stroke-width: 0.8"/>
      </g>
     </g>
     <g id="text_13">
      <!-- 400 -->
      <g transform="translate(31.5125 125.922019) scale(0.1 -0.1)">
       <use xlink:href="#DejaVuSans-34"/>
       <use xlink:href="#DejaVuSans-30" x="63.623047"/>
       <use xlink:href="#DejaVuSans-30" x="127.246094"/>
      </g>
     </g>
    </g>
    <g id="ytick_8">
     <g id="line2d_14">
      <g>
       <use xlink:href="#m97ff73d93c" x="57.6" y="91.517979" style="stroke: #000000; stroke-width: 0.8"/>
      </g>
     </g>
     <g id="text_14">
      <!-- 450 -->
      <g transform="translate(31.5125 95.317197) scale(0.1 -0.1)">
       <use xlink:href="#DejaVuSans-34"/>
       <use xlink:href="#DejaVuSans-35" x="63.623047"/>
       <use xlink:href="#DejaVuSans-30" x="127.246094"/>
      </g>
     </g>
    </g>
    <g id="ytick_9">
     <g id="line2d_15">
      <g>
       <use xlink:href="#m97ff73d93c" x="57.6" y="60.913157" style="stroke: #000000; stroke-width: 0.8"/>
      </g>
     </g>
     <g id="text_15">
      <!-- 500 -->
      <g transform="translate(31.5125 64.712376) scale(0.1 -0.1)">
       <use xlink:href="#DejaVuSans-35"/>
       <use xlink:href="#DejaVuSans-30" x="63.623047"/>
       <use xlink:href="#DejaVuSans-30" x="127.246094"/>
      </g>
     </g>
    </g>
   </g>
   <g id="line2d_16">
    <path d="M 73.832727 280.366596 
L 74.784793 291.150107 
L 75.102149 293.917028 
L 75.419504 295.487972 
L 75.73686 294.923952 
L 76.054215 291.848531 
L 76.688926 283.116098 
L 77.006281 281.42 
L 77.323636 282.457172 
L 77.640992 284.655063 
L 77.958347 285.650756 
L 78.275702 284.02819 
L 78.910413 276.807235 
L 79.227769 275.586563 
L 79.545124 277.590138 
L 80.49719 291.191347 
L 80.814545 293.48251 
L 81.131901 293.776645 
L 81.449256 292.232791 
L 82.718678 280.980775 
L 83.036033 281.428135 
L 83.353388 282.804848 
L 83.670744 283.367835 
L 83.988099 281.856843 
L 84.62281 275.395834 
L 84.940165 274.639259 
L 85.257521 277.463098 
L 86.209587 292.920251 
L 86.526942 293.523568 
L 86.844298 291.241259 
L 87.479008 284.137224 
L 87.796364 281.882789 
L 88.113719 280.987303 
L 88.431074 281.033498 
L 88.74843 281.294743 
L 89.065785 280.987677 
L 89.38314 279.597001 
L 90.017851 275.074263 
L 90.335207 274.565736 
L 90.652562 276.956 
L 91.604628 292.359136 
L 91.921983 292.915053 
L 92.239339 289.74154 
L 92.87405 280.647987 
L 93.191405 279.050424 
L 93.50876 279.763176 
L 93.826116 281.058875 
L 94.143471 281.051188 
L 94.460826 279.019219 
L 95.095537 273.345783 
L 95.412893 273.200353 
L 95.730248 275.952489 
L 96.682314 289.782398 
L 96.999669 290.698259 
L 97.317025 288.616625 
L 97.951736 280.461302 
L 98.269091 277.959296 
L 98.586446 277.706587 
L 98.903802 278.810931 
L 99.221157 279.433031 
L 99.538512 278.115355 
L 100.173223 272.01238 
L 100.490579 271.632967 
L 100.807934 275.140725 
L 101.442645 287.618083 
L 101.76 290.552001 
L 102.077355 289.05614 
L 102.712066 279.684628 
L 103.029421 277.103299 
L 103.346777 277.186395 
L 103.664132 278.394514 
L 103.981488 278.561903 
L 104.298843 276.593203 
L 104.933554 270.760074 
L 105.250909 271.032536 
L 105.568264 274.647385 
L 106.202975 285.541153 
L 106.520331 288.126722 
L 106.837686 287.16397 
L 107.789752 276.247058 
L 108.107107 275.492996 
L 108.424463 276.152791 
L 108.741818 276.464443 
L 109.059174 275.064064 
L 109.693884 269.823044 
L 110.01124 270.328208 
L 110.328595 274.663085 
L 110.963306 286.712305 
L 111.280661 288.000401 
L 111.598017 284.592486 
L 112.232727 274.522931 
L 112.550083 273.595886 
L 113.184793 276.509994 
L 113.502149 274.943206 
L 114.13686 267.532436 
L 114.454215 268.202795 
L 114.77157 273.71581 
L 115.406281 286.421069 
L 115.723636 286.243724 
L 116.675702 273.225066 
L 116.993058 273.804772 
L 117.310413 275.363032 
L 117.627769 274.817333 
L 118.262479 267.283128 
L 118.579835 266.273546 
L 118.89719 270.107517 
L 119.531901 283.016731 
L 119.849256 284.629341 
L 120.166612 281.670009 
L 120.801322 273.674798 
L 121.118678 273.097474 
L 121.436033 273.636813 
L 121.753388 272.856441 
L 122.388099 266.716572 
L 122.705455 266.048558 
L 123.02281 269.41917 
L 123.657521 280.665527 
L 123.974876 282.361849 
L 124.292231 280.214645 
L 124.926942 273.250788 
L 125.244298 271.922997 
L 125.561653 271.350091 
L 125.879008 270.020311 
L 126.513719 265.925207 
L 126.831074 266.66115 
L 127.14843 270.474732 
L 127.78314 279.681331 
L 128.100496 280.357097 
L 128.417851 277.922768 
L 129.052562 271.146211 
L 129.369917 269.355155 
L 130.321983 265.923871 
L 130.639339 266.170789 
L 130.956694 268.660513 
L 131.591405 277.0723 
L 131.90876 278.955391 
L 132.226116 277.670302 
L 133.178182 267.120287 
L 133.495537 265.668651 
L 133.812893 265.248647 
L 134.130248 265.465107 
L 134.447603 266.517195 
L 134.764959 268.847599 
L 135.399669 275.655285 
L 135.717025 277.218356 
L 136.03438 275.913486 
L 136.986446 264.178197 
L 137.303802 262.906334 
L 137.621157 263.627529 
L 138.255868 267.944604 
L 138.890579 272.98973 
L 139.207934 274.669025 
L 139.525289 274.59907 
L 139.842645 272.212066 
L 140.794711 261.035646 
L 141.112066 261.19503 
L 141.429421 263.826617 
L 142.064132 270.834905 
L 142.381488 272.732006 
L 142.698843 273.011286 
L 143.016198 271.809966 
L 143.333554 269.337353 
L 144.28562 260.223051 
L 144.602975 260.306278 
L 144.920331 263.023596 
L 145.555041 271.285459 
L 145.872397 273.072471 
L 146.189752 271.992131 
L 147.459174 259.805363 
L 147.776529 260.028623 
L 148.093884 261.947477 
L 149.04595 270.97136 
L 149.363306 271.190716 
L 149.680661 268.671198 
L 150.315372 259.746784 
L 150.632727 257.342239 
L 150.950083 258.08911 
L 151.902149 268.989425 
L 152.219504 269.865736 
L 152.53686 268.280997 
L 153.488926 258.250484 
L 153.806281 257.046568 
L 154.123636 258.219289 
L 155.075702 268.723286 
L 155.393058 268.943865 
L 155.710413 265.911673 
L 156.345124 256.508527 
L 156.662479 254.840654 
L 156.979835 256.678167 
L 157.614545 265.170622 
L 157.931901 267.417397 
L 158.249256 266.688833 
L 158.883967 259.356976 
L 159.201322 255.999589 
L 159.518678 254.762872 
L 159.836033 256.150502 
L 160.788099 266.165633 
L 161.105455 265.642938 
L 161.42281 261.952595 
L 162.057521 252.975308 
L 162.374876 252.72218 
L 162.692231 256.277478 
L 163.326942 265.325831 
L 163.644298 265.27534 
L 163.961653 261.408726 
L 164.596364 252.249368 
L 164.913719 252.060264 
L 165.231074 255.263861 
L 165.865785 262.934736 
L 166.18314 263.05296 
L 166.500496 260.131941 
L 167.135207 252.193329 
L 167.452562 251.320063 
L 167.769917 253.621224 
L 168.404628 261.529145 
L 168.721983 262.231558 
L 169.039339 259.14498 
L 169.67405 249.621041 
L 169.991405 249.340117 
L 170.30876 253.397563 
L 170.626116 259.094788 
L 170.943471 262.313842 
L 171.260826 260.460647 
L 171.895537 248.668246 
L 172.212893 247.086785 
L 172.530248 250.954221 
L 172.847603 257.308672 
L 173.164959 261.225749 
L 173.482314 259.589043 
L 174.117025 247.646223 
L 174.43438 246.310073 
L 174.751736 250.340891 
L 175.069091 256.332256 
L 175.386446 259.412781 
L 175.703802 257.130682 
L 176.338512 246.626835 
L 176.655868 246.521107 
L 177.290579 255.559253 
L 177.607934 256.934415 
L 177.925289 253.814242 
L 178.242645 248.832963 
L 178.56 245.985084 
L 178.877355 247.295194 
L 179.512066 254.3253 
L 179.829421 253.861819 
L 180.464132 246.754454 
L 180.781488 245.901091 
L 181.098843 248.138966 
L 181.416198 251.206481 
L 181.733554 252.305202 
L 182.050909 250.492767 
L 182.368264 247.351457 
L 182.68562 245.474278 
L 183.002975 246.190794 
L 183.637686 250.174455 
L 183.955041 249.606312 
L 184.589752 245.189684 
L 184.907107 244.920472 
L 185.541818 248.03689 
L 185.859174 248.191409 
L 186.81124 243.897945 
L 187.128595 244.686256 
L 187.44595 246.06381 
L 187.763306 246.570039 
L 188.080661 245.611191 
L 188.398017 243.937481 
L 188.715372 242.891922 
L 189.032727 243.172836 
L 189.350083 244.243818 
L 189.667438 244.885961 
L 189.984793 244.334181 
L 190.619504 241.809508 
L 190.93686 241.735097 
L 191.57157 243.183092 
L 191.888926 242.908621 
L 192.523636 240.623982 
L 192.840992 240.300057 
L 193.475702 241.462925 
L 193.793058 241.377465 
L 194.745124 238.829311 
L 195.062479 239.143541 
L 195.379835 239.713216 
L 195.69719 239.757543 
L 196.014545 239.007151 
L 196.331901 237.936795 
L 196.649256 237.301489 
L 196.966612 237.426895 
L 197.283967 237.91918 
L 197.601322 238.052488 
L 197.918678 237.453009 
L 198.553388 235.702833 
L 198.870744 235.660972 
L 199.188099 236.066677 
L 199.505455 236.258975 
L 199.82281 235.7889 
L 200.457521 234.022566 
L 200.774876 233.829652 
L 201.409587 234.370056 
L 201.726942 234.01218 
L 202.361653 232.24991 
L 202.679008 231.918326 
L 203.313719 232.376203 
L 203.631074 232.115929 
L 204.58314 229.912724 
L 204.900496 230.019946 
L 205.217851 230.265593 
L 205.535207 230.090144 
L 206.487273 227.797453 
L 206.804628 227.793008 
L 207.121983 228.02373 
L 207.439339 227.921599 
L 207.756694 227.232449 
L 208.391405 225.555292 
L 208.70876 225.43237 
L 209.026116 225.632812 
L 209.343471 225.593062 
L 209.660826 224.972784 
L 210.295537 223.165934 
L 210.612893 222.916784 
L 210.930248 223.071825 
L 211.247603 223.083211 
L 211.564959 222.532113 
L 212.199669 220.605283 
L 212.517025 220.220556 
L 213.151736 220.364987 
L 213.469091 219.882958 
L 214.103802 217.843527 
L 214.421157 217.312098 
L 215.055868 217.404376 
L 215.373223 216.99077 
L 216.325289 214.15125 
L 216.642645 214.065398 
L 216.96 214.156583 
L 217.277355 213.810467 
L 218.229421 210.685914 
L 218.546777 210.475487 
L 218.864132 210.563253 
L 219.181488 210.282796 
L 219.498843 209.2945 
L 220.133554 206.846749 
L 220.450909 206.481001 
L 220.768264 206.545072 
L 221.08562 206.327267 
L 221.402975 205.352299 
L 222.037686 202.53809 
L 222.355041 201.976428 
L 222.672397 201.9907 
L 222.989752 201.831325 
L 223.307107 200.870945 
L 223.941818 197.62318 
L 224.259174 196.809026 
L 224.893884 196.630317 
L 225.21124 195.683107 
L 226.163306 190.744156 
L 226.480661 190.533842 
L 226.798017 190.468986 
L 227.115372 189.529808 
L 228.067438 183.396272 
L 228.384793 182.960643 
L 228.702149 182.921639 
L 229.019504 181.97697 
L 229.97157 174.060512 
L 230.288926 173.238718 
L 230.606281 173.194148 
L 230.923636 172.211969 
L 231.240992 169.213821 
L 231.875702 161.223972 
L 232.193058 159.650169 
L 232.510413 159.526211 
L 232.827769 158.416301 
L 233.145124 154.209202 
L 233.779835 140.528283 
L 234.09719 136.978337 
L 234.414545 136.509289 
L 234.731901 134.858545 
L 235.049256 126.177061 
L 235.683967 83.274776 
L 236.001322 62.01242 
L 236.318678 53.568 
L 236.636033 62.012383 
L 237.588099 126.17708 
L 237.905455 134.858489 
L 238.22281 136.509289 
L 238.540165 136.978355 
L 238.857521 140.528246 
L 239.809587 158.416301 
L 240.126942 159.526136 
L 240.444298 159.650207 
L 240.761653 161.223934 
L 241.713719 172.211988 
L 242.031074 173.194148 
L 242.34843 173.238736 
L 242.665785 174.060475 
L 243.935207 182.921677 
L 244.252562 182.960643 
L 244.569917 183.396328 
L 244.887273 185.025123 
L 245.521983 189.529808 
L 245.839339 190.468986 
L 246.156694 190.533898 
L 246.47405 190.744231 
L 246.791405 191.896152 
L 247.426116 195.683163 
L 247.743471 196.630354 
L 248.378182 196.808988 
L 248.695537 197.623236 
L 249.647603 201.831362 
L 249.964959 201.990737 
L 250.282314 201.97641 
L 250.599669 202.53809 
L 251.551736 206.327286 
L 251.869091 206.545072 
L 252.186446 206.481001 
L 252.503802 206.846787 
L 253.455868 210.282824 
L 253.773223 210.5633 
L 254.090579 210.475534 
L 254.407934 210.685951 
L 254.725289 211.556294 
L 255.36 213.810411 
L 255.677355 214.15649 
L 255.994711 214.065426 
L 256.312066 214.151222 
L 256.629421 214.843333 
L 257.264132 216.990826 
L 257.581488 217.404329 
L 258.216198 217.312126 
L 258.533554 217.843545 
L 259.168264 219.882995 
L 259.48562 220.365015 
L 260.120331 220.220565 
L 260.437686 220.605208 
L 261.389752 223.083192 
L 261.707107 223.071769 
L 262.024463 222.916728 
L 262.341818 223.165924 
L 263.293884 225.593127 
L 263.61124 225.632812 
L 263.928595 225.432248 
L 264.24595 225.555198 
L 264.563306 226.254772 
L 265.198017 227.921561 
L 265.515372 228.023627 
L 265.832727 227.792924 
L 266.150083 227.797397 
L 266.467438 228.380279 
L 267.102149 230.090163 
L 267.419504 230.265677 
L 268.054215 229.912715 
L 268.37157 230.373534 
L 269.006281 232.115883 
L 269.323636 232.376222 
L 269.958347 231.918354 
L 270.275702 232.249835 
L 270.910413 234.012152 
L 271.227769 234.370028 
L 271.862479 233.829727 
L 272.179835 234.022566 
L 273.131901 236.258984 
L 273.449256 236.066667 
L 273.766612 235.661028 
L 274.083967 235.70289 
L 275.036033 238.052488 
L 275.353388 237.919161 
L 275.670744 237.426858 
L 275.988099 237.301442 
L 276.305455 237.936842 
L 276.940165 239.757608 
L 277.257521 239.713197 
L 277.574876 239.143578 
L 277.892231 238.829264 
L 278.209587 239.332346 
L 278.844298 241.37739 
L 279.161653 241.462934 
L 279.796364 240.300057 
L 280.113719 240.623945 
L 280.74843 242.908612 
L 281.065785 243.183082 
L 281.700496 241.735023 
L 282.017851 241.809527 
L 282.969917 244.885998 
L 283.287273 244.243837 
L 283.604628 243.172958 
L 283.921983 242.892015 
L 284.239339 243.937499 
L 284.556694 245.611154 
L 284.87405 246.570086 
L 285.191405 246.063903 
L 285.50876 244.686312 
L 285.826116 243.898123 
L 286.143471 244.69866 
L 286.778182 248.191409 
L 287.095537 248.037002 
L 287.730248 244.920276 
L 288.047603 245.189684 
L 288.682314 249.606237 
L 288.999669 250.174343 
L 289.317025 248.521022 
L 289.63438 246.19072 
L 289.951736 245.474297 
L 290.269091 247.351532 
L 290.586446 250.492767 
L 290.903802 252.305249 
L 291.221157 251.206406 
L 291.855868 245.901137 
L 292.173223 246.754361 
L 292.807934 253.86195 
L 293.125289 254.325393 
L 294.077355 245.985121 
L 294.394711 248.832907 
L 294.712066 253.814298 
L 295.029421 256.934415 
L 295.346777 255.559159 
L 295.981488 246.521126 
L 296.298843 246.626909 
L 297.250909 259.412819 
L 297.568264 256.332312 
L 298.202975 246.310055 
L 298.520331 247.646298 
L 299.155041 259.588978 
L 299.472397 261.225768 
L 299.789752 257.308522 
L 300.107107 250.95423 
L 300.424463 247.086822 
L 300.741818 248.668339 
L 301.376529 260.460573 
L 301.693884 262.313851 
L 302.01124 259.094694 
L 302.64595 249.340061 
L 302.963306 249.62106 
L 303.915372 262.231716 
L 304.232727 261.529154 
L 305.184793 251.320128 
L 305.502149 252.193339 
L 306.454215 263.052988 
L 306.77157 262.934671 
L 307.088926 259.767742 
L 307.723636 252.060292 
L 308.040992 252.249247 
L 308.358347 256.031373 
L 308.993058 265.275359 
L 309.310413 265.325831 
L 309.627769 261.549188 
L 310.262479 252.722012 
L 310.579835 252.975355 
L 311.531901 265.642985 
L 311.849256 266.165559 
L 312.166612 263.633656 
L 312.801322 256.150512 
L 313.118678 254.762844 
L 313.436033 255.999561 
L 314.388099 266.688721 
L 314.705455 267.417397 
L 315.02281 265.17064 
L 315.657521 256.678213 
L 315.974876 254.840766 
L 316.292231 256.50862 
L 317.244298 268.943903 
L 317.561653 268.723295 
L 317.879008 265.674619 
L 318.513719 258.219363 
L 318.831074 257.046586 
L 319.14843 258.250521 
L 320.417851 269.865708 
L 320.735207 268.989537 
L 321.369917 261.483286 
L 321.687273 258.089072 
L 322.004628 257.342183 
L 322.321983 259.746728 
L 322.956694 268.671207 
L 323.27405 271.190641 
L 323.591405 270.971332 
L 323.90876 268.511552 
L 324.543471 261.947551 
L 324.860826 260.02866 
L 325.178182 259.805289 
L 325.495537 261.446945 
L 326.447603 271.992149 
L 326.764959 273.072481 
L 327.082314 271.285478 
L 328.03438 260.306428 
L 328.351736 260.222892 
L 328.669091 262.499742 
L 329.621157 271.810041 
L 329.938512 273.011361 
L 330.255868 272.731884 
L 330.573223 270.834942 
L 331.525289 261.195114 
L 331.842645 261.035683 
L 332.16 263.671081 
L 332.794711 272.212094 
L 333.112066 274.598911 
L 333.429421 274.668988 
L 333.746777 272.989814 
L 335.016198 263.627417 
L 335.333554 262.906427 
L 335.650909 264.178244 
L 336.28562 272.14537 
L 336.602975 275.913514 
L 336.920331 277.218263 
L 337.237686 275.655285 
L 338.189752 266.517251 
L 338.507107 265.465163 
L 338.824463 265.248656 
L 339.141818 265.668604 
L 339.459174 267.120428 
L 339.776529 270.054878 
L 340.41124 277.670377 
L 340.728595 278.955344 
L 341.04595 277.072244 
L 341.680661 268.660522 
L 341.998017 266.170733 
L 342.315372 265.923769 
L 343.267438 269.355089 
L 343.584793 271.146314 
L 344.53686 280.357162 
L 344.854215 279.681331 
L 345.806281 266.661224 
L 346.123636 265.925282 
L 347.075702 271.350044 
L 347.393058 271.922941 
L 347.710413 273.25076 
L 348.662479 282.361942 
L 348.979835 280.665611 
L 349.931901 266.048493 
L 350.249256 266.716703 
L 350.883967 272.856515 
L 351.201322 273.636748 
L 351.518678 273.097259 
L 351.836033 273.674798 
L 352.153388 276.92049 
L 352.470744 281.669906 
L 352.788099 284.629359 
L 353.105455 283.016713 
L 354.057521 266.273565 
L 354.374876 267.283184 
L 355.009587 274.817389 
L 355.326942 275.362939 
L 355.644298 273.804809 
L 355.961653 273.224982 
L 356.279008 276.032793 
L 356.913719 286.243734 
L 357.231074 286.421023 
L 357.54843 281.283731 
L 358.18314 268.202823 
L 358.500496 267.532427 
L 359.452562 276.509966 
L 360.087273 273.595877 
L 360.404628 274.522941 
L 361.356694 288.000373 
L 361.67405 286.712342 
L 362.626116 270.32819 
L 362.943471 269.82296 
L 363.895537 276.464275 
L 364.212893 276.152754 
L 364.530248 275.493099 
L 364.847603 276.247086 
L 365.164959 279.196985 
L 365.799669 287.164055 
L 366.117025 288.126676 
L 366.43438 285.541256 
L 367.386446 271.032442 
L 367.703802 270.760149 
L 368.655868 278.561903 
L 368.973223 278.394552 
L 369.290579 277.186376 
L 369.607934 277.10327 
L 369.925289 279.684637 
L 370.56 289.056224 
L 370.877355 290.551945 
L 371.194711 287.618093 
L 371.829421 275.140632 
L 372.146777 271.632976 
L 372.464132 272.012324 
L 373.098843 278.11543 
L 373.416198 279.432984 
L 373.733554 278.811053 
L 374.050909 277.706681 
L 374.368264 277.959342 
L 374.68562 280.46118 
L 375.320331 288.616429 
L 375.637686 290.698492 
L 375.955041 289.78236 
L 376.272397 286.051445 
L 376.907107 275.952367 
L 377.224463 273.200399 
L 377.541818 273.345802 
L 378.493884 281.050982 
L 378.81124 281.058921 
L 379.128595 279.763279 
L 379.44595 279.050405 
L 379.763306 280.648033 
L 380.715372 292.915151 
L 381.032727 292.359061 
L 381.350083 288.094817 
L 381.984793 276.955972 
L 382.302149 274.565764 
L 382.619504 275.074244 
L 383.57157 280.987742 
L 383.888926 281.294771 
L 384.206281 281.033461 
L 384.523636 280.987406 
L 384.840992 281.882687 
L 385.158347 284.13728 
L 386.110413 293.523643 
L 386.427769 292.920335 
L 386.745124 289.01186 
L 387.379835 277.46306 
L 387.69719 274.639343 
L 388.014545 275.39588 
L 388.649256 281.856815 
L 388.966612 283.367779 
L 389.283967 282.804717 
L 389.601322 281.428191 
L 389.918678 280.980728 
L 390.236033 282.454463 
L 391.188099 292.232875 
L 391.505455 293.776547 
L 391.82281 293.482463 
L 392.140165 291.191295 
L 393.409587 275.586703 
L 393.726942 276.807225 
L 394.361653 284.028116 
L 394.679008 285.650653 
L 394.996364 284.655081 
L 395.313719 282.457041 
L 395.631074 281.420075 
L 395.94843 283.116145 
L 396.900496 294.924083 
L 397.217851 295.488 
L 397.535207 293.916925 
L 398.169917 287.814986 
L 398.487273 284.102013 
L 398.487273 284.102013 
" clip-path="url(#p2f75f40c73)" style="fill: none; stroke: #00008b; stroke-width: 1.5; stroke-linecap: square"/>
   </g>
   <g id="patch_3">
    <path d="M 57.6 307.584 
L 57.6 41.472 
" style="fill: none; stroke: #000000; stroke-width: 0.8; stroke-linejoin: miter; stroke-linecap: square"/>
   </g>
   <g id="patch_4">
    <path d="M 414.72 307.584 
L 414.72 41.472 
" style="fill: none; stroke: #000000; stroke-width: 0.8; stroke-linejoin: miter; stroke-linecap: square"/>
   </g>
   <g id="patch_5">
    <path d="M 57.6 307.584 
L 414.72 307.584 
" style="fill: none; stroke: #000000; stroke-width: 0.8; stroke-linejoin: miter; stroke-linecap: square"/>
   </g>
   <g id="patch_6">
    <path d="M 57.6 41.472 
L 414.72 41.472 
" style="fill: none; stroke: #000000; stroke-width: 0.8; stroke-linejoin: miter; stroke-linecap: square"/>
   </g>
  </g>
 </g>
 <defs>
  <clipPath id="p2f75f40c73">
   <rect x="57.6" y="41.472" width="357.12" height="266.112"/>
  </clipPath>
 </defs>
</svg>
