<?xml version="1.0" encoding="utf-8" standalone="no"?>
<!DOCTYPE svg PUBLIC "-//W3C//DTD SVG 1.1//EN"
  "http://www.w3.org/Graphics/SVG/1.1/DTD/svg11.dtd">
<svg xmlns:xlink="http://www.w3.org/1999/xlink" width="460.8pt" height="345.6pt" viewBox="0 0 460.8 345.6" xmlns="http://www.w3.org/2000/svg" version="1.1">
 <metadata>
  <rdf:RDF xmlns:dc="http://purl.org/dc/elements/1.1/" xmlns:cc="http://creativecommons.org/ns#" xmlns:rdf="http://www.w3.org/1999/02/22-rdf-syntax-ns#">
   <cc:Work>
    <dc:type rdf:resource="http://purl.org/dc/dcmitype/StillImage"/>
    <dc:date>2024-02-14T13:36:35.230807</dc:date>
    <dc:format>image/svg+xml</dc:format>
    <dc:creator>
     <cc:Agent>
      <dc:title>Matplotlib v3.7.4, https://matplotlib.org/</dc:title>
     </cc:Agent>
    </dc:creator>
   </cc:Work>
  </rdf:RDF>
 </metadata>
 <defs>
  <style type="text/css">*{stroke-linejoin: round; stroke-linecap: butt}</style>
 </defs>
 <g id="figure_1">
  <g id="patch_1">
   <path d="M 0 345.6 
L 460.8 345.6 
L 460.8 0 
L 0 0 
z
" style="fill: #ffffff"/>
  </g>
  <g id="axes_1">
   <g id="patch_2">
    <path d="M 57.6 307.584 
L 414.72 307.584 
L 414.72 41.472 
L 57.6 41.472 
z
" style="fill: #ffffff"/>
   </g>
   <g id="PolyCollection_1"/>
   <g id="matplotlib.axis_1">
    <g id="xtick_1">
     <g id="line2d_1">
      <defs>
       <path id="m5b608dc357" d="M 0 0 
L 0 3.5 
" style="stroke: #000000; stroke-width: 0.8"/>
      </defs>
      <g>
       <use xlink:href="#m5b608dc357" x="73.832727" y="307.584" style="stroke: #000000; stroke-width: 0.8"/>
      </g>
     </g>
     <g id="text_1">
      <!-- 0 -->
      <g transform="translate(70.651477 322.182437) scale(0.1 -0.1)">
       <defs>
        <path id="DejaVuSans-30" d="M 2034 4250 
Q 1547 4250 1301 3770 
Q 1056 3291 1056 2328 
Q 1056 1369 1301 889 
Q 1547 409 2034 409 
Q 2525 409 2770 889 
Q 3016 1369 3016 2328 
Q 3016 3291 2770 3770 
Q 2525 4250 2034 4250 
z
M 2034 4750 
Q 2819 4750 3233 4129 
Q 3647 3509 3647 2328 
Q 3647 1150 3233 529 
Q 2819 -91 2034 -91 
Q 1250 -91 836 529 
Q 422 1150 422 2328 
Q 422 3509 836 4129 
Q 1250 4750 2034 4750 
z
" transform="scale(0.015625)"/>
       </defs>
       <use xlink:href="#DejaVuSans-30"/>
      </g>
     </g>
    </g>
    <g id="xtick_2">
     <g id="line2d_2">
      <g>
       <use xlink:href="#m5b608dc357" x="137.303802" y="307.584" style="stroke: #000000; stroke-width: 0.8"/>
      </g>
     </g>
     <g id="text_2">
      <!-- 200 -->
      <g transform="translate(127.760052 322.182437) scale(0.1 -0.1)">
       <defs>
        <path id="DejaVuSans-32" d="M 1228 531 
L 3431 531 
L 3431 0 
L 469 0 
L 469 531 
Q 828 903 1448 1529 
Q 2069 2156 2228 2338 
Q 2531 2678 2651 2914 
Q 2772 3150 2772 3378 
Q 2772 3750 2511 3984 
Q 2250 4219 1831 4219 
Q 1534 4219 1204 4116 
Q 875 4013 500 3803 
L 500 4441 
Q 881 4594 1212 4672 
Q 1544 4750 1819 4750 
Q 2544 4750 2975 4387 
Q 3406 4025 3406 3419 
Q 3406 3131 3298 2873 
Q 3191 2616 2906 2266 
Q 2828 2175 2409 1742 
Q 1991 1309 1228 531 
z
" transform="scale(0.015625)"/>
       </defs>
       <use xlink:href="#DejaVuSans-32"/>
       <use xlink:href="#DejaVuSans-30" x="63.623047"/>
       <use xlink:href="#DejaVuSans-30" x="127.246094"/>
      </g>
     </g>
    </g>
    <g id="xtick_3">
     <g id="line2d_3">
      <g>
       <use xlink:href="#m5b608dc357" x="200.774876" y="307.584" style="stroke: #000000; stroke-width: 0.8"/>
      </g>
     </g>
     <g id="text_3">
      <!-- 400 -->
      <g transform="translate(191.231126 322.182437) scale(0.1 -0.1)">
       <defs>
        <path id="DejaVuSans-34" d="M 2419 4116 
L 825 1625 
L 2419 1625 
L 2419 4116 
z
M 2253 4666 
L 3047 4666 
L 3047 1625 
L 3713 1625 
L 3713 1100 
L 3047 1100 
L 3047 0 
L 2419 0 
L 2419 1100 
L 313 1100 
L 313 1709 
L 2253 4666 
z
" transform="scale(0.015625)"/>
       </defs>
       <use xlink:href="#DejaVuSans-34"/>
       <use xlink:href="#DejaVuSans-30" x="63.623047"/>
       <use xlink:href="#DejaVuSans-30" x="127.246094"/>
      </g>
     </g>
    </g>
    <g id="xtick_4">
     <g id="line2d_4">
      <g>
       <use xlink:href="#m5b608dc357" x="264.24595" y="307.584" style="stroke: #000000; stroke-width: 0.8"/>
      </g>
     </g>
     <g id="text_4">
      <!-- 600 -->
      <g transform="translate(254.7022 322.182437) scale(0.1 -0.1)">
       <defs>
        <path id="DejaVuSans-36" d="M 2113 2584 
Q 1688 2584 1439 2293 
Q 1191 2003 1191 1497 
Q 1191 994 1439 701 
Q 1688 409 2113 409 
Q 2538 409 2786 701 
Q 3034 994 3034 1497 
Q 3034 2003 2786 2293 
Q 2538 2584 2113 2584 
z
M 3366 4563 
L 3366 3988 
Q 3128 4100 2886 4159 
Q 2644 4219 2406 4219 
Q 1781 4219 1451 3797 
Q 1122 3375 1075 2522 
Q 1259 2794 1537 2939 
Q 1816 3084 2150 3084 
Q 2853 3084 3261 2657 
Q 3669 2231 3669 1497 
Q 3669 778 3244 343 
Q 2819 -91 2113 -91 
Q 1303 -91 875 529 
Q 447 1150 447 2328 
Q 447 3434 972 4092 
Q 1497 4750 2381 4750 
Q 2619 4750 2861 4703 
Q 3103 4656 3366 4563 
z
" transform="scale(0.015625)"/>
       </defs>
       <use xlink:href="#DejaVuSans-36"/>
       <use xlink:href="#DejaVuSans-30" x="63.623047"/>
       <use xlink:href="#DejaVuSans-30" x="127.246094"/>
      </g>
     </g>
    </g>
    <g id="xtick_5">
     <g id="line2d_5">
      <g>
       <use xlink:href="#m5b608dc357" x="327.717025" y="307.584" style="stroke: #000000; stroke-width: 0.8"/>
      </g>
     </g>
     <g id="text_5">
      <!-- 800 -->
      <g transform="translate(318.173275 322.182437) scale(0.1 -0.1)">
       <defs>
        <path id="DejaVuSans-38" d="M 2034 2216 
Q 1584 2216 1326 1975 
Q 1069 1734 1069 1313 
Q 1069 891 1326 650 
Q 1584 409 2034 409 
Q 2484 409 2743 651 
Q 3003 894 3003 1313 
Q 3003 1734 2745 1975 
Q 2488 2216 2034 2216 
z
M 1403 2484 
Q 997 2584 770 2862 
Q 544 3141 544 3541 
Q 544 4100 942 4425 
Q 1341 4750 2034 4750 
Q 2731 4750 3128 4425 
Q 3525 4100 3525 3541 
Q 3525 3141 3298 2862 
Q 3072 2584 2669 2484 
Q 3125 2378 3379 2068 
Q 3634 1759 3634 1313 
Q 3634 634 3220 271 
Q 2806 -91 2034 -91 
Q 1263 -91 848 271 
Q 434 634 434 1313 
Q 434 1759 690 2068 
Q 947 2378 1403 2484 
z
M 1172 3481 
Q 1172 3119 1398 2916 
Q 1625 2713 2034 2713 
Q 2441 2713 2670 2916 
Q 2900 3119 2900 3481 
Q 2900 3844 2670 4047 
Q 2441 4250 2034 4250 
Q 1625 4250 1398 4047 
Q 1172 3844 1172 3481 
z
" transform="scale(0.015625)"/>
       </defs>
       <use xlink:href="#DejaVuSans-38"/>
       <use xlink:href="#DejaVuSans-30" x="63.623047"/>
       <use xlink:href="#DejaVuSans-30" x="127.246094"/>
      </g>
     </g>
    </g>
    <g id="xtick_6">
     <g id="line2d_6">
      <g>
       <use xlink:href="#m5b608dc357" x="391.188099" y="307.584" style="stroke: #000000; stroke-width: 0.8"/>
      </g>
     </g>
     <g id="text_6">
      <!-- 1000 -->
      <g transform="translate(378.463099 322.182437) scale(0.1 -0.1)">
       <defs>
        <path id="DejaVuSans-31" d="M 794 531 
L 1825 531 
L 1825 4091 
L 703 3866 
L 703 4441 
L 1819 4666 
L 2450 4666 
L 2450 531 
L 3481 531 
L 3481 0 
L 794 0 
L 794 531 
z
" transform="scale(0.015625)"/>
       </defs>
       <use xlink:href="#DejaVuSans-31"/>
       <use xlink:href="#DejaVuSans-30" x="63.623047"/>
       <use xlink:href="#DejaVuSans-30" x="127.246094"/>
       <use xlink:href="#DejaVuSans-30" x="190.869141"/>
      </g>
     </g>
    </g>
   </g>
   <g id="matplotlib.axis_2">
    <g id="ytick_1">
     <g id="line2d_7">
      <defs>
       <path id="m24d5bf0cb4" d="M 0 0 
L -3.5 0 
" style="stroke: #000000; stroke-width: 0.8"/>
      </defs>
      <g>
       <use xlink:href="#m24d5bf0cb4" x="57.6" y="278.610036" style="stroke: #000000; stroke-width: 0.8"/>
      </g>
     </g>
     <g id="text_7">
      <!-- 0 -->
      <g transform="translate(44.2375 282.409255) scale(0.1 -0.1)">
       <use xlink:href="#DejaVuSans-30"/>
      </g>
     </g>
    </g>
    <g id="ytick_2">
     <g id="line2d_8">
      <g>
       <use xlink:href="#m24d5bf0cb4" x="57.6" y="243.447218" style="stroke: #000000; stroke-width: 0.8"/>
      </g>
     </g>
     <g id="text_8">
      <!-- 5 -->
      <g transform="translate(44.2375 247.246437) scale(0.1 -0.1)">
       <defs>
        <path id="DejaVuSans-35" d="M 691 4666 
L 3169 4666 
L 3169 4134 
L 1269 4134 
L 1269 2991 
Q 1406 3038 1543 3061 
Q 1681 3084 1819 3084 
Q 2600 3084 3056 2656 
Q 3513 2228 3513 1497 
Q 3513 744 3044 326 
Q 2575 -91 1722 -91 
Q 1428 -91 1123 -41 
Q 819 9 494 109 
L 494 744 
Q 775 591 1075 516 
Q 1375 441 1709 441 
Q 2250 441 2565 725 
Q 2881 1009 2881 1497 
Q 2881 1984 2565 2268 
Q 2250 2553 1709 2553 
Q 1456 2553 1204 2497 
Q 953 2441 691 2322 
L 691 4666 
z
" transform="scale(0.015625)"/>
       </defs>
       <use xlink:href="#DejaVuSans-35"/>
      </g>
     </g>
    </g>
    <g id="ytick_3">
     <g id="line2d_9">
      <g>
       <use xlink:href="#m24d5bf0cb4" x="57.6" y="208.2844" style="stroke: #000000; stroke-width: 0.8"/>
      </g>
     </g>
     <g id="text_9">
      <!-- 10 -->
      <g transform="translate(37.875 212.083619) scale(0.1 -0.1)">
       <use xlink:href="#DejaVuSans-31"/>
       <use xlink:href="#DejaVuSans-30" x="63.623047"/>
      </g>
     </g>
    </g>
    <g id="ytick_4">
     <g id="line2d_10">
      <g>
       <use xlink:href="#m24d5bf0cb4" x="57.6" y="173.121582" style="stroke: #000000; stroke-width: 0.8"/>
      </g>
     </g>
     <g id="text_10">
      <!-- 15 -->
      <g transform="translate(37.875 176.9208) scale(0.1 -0.1)">
       <use xlink:href="#DejaVuSans-31"/>
       <use xlink:href="#DejaVuSans-35" x="63.623047"/>
      </g>
     </g>
    </g>
    <g id="ytick_5">
     <g id="line2d_11">
      <g>
       <use xlink:href="#m24d5bf0cb4" x="57.6" y="137.958764" style="stroke: #000000; stroke-width: 0.8"/>
      </g>
     </g>
     <g id="text_11">
      <!-- 20 -->
      <g transform="translate(37.875 141.757982) scale(0.1 -0.1)">
       <use xlink:href="#DejaVuSans-32"/>
       <use xlink:href="#DejaVuSans-30" x="63.623047"/>
      </g>
     </g>
    </g>
    <g id="ytick_6">
     <g id="line2d_12">
      <g>
       <use xlink:href="#m24d5bf0cb4" x="57.6" y="102.795945" style="stroke: #000000; stroke-width: 0.8"/>
      </g>
     </g>
     <g id="text_12">
      <!-- 25 -->
      <g transform="translate(37.875 106.595164) scale(0.1 -0.1)">
       <use xlink:href="#DejaVuSans-32"/>
       <use xlink:href="#DejaVuSans-35" x="63.623047"/>
      </g>
     </g>
    </g>
    <g id="ytick_7">
     <g id="line2d_13">
      <g>
       <use xlink:href="#m24d5bf0cb4" x="57.6" y="67.633127" style="stroke: #000000; stroke-width: 0.8"/>
      </g>
     </g>
     <g id="text_13">
      <!-- 30 -->
      <g transform="translate(37.875 71.432346) scale(0.1 -0.1)">
       <defs>
        <path id="DejaVuSans-33" d="M 2597 2516 
Q 3050 2419 3304 2112 
Q 3559 1806 3559 1356 
Q 3559 666 3084 287 
Q 2609 -91 1734 -91 
Q 1441 -91 1130 -33 
Q 819 25 488 141 
L 488 750 
Q 750 597 1062 519 
Q 1375 441 1716 441 
Q 2309 441 2620 675 
Q 2931 909 2931 1356 
Q 2931 1769 2642 2001 
Q 2353 2234 1838 2234 
L 1294 2234 
L 1294 2753 
L 1863 2753 
Q 2328 2753 2575 2939 
Q 2822 3125 2822 3475 
Q 2822 3834 2567 4026 
Q 2313 4219 1838 4219 
Q 1578 4219 1281 4162 
Q 984 4106 628 3988 
L 628 4550 
Q 988 4650 1302 4700 
Q 1616 4750 1894 4750 
Q 2613 4750 3031 4423 
Q 3450 4097 3450 3541 
Q 3450 3153 3228 2886 
Q 3006 2619 2597 2516 
z
" transform="scale(0.015625)"/>
       </defs>
       <use xlink:href="#DejaVuSans-33"/>
       <use xlink:href="#DejaVuSans-30" x="63.623047"/>
      </g>
     </g>
    </g>
   </g>
   <g id="line2d_14">
    <path d="M 73.832727 274.850967 
L 74.150083 278.63864 
L 74.467438 275.22732 
L 74.784793 274.406177 
L 75.419504 289.625471 
L 75.73686 288.870751 
L 76.054215 272.977871 
L 76.688926 228.811099 
L 77.006281 225.448027 
L 77.640992 248.95505 
L 77.958347 251.210771 
L 78.910413 223.683951 
L 79.227769 229.393462 
L 79.545124 237.943413 
L 79.862479 239.596781 
L 80.49719 226.306139 
L 80.814545 231.886545 
L 81.766612 295.488 
L 82.083967 294.233813 
L 82.718678 264.991254 
L 83.036033 260.076158 
L 83.670744 267.060292 
L 83.988099 262.052049 
L 84.305455 251.313489 
L 84.62281 245.290226 
L 84.940165 252.316893 
L 85.574876 285.20277 
L 85.892231 286.357049 
L 86.844298 243.236126 
L 87.161653 247.69881 
L 87.479008 259.285918 
L 87.796364 265.836162 
L 88.113719 261.348552 
L 88.431074 250.781519 
L 88.74843 244.269532 
L 89.065785 246.459234 
L 89.38314 251.21519 
L 89.700496 246.930415 
L 90.017851 227.731416 
L 90.652562 179.081604 
L 90.969917 175.551192 
L 91.921983 213.403534 
L 92.239339 211.497066 
L 92.556694 207.297337 
L 92.87405 210.206904 
L 93.50876 231.224724 
L 93.826116 230.455654 
L 94.460826 203.097957 
L 94.778182 199.385327 
L 95.095537 210.806389 
L 95.412893 228.731118 
L 95.730248 238.699884 
L 96.047603 232.511056 
L 96.682314 197.797605 
L 96.999669 191.095176 
L 97.317025 193.047572 
L 97.63438 194.262176 
L 97.951736 187.783122 
L 98.269091 176.793702 
L 98.586446 172.266179 
L 98.903802 182.541234 
L 99.538512 224.755646 
L 99.855868 230.251577 
L 100.173223 218.962324 
L 100.490579 201.230106 
L 100.807934 190.600954 
L 101.125289 192.449106 
L 101.442645 200.493454 
L 101.76 203.961025 
L 102.077355 198.402885 
L 102.394711 189.977693 
L 102.712066 189.258284 
L 103.029421 200.482764 
L 103.346777 216.514492 
L 103.664132 224.557488 
L 103.981488 217.682564 
L 104.616198 190.748778 
L 104.933554 195.790724 
L 105.88562 250.946385 
L 106.202975 253.066845 
L 106.520331 252.006262 
L 106.837686 256.504939 
L 107.155041 266.629742 
L 107.472397 273.007369 
L 107.789752 265.67276 
L 108.741818 207.510954 
L 109.059174 211.64827 
L 109.376529 224.892827 
L 109.693884 233.313099 
L 110.01124 228.725974 
L 110.64595 203.635028 
L 110.963306 202.25138 
L 111.280661 208.044921 
L 111.598017 210.925843 
L 111.915372 204.006812 
L 112.232727 191.101413 
L 112.550083 183.976578 
L 112.867438 191.59194 
L 113.502149 229.311317 
L 113.819504 232.945581 
L 114.13686 219.808732 
L 114.77157 186.535716 
L 115.088926 184.927216 
L 115.406281 189.200552 
L 115.723636 189.453197 
L 116.358347 174.804251 
L 116.675702 177.637803 
L 117.627769 230.87862 
L 117.945124 228.139168 
L 118.579835 200.770021 
L 118.89719 200.616671 
L 119.531901 224.71774 
L 119.849256 227.806096 
L 120.483967 212.51502 
L 120.801322 211.799743 
L 121.118678 218.352738 
L 121.436033 222.265142 
L 121.753388 213.247192 
L 122.388099 167.128736 
L 122.705455 156.142736 
L 123.02281 163.809238 
L 123.657521 198.901011 
L 123.974876 204.107273 
L 124.292231 201.491905 
L 124.609587 201.159323 
L 124.926942 209.351179 
L 125.244298 221.889637 
L 125.561653 228.028942 
L 125.879008 221.092771 
L 126.513719 195.212499 
L 126.831074 199.449545 
L 127.465785 234.175534 
L 127.78314 239.061973 
L 128.100496 228.899444 
L 128.417851 213.056579 
L 128.735207 203.789043 
L 129.052562 205.432826 
L 129.369917 211.539305 
L 129.687273 212.270941 
L 130.321983 196.809228 
L 130.639339 199.345757 
L 131.591405 249.923391 
L 131.90876 243.79703 
L 132.543471 203.496393 
L 132.860826 193.906214 
L 133.178182 194.897898 
L 133.495537 196.961036 
L 133.812893 191.361167 
L 134.447603 169.357759 
L 134.764959 171.473774 
L 135.399669 196.285382 
L 135.717025 196.291431 
L 136.351736 166.872088 
L 136.669091 162.402129 
L 136.986446 175.100832 
L 137.621157 216.987219 
L 137.938512 224.9669 
L 138.255868 225.08405 
L 138.573223 227.142299 
L 139.525289 252.498687 
L 139.842645 241.375861 
L 140.477355 205.68641 
L 140.794711 206.483456 
L 141.746777 250.29113 
L 142.064132 246.531704 
L 142.381488 238.34692 
L 142.698843 236.530205 
L 143.333554 253.131458 
L 143.650909 254.070123 
L 144.28562 233.102326 
L 144.602975 231.932251 
L 144.920331 245.247105 
L 145.237686 264.648198 
L 145.555041 275.497015 
L 145.872397 269.028503 
L 146.507107 230.022514 
L 146.824463 221.331217 
L 147.141818 223.198132 
L 147.459174 226.50756 
L 147.776529 223.297449 
L 148.093884 215.196832 
L 148.41124 212.181103 
L 148.728595 222.734727 
L 149.363306 265.415902 
L 149.680661 272.054296 
L 149.998017 262.169642 
L 150.315372 245.872177 
L 150.632727 237.037915 
L 150.950083 241.590655 
L 151.267438 253.19707 
L 151.584793 259.919561 
L 151.902149 255.415688 
L 152.53686 236.92346 
L 152.854215 238.641206 
L 153.17157 243.975675 
L 153.488926 241.293092 
L 153.806281 223.956896 
L 154.440992 176.678265 
L 154.758347 172.677982 
L 155.075702 184.916465 
L 155.393058 201.488699 
L 155.710413 209.722701 
L 156.027769 206.53974 
L 156.345124 199.573258 
L 156.662479 198.499959 
L 157.29719 210.879084 
L 157.614545 206.124154 
L 158.249256 170.332784 
L 158.566612 162.675712 
L 158.883967 171.682824 
L 159.518678 202.356844 
L 159.836033 200.771685 
L 160.470744 177.564981 
L 160.788099 177.343114 
L 161.42281 195.509562 
L 161.740165 196.457035 
L 162.057521 191.541029 
L 162.374876 191.244637 
L 162.692231 204.210141 
L 163.326942 249.580198 
L 163.644298 255.531578 
L 163.961653 243.088922 
L 164.596364 206.811116 
L 164.913719 203.341493 
L 165.231074 206.440077 
L 165.54843 205.599034 
L 166.500496 178.553137 
L 166.817851 186.180572 
L 167.135207 199.664953 
L 167.452562 206.005867 
L 167.769917 197.364864 
L 168.404628 163.355497 
L 168.721983 163.241885 
L 169.67405 204.442759 
L 169.991405 202.378346 
L 170.30876 197.001216 
L 170.626116 197.601104 
L 171.260826 210.899888 
L 171.578182 204.699072 
L 172.212893 164.238753 
L 172.530248 155.031115 
L 172.847603 163.992654 
L 173.482314 200.440886 
L 173.799669 204.434362 
L 174.43438 193.56225 
L 174.751736 197.257529 
L 175.069091 207.139915 
L 175.386446 213.100327 
L 175.703802 207.722238 
L 176.338512 184.492416 
L 176.655868 188.273522 
L 177.290579 219.160563 
L 177.607934 220.563117 
L 177.925289 205.416596 
L 178.56 167.966278 
L 178.877355 165.24489 
L 179.194711 169.887119 
L 179.512066 171.863236 
L 180.146777 161.862502 
L 180.464132 166.826844 
L 181.416198 229.346451 
L 181.733554 229.991438 
L 182.368264 205.589664 
L 182.68562 205.449137 
L 183.320331 230.958971 
L 183.637686 235.999119 
L 184.272397 225.375342 
L 184.589752 227.495012 
L 185.224463 246.95402 
L 185.541818 243.651594 
L 186.493884 197.539401 
L 186.81124 206.196312 
L 187.44595 241.312683 
L 187.763306 244.734919 
L 188.398017 231.749133 
L 188.715372 232.310121 
L 189.032727 236.605549 
L 189.350083 234.36666 
L 189.667438 218.803507 
L 190.302149 174.46065 
L 190.619504 170.104874 
L 191.254215 194.139998 
L 191.57157 197.294342 
L 191.888926 186.81677 
L 192.206281 171.305259 
L 192.523636 162.874152 
L 192.840992 166.192155 
L 193.158347 175.000398 
L 193.475702 179.042189 
L 194.110413 168.710676 
L 194.427769 172.418631 
L 195.379835 227.431539 
L 195.69719 223.318733 
L 196.331901 184.717972 
L 196.649256 175.299184 
L 196.966612 177.09996 
L 197.283967 181.037079 
L 197.601322 178.045897 
L 198.236033 160.829632 
L 198.553388 164.810854 
L 199.188099 193.788476 
L 199.505455 195.478631 
L 199.82281 182.16324 
L 200.140165 163.907626 
L 200.457521 154.967843 
L 200.774876 161.85432 
L 201.409587 191.314716 
L 201.726942 192.868595 
L 202.361653 181.177043 
L 202.679008 184.479761 
L 202.996364 192.050999 
L 203.313719 193.139864 
L 203.631074 180.943533 
L 204.265785 145.278712 
L 204.58314 147.327538 
L 205.535207 204.349152 
L 205.852562 206.182014 
L 206.169917 202.522348 
L 206.487273 203.952494 
L 207.121983 224.577954 
L 207.439339 226.369722 
L 207.756694 216.224645 
L 208.07405 202.441611 
L 208.391405 197.541742 
L 208.70876 206.83015 
L 209.026116 222.921048 
L 209.343471 231.467049 
L 209.660826 223.197485 
L 210.295537 179.65946 
L 210.612893 168.399556 
L 210.930248 168.266433 
L 211.247603 170.325353 
L 211.564959 166.103297 
L 211.882314 156.436721 
L 212.199669 150.908138 
L 212.517025 158.329212 
L 213.151736 195.387284 
L 213.469091 199.613901 
L 213.786446 186.755544 
L 214.421157 153.182245 
L 214.738512 153.780167 
L 215.373223 169.389744 
L 215.690579 166.219049 
L 216.007934 157.701833 
L 216.325289 154.170059 
L 216.642645 161.449472 
L 216.96 174.433715 
L 217.277355 181.179189 
L 217.594711 173.977071 
L 218.229421 144.596781 
L 218.546777 147.77429 
L 219.498843 202.753054 
L 219.816198 203.075247 
L 220.133554 197.387667 
L 220.450909 195.640418 
L 221.08562 203.931756 
L 221.402975 196.519663 
L 222.355041 140.34042 
L 222.672397 144.966284 
L 223.307107 171.251075 
L 223.624463 169.046914 
L 224.259174 143.67083 
L 224.576529 141.630924 
L 225.21124 156.416936 
L 225.528595 155.416205 
L 225.84595 147.572993 
L 226.163306 143.232435 
L 226.480661 151.68269 
L 227.115372 190.353688 
L 227.432727 194.661423 
L 227.750083 181.017864 
L 228.384793 142.483583 
L 228.702149 138.950843 
L 229.019504 143.590081 
L 229.33686 145.823504 
L 229.654215 140.096132 
L 229.97157 131.336172 
L 230.288926 129.896093 
L 230.606281 140.820464 
L 230.923636 157.688084 
L 231.240992 167.149607 
L 231.558347 160.377488 
L 232.193058 122.859465 
L 232.510413 117.584948 
L 232.827769 125.854966 
L 233.145124 137.129994 
L 233.462479 139.624767 
L 233.779835 130.616012 
L 234.09719 117.888631 
L 234.414545 111.351229 
L 235.049256 114.589421 
L 235.366612 105.997049 
L 236.001322 63.221625 
L 236.318678 53.568 
L 236.636033 63.221612 
L 237.270744 105.997062 
L 237.588099 114.589421 
L 238.22281 111.351229 
L 238.540165 117.888631 
L 239.174876 139.624753 
L 239.492231 137.129994 
L 240.126942 117.584975 
L 240.444298 122.859465 
L 241.079008 160.377488 
L 241.396364 167.149621 
L 241.713719 157.688084 
L 242.031074 140.820477 
L 242.34843 129.896079 
L 242.665785 131.336172 
L 243.300496 145.823517 
L 243.617851 143.590107 
L 243.935207 138.950857 
L 244.252562 142.483583 
L 245.204628 194.66141 
L 245.521983 190.353709 
L 246.156694 151.68269 
L 246.47405 143.232449 
L 246.791405 147.573006 
L 247.10876 155.416205 
L 247.426116 156.416923 
L 248.060826 141.630911 
L 248.378182 143.67083 
L 249.012893 169.046934 
L 249.330248 171.251096 
L 250.282314 140.34042 
L 250.599669 152.902411 
L 251.23438 196.51967 
L 251.551736 203.931756 
L 252.186446 195.640425 
L 252.503802 197.387694 
L 252.821157 203.075241 
L 253.138512 202.753041 
L 253.455868 189.279934 
L 254.090579 147.77429 
L 254.407934 144.596888 
L 255.36 181.179175 
L 255.677355 174.433722 
L 255.994711 161.449365 
L 256.312066 154.170247 
L 256.629421 157.70182 
L 256.946777 166.219062 
L 257.264132 169.389717 
L 257.581488 163.030621 
L 257.898843 153.780073 
L 258.216198 153.18203 
L 258.533554 166.512323 
L 258.850909 186.755524 
L 259.168264 199.613968 
L 259.48562 195.387311 
L 260.120331 158.329185 
L 260.437686 150.908125 
L 260.755041 156.436614 
L 261.072397 166.103317 
L 261.389752 170.325272 
L 261.707107 168.266379 
L 262.024463 168.399562 
L 262.341818 179.659601 
L 262.976529 223.197528 
L 263.293884 231.467059 
L 263.61124 222.921075 
L 263.928595 206.829942 
L 264.24595 197.541923 
L 264.563306 202.441611 
L 265.198017 226.369706 
L 265.515372 224.578165 
L 266.150083 203.952373 
L 266.467438 202.522361 
L 266.784793 206.182007 
L 267.102149 204.348945 
L 267.419504 189.640752 
L 268.054215 147.327512 
L 268.37157 145.278712 
L 268.688926 160.365429 
L 269.006281 180.943318 
L 269.323636 193.13967 
L 269.640992 192.050992 
L 269.958347 184.479754 
L 270.275702 181.176929 
L 270.593058 186.118635 
L 270.910413 192.86881 
L 271.227769 191.314736 
L 272.179835 154.967696 
L 272.49719 163.907331 
L 273.131901 195.478637 
L 273.449256 193.788584 
L 274.083967 164.811029 
L 274.401322 160.829592 
L 275.353388 181.037079 
L 275.670744 177.099933 
L 275.988099 175.299191 
L 276.305455 184.717965 
L 276.940165 223.318686 
L 277.257521 227.431549 
L 277.574876 213.196556 
L 278.209587 172.418477 
L 278.526942 168.710643 
L 279.161653 179.042236 
L 279.479008 175.000424 
L 279.796364 166.19243 
L 280.113719 162.8743 
L 280.431074 171.305172 
L 281.065785 197.294477 
L 281.38314 194.13977 
L 282.017851 170.105055 
L 282.335207 174.460663 
L 283.287273 234.366912 
L 283.604628 236.605325 
L 283.921983 232.310212 
L 284.239339 231.749076 
L 284.87405 244.734761 
L 285.191405 241.31279 
L 286.143471 197.539428 
L 286.460826 206.424604 
L 287.095537 243.651523 
L 287.412893 246.954083 
L 288.047603 227.494797 
L 288.364959 225.375695 
L 288.999669 235.999005 
L 289.317025 230.958951 
L 289.951736 205.448956 
L 290.269091 205.589664 
L 290.903802 229.991623 
L 291.221157 229.346555 
L 291.538512 211.698383 
L 292.173223 166.826884 
L 292.490579 161.862274 
L 293.125289 171.863283 
L 293.442645 169.887018 
L 293.76 165.24489 
L 294.077355 167.966459 
L 294.394711 183.376375 
L 295.029421 220.56309 
L 295.346777 219.160496 
L 295.981488 188.273408 
L 296.298843 184.492497 
L 296.616198 194.249902 
L 296.933554 207.722198 
L 297.250909 213.100341 
L 297.568264 207.14019 
L 297.88562 197.257247 
L 298.202975 193.562317 
L 298.837686 204.434335 
L 299.155041 200.440625 
L 300.107107 155.031128 
L 300.424463 164.23882 
L 301.059174 204.69885 
L 301.376529 210.899948 
L 302.01124 197.601084 
L 302.328595 197.001042 
L 302.64595 202.378514 
L 302.963306 204.442779 
L 303.280661 195.397546 
L 303.915372 163.242086 
L 304.232727 163.355323 
L 305.184793 206.005813 
L 305.502149 199.664879 
L 305.819504 186.180626 
L 306.13686 178.553305 
L 306.454215 183.437018 
L 307.088926 205.599081 
L 307.406281 206.440023 
L 307.723636 203.341406 
L 308.040992 206.810982 
L 308.358347 222.19444 
L 308.675702 243.08912 
L 308.993058 255.531613 
L 309.310413 249.580115 
L 310.262479 191.244422 
L 310.579835 191.541177 
L 310.89719 196.457075 
L 311.214545 195.509502 
L 311.849256 177.343342 
L 312.166612 177.56484 
L 312.801322 200.771718 
L 313.118678 202.356844 
L 313.436033 189.686156 
L 313.753388 171.683005 
L 314.070744 162.675618 
L 314.388099 170.332723 
L 315.02281 206.124355 
L 315.340165 210.878876 
L 315.974876 198.500026 
L 316.292231 199.573358 
L 316.609587 206.539505 
L 316.926942 209.722903 
L 317.244298 201.488753 
L 317.879008 172.677875 
L 318.196364 176.678446 
L 319.14843 241.293082 
L 319.465785 243.975584 
L 319.78314 238.641203 
L 320.100496 236.923611 
L 320.417851 244.304535 
L 320.735207 255.41576 
L 321.052562 259.919558 
L 321.369917 253.197011 
L 321.687273 241.590568 
L 322.004628 237.037878 
L 322.321983 245.87225 
L 322.639339 262.169787 
L 322.956694 272.054369 
L 323.27405 265.415788 
L 323.90876 222.73466 
L 324.226116 212.181097 
L 324.543471 215.196711 
L 324.860826 223.297473 
L 325.178182 226.507627 
L 325.495537 223.198109 
L 325.812893 221.33111 
L 326.130248 230.022816 
L 326.764959 269.0284 
L 327.082314 275.497048 
L 327.399669 264.648074 
L 328.03438 231.93255 
L 328.351736 233.102379 
L 328.986446 254.070296 
L 329.303802 253.131414 
L 329.938512 236.530108 
L 330.255868 238.346886 
L 330.573223 246.531681 
L 330.890579 250.291066 
L 331.207934 241.294306 
L 331.842645 206.483436 
L 332.16 205.686316 
L 333.112066 252.498571 
L 333.429421 248.820019 
L 334.064132 227.142283 
L 334.381488 225.084302 
L 334.698843 224.967124 
L 335.016198 216.986991 
L 335.968264 162.401982 
L 336.28562 166.872054 
L 336.920331 196.291572 
L 337.237686 196.285375 
L 337.872397 171.473935 
L 338.189752 169.357746 
L 339.141818 196.961163 
L 339.459174 194.897938 
L 339.776529 193.90616 
L 340.093884 203.496601 
L 340.728595 243.797037 
L 341.04595 249.923585 
L 341.363306 237.719971 
L 341.998017 199.345536 
L 342.315372 196.809382 
L 342.950083 212.271055 
L 343.267438 211.539332 
L 343.584793 205.432914 
L 343.902149 203.788902 
L 344.219504 213.056619 
L 344.53686 228.899488 
L 344.854215 239.061725 
L 345.17157 234.175239 
L 345.806281 199.449699 
L 346.123636 195.212539 
L 346.440992 205.815321 
L 346.758347 221.092932 
L 347.075702 228.02872 
L 347.393058 221.88963 
L 348.027769 201.159249 
L 348.345124 201.491798 
L 348.662479 204.107534 
L 348.979835 198.901158 
L 349.614545 163.809251 
L 349.931901 156.142803 
L 350.249256 167.128689 
L 350.883967 213.247071 
L 351.201322 222.264975 
L 351.518678 218.352443 
L 351.836033 211.799924 
L 352.153388 212.515215 
L 352.788099 227.806109 
L 353.105455 224.717756 
L 353.740165 200.616389 
L 354.057521 200.769874 
L 354.692231 228.139231 
L 355.009587 230.878604 
L 355.326942 216.923082 
L 355.961653 177.63785 
L 356.279008 174.804238 
L 356.913719 189.45313 
L 357.231074 189.200452 
L 357.54843 184.927022 
L 357.865785 186.535595 
L 358.18314 199.927718 
L 358.817851 232.945675 
L 359.135207 229.311277 
L 359.769917 191.591773 
L 360.087273 183.976531 
L 360.404628 191.101299 
L 360.721983 204.006731 
L 361.039339 210.925883 
L 361.356694 208.045062 
L 361.67405 202.251481 
L 361.991405 203.635196 
L 362.626116 228.725907 
L 362.943471 233.312858 
L 363.260826 224.892904 
L 363.578182 211.647874 
L 363.895537 207.510686 
L 364.212893 220.202004 
L 364.847603 265.672676 
L 365.164959 273.00772 
L 365.482314 266.629769 
L 365.799669 256.505008 
L 366.117025 252.006245 
L 366.43438 253.066771 
L 366.751736 250.945805 
L 367.069091 237.725624 
L 367.703802 195.790905 
L 368.021157 190.748785 
L 368.338512 201.671794 
L 368.655868 217.682705 
L 368.973223 224.55726 
L 369.290579 216.514512 
L 369.925289 189.257801 
L 370.242645 189.977499 
L 370.877355 203.961112 
L 371.194711 200.493414 
L 371.512066 192.449381 
L 371.829421 190.600987 
L 372.146777 201.229851 
L 372.464132 218.962606 
L 372.781488 230.251349 
L 373.098843 224.755304 
L 373.733554 182.541697 
L 374.050909 172.266153 
L 374.368264 176.793856 
L 374.68562 187.78321 
L 375.002975 194.262136 
L 375.320331 193.047237 
L 375.637686 191.095371 
L 375.955041 197.797491 
L 376.589752 232.510905 
L 376.907107 238.700313 
L 377.224463 228.731 
L 377.541818 210.806617 
L 377.859174 199.3852 
L 378.176529 203.098024 
L 378.81124 230.455852 
L 379.128595 231.224449 
L 379.763306 210.20693 
L 380.080661 207.297484 
L 380.398017 211.496992 
L 380.715372 213.403909 
L 381.032727 204.894628 
L 381.667438 175.551192 
L 381.984793 179.081678 
L 382.93686 246.930214 
L 383.254215 251.21525 
L 383.57157 246.459298 
L 383.888926 244.269734 
L 384.206281 250.781224 
L 384.523636 261.34849 
L 384.840992 265.836412 
L 385.158347 259.285939 
L 385.475702 247.698556 
L 385.793058 243.23639 
L 386.110413 253.043669 
L 386.745124 286.357201 
L 387.062479 285.202885 
L 387.69719 252.316925 
L 388.014545 245.290572 
L 388.331901 251.313337 
L 388.649256 262.051979 
L 388.966612 267.060229 
L 389.601322 260.076039 
L 389.918678 264.991621 
L 390.553388 294.233717 
L 390.870744 295.48793 
L 391.188099 278.773508 
L 391.82281 231.886508 
L 392.140165 226.305971 
L 392.774876 239.596647 
L 393.092231 237.943695 
L 393.726942 223.684118 
L 394.044298 228.496495 
L 394.679008 251.210582 
L 394.996364 248.955063 
L 395.631074 225.447893 
L 395.94843 228.811237 
L 396.900496 288.87105 
L 397.217851 289.625438 
L 397.852562 274.405988 
L 398.169917 275.227389 
L 398.487273 278.638258 
L 398.487273 278.638258 
" clip-path="url(#p7e3d00226c)" style="fill: none; stroke: #00008b; stroke-width: 1.5; stroke-linecap: square"/>
   </g>
   <g id="patch_3">
    <path d="M 57.6 307.584 
L 57.6 41.472 
" style="fill: none; stroke: #000000; stroke-width: 0.8; stroke-linejoin: miter; stroke-linecap: square"/>
   </g>
   <g id="patch_4">
    <path d="M 414.72 307.584 
L 414.72 41.472 
" style="fill: none; stroke: #000000; stroke-width: 0.8; stroke-linejoin: miter; stroke-linecap: square"/>
   </g>
   <g id="patch_5">
    <path d="M 57.6 307.584 
L 414.72 307.584 
" style="fill: none; stroke: #000000; stroke-width: 0.8; stroke-linejoin: miter; stroke-linecap: square"/>
   </g>
   <g id="patch_6">
    <path d="M 57.6 41.472 
L 414.72 41.472 
" style="fill: none; stroke: #000000; stroke-width: 0.8; stroke-linejoin: miter; stroke-linecap: square"/>
   </g>
  </g>
 </g>
 <defs>
  <clipPath id="p7e3d00226c">
   <rect x="57.6" y="41.472" width="357.12" height="266.112"/>
  </clipPath>
 </defs>
</svg>
