<?xml version="1.0" encoding="utf-8" standalone="no"?>
<!DOCTYPE svg PUBLIC "-//W3C//DTD SVG 1.1//EN"
  "http://www.w3.org/Graphics/SVG/1.1/DTD/svg11.dtd">
<svg xmlns:xlink="http://www.w3.org/1999/xlink" width="460.8pt" height="345.6pt" viewBox="0 0 460.8 345.6" xmlns="http://www.w3.org/2000/svg" version="1.1">
 <metadata>
  <rdf:RDF xmlns:dc="http://purl.org/dc/elements/1.1/" xmlns:cc="http://creativecommons.org/ns#" xmlns:rdf="http://www.w3.org/1999/02/22-rdf-syntax-ns#">
   <cc:Work>
    <dc:type rdf:resource="http://purl.org/dc/dcmitype/StillImage"/>
    <dc:date>2024-02-14T13:48:20.024661</dc:date>
    <dc:format>image/svg+xml</dc:format>
    <dc:creator>
     <cc:Agent>
      <dc:title>Matplotlib v3.7.4, https://matplotlib.org/</dc:title>
     </cc:Agent>
    </dc:creator>
   </cc:Work>
  </rdf:RDF>
 </metadata>
 <defs>
  <style type="text/css">*{stroke-linejoin: round; stroke-linecap: butt}</style>
 </defs>
 <g id="figure_1">
  <g id="patch_1">
   <path d="M 0 345.6 
L 460.8 345.6 
L 460.8 0 
L 0 0 
z
" style="fill: #ffffff"/>
  </g>
  <g id="axes_1">
   <g id="patch_2">
    <path d="M 57.6 307.584 
L 414.72 307.584 
L 414.72 41.472 
L 57.6 41.472 
z
" style="fill: #ffffff"/>
   </g>
   <g id="PolyCollection_1"/>
   <g id="matplotlib.axis_1">
    <g id="xtick_1">
     <g id="line2d_1">
      <defs>
       <path id="m62fc76066a" d="M 0 0 
L 0 3.5 
" style="stroke: #000000; stroke-width: 0.8"/>
      </defs>
      <g>
       <use xlink:href="#m62fc76066a" x="73.832727" y="307.584" style="stroke: #000000; stroke-width: 0.8"/>
      </g>
     </g>
     <g id="text_1">
      <!-- 0 -->
      <g transform="translate(70.651477 322.182437) scale(0.1 -0.1)">
       <defs>
        <path id="DejaVuSans-30" d="M 2034 4250 
Q 1547 4250 1301 3770 
Q 1056 3291 1056 2328 
Q 1056 1369 1301 889 
Q 1547 409 2034 409 
Q 2525 409 2770 889 
Q 3016 1369 3016 2328 
Q 3016 3291 2770 3770 
Q 2525 4250 2034 4250 
z
M 2034 4750 
Q 2819 4750 3233 4129 
Q 3647 3509 3647 2328 
Q 3647 1150 3233 529 
Q 2819 -91 2034 -91 
Q 1250 -91 836 529 
Q 422 1150 422 2328 
Q 422 3509 836 4129 
Q 1250 4750 2034 4750 
z
" transform="scale(0.015625)"/>
       </defs>
       <use xlink:href="#DejaVuSans-30"/>
      </g>
     </g>
    </g>
    <g id="xtick_2">
     <g id="line2d_2">
      <g>
       <use xlink:href="#m62fc76066a" x="137.303802" y="307.584" style="stroke: #000000; stroke-width: 0.8"/>
      </g>
     </g>
     <g id="text_2">
      <!-- 200 -->
      <g transform="translate(127.760052 322.182437) scale(0.1 -0.1)">
       <defs>
        <path id="DejaVuSans-32" d="M 1228 531 
L 3431 531 
L 3431 0 
L 469 0 
L 469 531 
Q 828 903 1448 1529 
Q 2069 2156 2228 2338 
Q 2531 2678 2651 2914 
Q 2772 3150 2772 3378 
Q 2772 3750 2511 3984 
Q 2250 4219 1831 4219 
Q 1534 4219 1204 4116 
Q 875 4013 500 3803 
L 500 4441 
Q 881 4594 1212 4672 
Q 1544 4750 1819 4750 
Q 2544 4750 2975 4387 
Q 3406 4025 3406 3419 
Q 3406 3131 3298 2873 
Q 3191 2616 2906 2266 
Q 2828 2175 2409 1742 
Q 1991 1309 1228 531 
z
" transform="scale(0.015625)"/>
       </defs>
       <use xlink:href="#DejaVuSans-32"/>
       <use xlink:href="#DejaVuSans-30" x="63.623047"/>
       <use xlink:href="#DejaVuSans-30" x="127.246094"/>
      </g>
     </g>
    </g>
    <g id="xtick_3">
     <g id="line2d_3">
      <g>
       <use xlink:href="#m62fc76066a" x="200.774876" y="307.584" style="stroke: #000000; stroke-width: 0.8"/>
      </g>
     </g>
     <g id="text_3">
      <!-- 400 -->
      <g transform="translate(191.231126 322.182437) scale(0.1 -0.1)">
       <defs>
        <path id="DejaVuSans-34" d="M 2419 4116 
L 825 1625 
L 2419 1625 
L 2419 4116 
z
M 2253 4666 
L 3047 4666 
L 3047 1625 
L 3713 1625 
L 3713 1100 
L 3047 1100 
L 3047 0 
L 2419 0 
L 2419 1100 
L 313 1100 
L 313 1709 
L 2253 4666 
z
" transform="scale(0.015625)"/>
       </defs>
       <use xlink:href="#DejaVuSans-34"/>
       <use xlink:href="#DejaVuSans-30" x="63.623047"/>
       <use xlink:href="#DejaVuSans-30" x="127.246094"/>
      </g>
     </g>
    </g>
    <g id="xtick_4">
     <g id="line2d_4">
      <g>
       <use xlink:href="#m62fc76066a" x="264.24595" y="307.584" style="stroke: #000000; stroke-width: 0.8"/>
      </g>
     </g>
     <g id="text_4">
      <!-- 600 -->
      <g transform="translate(254.7022 322.182437) scale(0.1 -0.1)">
       <defs>
        <path id="DejaVuSans-36" d="M 2113 2584 
Q 1688 2584 1439 2293 
Q 1191 2003 1191 1497 
Q 1191 994 1439 701 
Q 1688 409 2113 409 
Q 2538 409 2786 701 
Q 3034 994 3034 1497 
Q 3034 2003 2786 2293 
Q 2538 2584 2113 2584 
z
M 3366 4563 
L 3366 3988 
Q 3128 4100 2886 4159 
Q 2644 4219 2406 4219 
Q 1781 4219 1451 3797 
Q 1122 3375 1075 2522 
Q 1259 2794 1537 2939 
Q 1816 3084 2150 3084 
Q 2853 3084 3261 2657 
Q 3669 2231 3669 1497 
Q 3669 778 3244 343 
Q 2819 -91 2113 -91 
Q 1303 -91 875 529 
Q 447 1150 447 2328 
Q 447 3434 972 4092 
Q 1497 4750 2381 4750 
Q 2619 4750 2861 4703 
Q 3103 4656 3366 4563 
z
" transform="scale(0.015625)"/>
       </defs>
       <use xlink:href="#DejaVuSans-36"/>
       <use xlink:href="#DejaVuSans-30" x="63.623047"/>
       <use xlink:href="#DejaVuSans-30" x="127.246094"/>
      </g>
     </g>
    </g>
    <g id="xtick_5">
     <g id="line2d_5">
      <g>
       <use xlink:href="#m62fc76066a" x="327.717025" y="307.584" style="stroke: #000000; stroke-width: 0.8"/>
      </g>
     </g>
     <g id="text_5">
      <!-- 800 -->
      <g transform="translate(318.173275 322.182437) scale(0.1 -0.1)">
       <defs>
        <path id="DejaVuSans-38" d="M 2034 2216 
Q 1584 2216 1326 1975 
Q 1069 1734 1069 1313 
Q 1069 891 1326 650 
Q 1584 409 2034 409 
Q 2484 409 2743 651 
Q 3003 894 3003 1313 
Q 3003 1734 2745 1975 
Q 2488 2216 2034 2216 
z
M 1403 2484 
Q 997 2584 770 2862 
Q 544 3141 544 3541 
Q 544 4100 942 4425 
Q 1341 4750 2034 4750 
Q 2731 4750 3128 4425 
Q 3525 4100 3525 3541 
Q 3525 3141 3298 2862 
Q 3072 2584 2669 2484 
Q 3125 2378 3379 2068 
Q 3634 1759 3634 1313 
Q 3634 634 3220 271 
Q 2806 -91 2034 -91 
Q 1263 -91 848 271 
Q 434 634 434 1313 
Q 434 1759 690 2068 
Q 947 2378 1403 2484 
z
M 1172 3481 
Q 1172 3119 1398 2916 
Q 1625 2713 2034 2713 
Q 2441 2713 2670 2916 
Q 2900 3119 2900 3481 
Q 2900 3844 2670 4047 
Q 2441 4250 2034 4250 
Q 1625 4250 1398 4047 
Q 1172 3844 1172 3481 
z
" transform="scale(0.015625)"/>
       </defs>
       <use xlink:href="#DejaVuSans-38"/>
       <use xlink:href="#DejaVuSans-30" x="63.623047"/>
       <use xlink:href="#DejaVuSans-30" x="127.246094"/>
      </g>
     </g>
    </g>
    <g id="xtick_6">
     <g id="line2d_6">
      <g>
       <use xlink:href="#m62fc76066a" x="391.188099" y="307.584" style="stroke: #000000; stroke-width: 0.8"/>
      </g>
     </g>
     <g id="text_6">
      <!-- 1000 -->
      <g transform="translate(378.463099 322.182437) scale(0.1 -0.1)">
       <defs>
        <path id="DejaVuSans-31" d="M 794 531 
L 1825 531 
L 1825 4091 
L 703 3866 
L 703 4441 
L 1819 4666 
L 2450 4666 
L 2450 531 
L 3481 531 
L 3481 0 
L 794 0 
L 794 531 
z
" transform="scale(0.015625)"/>
       </defs>
       <use xlink:href="#DejaVuSans-31"/>
       <use xlink:href="#DejaVuSans-30" x="63.623047"/>
       <use xlink:href="#DejaVuSans-30" x="127.246094"/>
       <use xlink:href="#DejaVuSans-30" x="190.869141"/>
      </g>
     </g>
    </g>
   </g>
   <g id="matplotlib.axis_2">
    <g id="ytick_1">
     <g id="line2d_7">
      <defs>
       <path id="m1083bd1f98" d="M 0 0 
L -3.5 0 
" style="stroke: #000000; stroke-width: 0.8"/>
      </defs>
      <g>
       <use xlink:href="#m1083bd1f98" x="57.6" y="303.365548" style="stroke: #000000; stroke-width: 0.8"/>
      </g>
     </g>
     <g id="text_7">
      <!-- −50 -->
      <g transform="translate(29.495313 307.164767) scale(0.1 -0.1)">
       <defs>
        <path id="DejaVuSans-2212" d="M 678 2272 
L 4684 2272 
L 4684 1741 
L 678 1741 
L 678 2272 
z
" transform="scale(0.015625)"/>
        <path id="DejaVuSans-35" d="M 691 4666 
L 3169 4666 
L 3169 4134 
L 1269 4134 
L 1269 2991 
Q 1406 3038 1543 3061 
Q 1681 3084 1819 3084 
Q 2600 3084 3056 2656 
Q 3513 2228 3513 1497 
Q 3513 744 3044 326 
Q 2575 -91 1722 -91 
Q 1428 -91 1123 -41 
Q 819 9 494 109 
L 494 744 
Q 775 591 1075 516 
Q 1375 441 1709 441 
Q 2250 441 2565 725 
Q 2881 1009 2881 1497 
Q 2881 1984 2565 2268 
Q 2250 2553 1709 2553 
Q 1456 2553 1204 2497 
Q 953 2441 691 2322 
L 691 4666 
z
" transform="scale(0.015625)"/>
       </defs>
       <use xlink:href="#DejaVuSans-2212"/>
       <use xlink:href="#DejaVuSans-35" x="83.789062"/>
       <use xlink:href="#DejaVuSans-30" x="147.412109"/>
      </g>
     </g>
    </g>
    <g id="ytick_2">
     <g id="line2d_8">
      <g>
       <use xlink:href="#m1083bd1f98" x="57.6" y="262.541835" style="stroke: #000000; stroke-width: 0.8"/>
      </g>
     </g>
     <g id="text_8">
      <!-- 0 -->
      <g transform="translate(44.2375 266.341053) scale(0.1 -0.1)">
       <use xlink:href="#DejaVuSans-30"/>
      </g>
     </g>
    </g>
    <g id="ytick_3">
     <g id="line2d_9">
      <g>
       <use xlink:href="#m1083bd1f98" x="57.6" y="221.718121" style="stroke: #000000; stroke-width: 0.8"/>
      </g>
     </g>
     <g id="text_9">
      <!-- 50 -->
      <g transform="translate(37.875 225.51734) scale(0.1 -0.1)">
       <use xlink:href="#DejaVuSans-35"/>
       <use xlink:href="#DejaVuSans-30" x="63.623047"/>
      </g>
     </g>
    </g>
    <g id="ytick_4">
     <g id="line2d_10">
      <g>
       <use xlink:href="#m1083bd1f98" x="57.6" y="180.894407" style="stroke: #000000; stroke-width: 0.8"/>
      </g>
     </g>
     <g id="text_10">
      <!-- 100 -->
      <g transform="translate(31.5125 184.693626) scale(0.1 -0.1)">
       <use xlink:href="#DejaVuSans-31"/>
       <use xlink:href="#DejaVuSans-30" x="63.623047"/>
       <use xlink:href="#DejaVuSans-30" x="127.246094"/>
      </g>
     </g>
    </g>
    <g id="ytick_5">
     <g id="line2d_11">
      <g>
       <use xlink:href="#m1083bd1f98" x="57.6" y="140.070694" style="stroke: #000000; stroke-width: 0.8"/>
      </g>
     </g>
     <g id="text_11">
      <!-- 150 -->
      <g transform="translate(31.5125 143.869912) scale(0.1 -0.1)">
       <use xlink:href="#DejaVuSans-31"/>
       <use xlink:href="#DejaVuSans-35" x="63.623047"/>
       <use xlink:href="#DejaVuSans-30" x="127.246094"/>
      </g>
     </g>
    </g>
    <g id="ytick_6">
     <g id="line2d_12">
      <g>
       <use xlink:href="#m1083bd1f98" x="57.6" y="99.24698" style="stroke: #000000; stroke-width: 0.8"/>
      </g>
     </g>
     <g id="text_12">
      <!-- 200 -->
      <g transform="translate(31.5125 103.046199) scale(0.1 -0.1)">
       <use xlink:href="#DejaVuSans-32"/>
       <use xlink:href="#DejaVuSans-30" x="63.623047"/>
       <use xlink:href="#DejaVuSans-30" x="127.246094"/>
      </g>
     </g>
    </g>
    <g id="ytick_7">
     <g id="line2d_13">
      <g>
       <use xlink:href="#m1083bd1f98" x="57.6" y="58.423266" style="stroke: #000000; stroke-width: 0.8"/>
      </g>
     </g>
     <g id="text_13">
      <!-- 250 -->
      <g transform="translate(31.5125 62.222485) scale(0.1 -0.1)">
       <use xlink:href="#DejaVuSans-32"/>
       <use xlink:href="#DejaVuSans-35" x="63.623047"/>
       <use xlink:href="#DejaVuSans-30" x="127.246094"/>
      </g>
     </g>
    </g>
   </g>
   <g id="line2d_14">
    <path d="M 73.832727 254.169832 
L 74.150083 275.50041 
L 74.784793 257.747651 
L 75.102149 266.468844 
L 75.419504 268.975005 
L 75.73686 277.896668 
L 76.054215 265.940184 
L 76.37157 267.304178 
L 76.688926 279.140651 
L 77.006281 264.603186 
L 77.323636 257.780719 
L 77.640992 261.690264 
L 77.958347 274.369324 
L 78.275702 259.803703 
L 78.593058 254.760393 
L 78.910413 273.895513 
L 79.227769 267.678353 
L 79.545124 251.661726 
L 79.862479 263.968849 
L 80.179835 262.458237 
L 80.49719 253.986123 
L 80.814545 280.400823 
L 81.131901 265.082221 
L 81.449256 266.987803 
L 81.766612 244.76854 
L 82.083967 278.72814 
L 82.401322 278.301183 
L 82.718678 261.82102 
L 83.036033 285.326148 
L 83.353388 258.153674 
L 83.670744 272.304223 
L 83.988099 263.374168 
L 84.305455 258.058777 
L 84.62281 269.839362 
L 84.940165 264.776585 
L 85.257521 264.439734 
L 85.574876 251.637778 
L 85.892231 262.514559 
L 86.209587 264.354866 
L 86.526942 267.806594 
L 86.844298 272.755542 
L 87.161653 258.401286 
L 87.479008 267.388552 
L 87.796364 249.242644 
L 88.113719 254.119112 
L 88.431074 276.459895 
L 88.74843 278.534189 
L 89.065785 268.95411 
L 89.38314 269.233534 
L 89.700496 262.387457 
L 90.017851 260.926432 
L 90.335207 276.961057 
L 90.652562 267.599511 
L 90.969917 273.616639 
L 91.287273 265.789306 
L 91.604628 252.082919 
L 91.921983 275.358567 
L 92.239339 266.976097 
L 92.556694 278.768543 
L 92.87405 270.393932 
L 93.191405 271.320393 
L 93.50876 275.881628 
L 93.826116 271.907542 
L 94.143471 273.318687 
L 94.460826 266.154452 
L 94.778182 252.190332 
L 95.095537 266.480228 
L 95.730248 251.514619 
L 96.047603 248.527059 
L 96.364959 273.712346 
L 96.682314 267.568876 
L 96.999669 273.687041 
L 97.317025 262.50914 
L 97.63438 272.301656 
L 97.951736 269.728836 
L 98.269091 273.622027 
L 98.586446 264.36537 
L 98.903802 269.372177 
L 99.221157 261.545756 
L 99.538512 258.196945 
L 99.855868 258.537844 
L 100.173223 250.2992 
L 100.807934 265.261659 
L 101.125289 262.632926 
L 101.442645 249.651272 
L 101.76 252.859143 
L 102.077355 263.415254 
L 102.712066 255.903907 
L 103.029421 244.148766 
L 103.346777 294.152038 
L 103.664132 276.692287 
L 103.981488 237.94785 
L 104.298843 266.01701 
L 104.616198 273.831723 
L 105.250909 257.312756 
L 105.568264 265.851458 
L 105.88562 256.882921 
L 106.202975 268.157568 
L 106.520331 258.939844 
L 106.837686 261.020736 
L 107.155041 292.051174 
L 107.472397 270.190548 
L 107.789752 280.474719 
L 108.107107 250.016028 
L 108.424463 255.419227 
L 108.741818 253.721917 
L 109.059174 275.361892 
L 109.376529 260.953034 
L 109.693884 260.69001 
L 110.01124 262.129725 
L 110.328595 265.17117 
L 110.64595 265.496562 
L 110.963306 257.191931 
L 111.598017 274.363549 
L 111.915372 267.982475 
L 112.232727 266.445731 
L 112.550083 263.359493 
L 112.867438 271.846764 
L 113.184793 290.912531 
L 113.502149 264.893283 
L 113.819504 261.682248 
L 114.13686 269.8199 
L 114.454215 270.549172 
L 114.77157 273.126726 
L 115.088926 249.743103 
L 115.406281 251.684418 
L 115.723636 268.563271 
L 116.040992 260.371375 
L 116.358347 261.513905 
L 116.675702 256.799732 
L 116.993058 261.34566 
L 117.310413 255.138572 
L 117.627769 266.334158 
L 117.945124 253.412189 
L 118.262479 273.692662 
L 118.579835 262.036032 
L 118.89719 240.099198 
L 119.214545 250.555463 
L 119.531901 269.206326 
L 119.849256 252.714168 
L 120.166612 259.931763 
L 120.483967 259.665529 
L 120.801322 257.70611 
L 121.118678 282.627885 
L 121.436033 270.886375 
L 121.753388 272.689239 
L 122.070744 260.623704 
L 122.388099 266.513936 
L 122.705455 265.409106 
L 123.02281 278.359079 
L 123.340165 262.677601 
L 123.657521 273.752312 
L 123.974876 257.569503 
L 124.292231 257.527621 
L 124.609587 270.401623 
L 124.926942 244.984615 
L 125.561653 257.460506 
L 125.879008 256.049675 
L 126.196364 261.221025 
L 126.513719 278.180874 
L 127.14843 272.14285 
L 127.465785 264.223312 
L 127.78314 238.586252 
L 128.100496 262.16721 
L 128.417851 262.91845 
L 128.735207 234.830447 
L 129.052562 257.888752 
L 129.369917 266.616668 
L 129.687273 260.226666 
L 130.004628 261.009532 
L 130.321983 265.885595 
L 130.639339 261.86774 
L 130.956694 261.568008 
L 131.27405 264.230147 
L 131.591405 265.708722 
L 131.90876 247.362288 
L 132.226116 247.905816 
L 132.543471 242.861148 
L 132.860826 265.404789 
L 133.178182 263.347917 
L 133.495537 250.895203 
L 133.812893 277.234833 
L 134.130248 247.252257 
L 134.447603 273.464235 
L 134.764959 271.834739 
L 135.082314 263.712844 
L 135.399669 264.44975 
L 135.717025 268.062224 
L 136.03438 252.859328 
L 136.351736 259.835714 
L 136.669091 240.014362 
L 136.986446 255.83886 
L 137.303802 265.496306 
L 137.621157 271.28674 
L 137.938512 255.964819 
L 138.255868 267.06092 
L 138.573223 268.358192 
L 138.890579 283.425641 
L 139.207934 272.786531 
L 139.525289 243.901268 
L 139.842645 274.412657 
L 140.16 260.549958 
L 140.477355 272.760576 
L 140.794711 250.90998 
L 141.112066 246.275619 
L 141.429421 256.053173 
L 141.746777 277.000637 
L 142.064132 271.05045 
L 142.381488 234.948839 
L 142.698843 266.036866 
L 143.016198 254.05372 
L 143.333554 268.258293 
L 143.650909 256.15579 
L 143.968264 275.16907 
L 144.28562 255.734517 
L 144.602975 259.301809 
L 144.920331 290.264653 
L 145.237686 273.717975 
L 145.555041 271.074092 
L 145.872397 264.404364 
L 146.189752 267.904307 
L 146.507107 275.636895 
L 147.141818 246.800508 
L 147.459174 244.65502 
L 147.776529 267.161648 
L 148.093884 279.24335 
L 148.41124 272.667491 
L 148.728595 254.823629 
L 149.04595 276.373185 
L 149.363306 259.101677 
L 149.680661 265.198269 
L 149.998017 275.773736 
L 150.315372 265.590079 
L 150.632727 273.400718 
L 151.267438 246.447474 
L 151.584793 269.432194 
L 151.902149 254.464794 
L 152.219504 253.720028 
L 152.53686 272.18973 
L 152.854215 254.311097 
L 153.17157 249.522183 
L 153.488926 246.598086 
L 153.806281 259.854314 
L 154.123636 264.973732 
L 154.440992 255.071549 
L 154.758347 268.781165 
L 155.075702 253.813008 
L 155.393058 247.945628 
L 155.710413 259.465174 
L 156.027769 256.058366 
L 156.345124 272.365355 
L 156.662479 265.060532 
L 156.979835 268.499084 
L 157.29719 257.087794 
L 157.614545 262.96326 
L 157.931901 259.247716 
L 158.249256 270.035413 
L 158.566612 256.453245 
L 158.883967 257.609689 
L 159.201322 257.682217 
L 159.518678 263.967482 
L 159.836033 255.055391 
L 160.153388 251.724243 
L 160.470744 268.010527 
L 160.788099 245.028455 
L 161.105455 267.142712 
L 161.42281 263.440387 
L 161.740165 263.883918 
L 162.057521 277.897174 
L 162.374876 251.87946 
L 163.009587 268.794732 
L 163.326942 261.293756 
L 163.644298 286.988163 
L 164.279008 245.372668 
L 164.596364 265.975531 
L 164.913719 273.738167 
L 165.231074 250.251561 
L 165.54843 236.687254 
L 165.865785 255.521327 
L 166.18314 265.018879 
L 166.500496 264.340906 
L 166.817851 259.51984 
L 167.452562 274.937522 
L 168.087273 269.816653 
L 168.404628 256.596839 
L 168.721983 277.717742 
L 169.039339 276.559687 
L 169.67405 269.899129 
L 169.991405 261.510044 
L 170.30876 258.249569 
L 170.626116 267.840332 
L 170.943471 267.112179 
L 171.260826 237.94691 
L 171.895537 263.305848 
L 172.212893 262.916988 
L 172.530248 274.052315 
L 172.847603 276.029035 
L 173.164959 267.349863 
L 173.482314 249.051913 
L 174.117025 268.555989 
L 174.43438 268.293801 
L 174.751736 252.590361 
L 175.069091 255.798971 
L 175.386446 269.737394 
L 175.703802 270.730474 
L 176.021157 257.682336 
L 176.338512 260.516912 
L 176.655868 261.287103 
L 176.973223 269.650485 
L 177.290579 267.936673 
L 177.607934 277.082712 
L 178.242645 249.226158 
L 178.56 269.135051 
L 179.194711 259.607925 
L 179.512066 247.077095 
L 179.829421 245.675474 
L 180.146777 275.817021 
L 180.464132 263.135907 
L 180.781488 260.69476 
L 181.098843 255.093615 
L 181.416198 253.301657 
L 181.733554 258.917645 
L 182.050909 239.379672 
L 182.368264 252.478321 
L 182.68562 259.372725 
L 183.002975 272.691098 
L 183.320331 263.387746 
L 183.637686 242.820255 
L 183.955041 282.624109 
L 184.272397 265.887119 
L 184.589752 256.547422 
L 184.907107 243.064997 
L 185.224463 258.826454 
L 185.541818 262.885497 
L 185.859174 248.151729 
L 186.176529 266.26 
L 186.493884 248.690657 
L 186.81124 243.709368 
L 187.128595 270.840065 
L 187.44595 274.168695 
L 187.763306 249.103731 
L 188.080661 273.313365 
L 188.398017 262.710988 
L 188.715372 265.831628 
L 189.032727 257.566608 
L 189.667438 276.176945 
L 189.984793 256.337015 
L 190.302149 268.368998 
L 190.619504 259.089311 
L 190.93686 282.495079 
L 191.254215 275.669484 
L 191.57157 265.28483 
L 191.888926 258.812938 
L 192.206281 277.684688 
L 192.523636 233.714603 
L 192.840992 254.859106 
L 193.475702 274.060186 
L 193.793058 240.226813 
L 194.110413 263.23411 
L 194.427769 277.782743 
L 194.745124 258.459168 
L 195.062479 251.402862 
L 195.379835 269.194018 
L 195.69719 264.102968 
L 196.014545 245.659788 
L 196.331901 259.661169 
L 196.649256 260.514711 
L 196.966612 257.620435 
L 197.283967 257.316784 
L 197.601322 251.951534 
L 197.918678 259.711215 
L 198.236033 251.109648 
L 198.553388 280.460125 
L 198.870744 262.847396 
L 199.188099 279.946895 
L 199.505455 247.926204 
L 199.82281 242.736408 
L 200.140165 256.291406 
L 200.457521 247.42895 
L 200.774876 250.500864 
L 201.092231 276.053122 
L 201.409587 253.900099 
L 201.726942 244.474808 
L 202.044298 246.245887 
L 202.361653 273.223608 
L 202.679008 245.002485 
L 202.996364 261.777663 
L 203.313719 259.938825 
L 203.631074 250.332464 
L 203.94843 251.490652 
L 204.265785 255.903562 
L 204.58314 226.353549 
L 204.900496 254.164094 
L 205.217851 247.870107 
L 205.535207 238.424089 
L 205.852562 249.080727 
L 206.169917 270.233037 
L 206.487273 256.301564 
L 206.804628 260.680073 
L 207.121983 272.456699 
L 207.439339 250.844769 
L 207.756694 259.157295 
L 208.07405 271.576351 
L 208.391405 258.192278 
L 208.70876 268.519057 
L 209.026116 267.241773 
L 209.343471 246.875708 
L 209.660826 263.912498 
L 209.978182 243.483799 
L 210.295537 271.18823 
L 210.612893 269.069699 
L 210.930248 268.238479 
L 211.247603 253.706619 
L 211.564959 250.107482 
L 211.882314 263.557468 
L 212.199669 256.011052 
L 212.517025 244.814186 
L 212.83438 270.540807 
L 213.151736 271.979959 
L 213.469091 241.997981 
L 213.786446 271.956937 
L 214.103802 265.322727 
L 214.421157 263.817011 
L 214.738512 271.910798 
L 215.055868 252.745277 
L 215.373223 245.31051 
L 215.690579 256.226848 
L 216.007934 271.377545 
L 216.325289 272.915512 
L 216.642645 257.050904 
L 216.96 272.024936 
L 217.277355 275.493997 
L 217.594711 254.767464 
L 217.912066 258.936687 
L 218.229421 273.253318 
L 218.546777 241.66028 
L 218.864132 271.826954 
L 219.181488 258.121251 
L 219.498843 263.524026 
L 219.816198 248.133845 
L 220.133554 246.888788 
L 220.450909 260.988186 
L 220.768264 288.427842 
L 221.08562 254.596347 
L 221.402975 255.665182 
L 221.720331 260.786666 
L 222.037686 276.713848 
L 222.355041 239.298837 
L 222.672397 253.173187 
L 222.989752 252.548224 
L 223.307107 249.741646 
L 223.624463 256.697555 
L 223.941818 252.387201 
L 224.576529 266.849404 
L 224.893884 271.826892 
L 225.21124 261.14844 
L 225.528595 263.420464 
L 225.84595 259.194246 
L 226.163306 261.416696 
L 226.480661 261.442203 
L 226.798017 254.975078 
L 227.115372 273.458008 
L 227.432727 258.375403 
L 227.750083 264.232774 
L 228.067438 250.240783 
L 228.384793 253.535245 
L 228.702149 264.383049 
L 229.019504 261.767961 
L 229.33686 256.243789 
L 229.654215 263.644602 
L 229.97157 259.638869 
L 230.288926 273.955113 
L 230.606281 272.716763 
L 230.923636 265.724557 
L 231.240992 264.760482 
L 231.558347 262.224461 
L 231.875702 276.968625 
L 232.193058 259.856693 
L 232.510413 255.946611 
L 232.827769 264.197321 
L 233.462479 250.195633 
L 234.09719 279.129099 
L 234.414545 268.629596 
L 234.731901 264.711842 
L 235.049256 262.58293 
L 235.366612 250.129587 
L 235.683967 266.382008 
L 236.001322 262.683817 
L 236.318678 53.568 
L 236.636033 239.498246 
L 236.953388 250.922074 
L 237.270744 252.912667 
L 237.588099 252.588153 
L 237.905455 254.067452 
L 238.22281 266.819184 
L 238.540165 269.187369 
L 238.857521 267.07568 
L 239.174876 246.386687 
L 239.809587 276.464581 
L 240.126942 268.051036 
L 240.444298 252.450777 
L 240.761653 247.783387 
L 241.079008 280.320417 
L 241.396364 253.117202 
L 242.34843 261.803247 
L 242.665785 272.937004 
L 242.98314 278.54552 
L 243.300496 273.820297 
L 243.617851 227.685001 
L 243.935207 257.330754 
L 244.252562 272.118383 
L 244.569917 267.906031 
L 244.887273 254.313702 
L 245.204628 281.542297 
L 245.521983 277.490274 
L 245.839339 252.210946 
L 246.156694 272.47456 
L 246.47405 261.302355 
L 246.791405 245.362588 
L 247.10876 262.960699 
L 247.426116 266.612252 
L 247.743471 267.683216 
L 248.060826 266.121545 
L 248.378182 261.325713 
L 248.695537 250.191482 
L 249.012893 283.159782 
L 249.330248 274.615085 
L 249.647603 242.171019 
L 249.964959 250.511331 
L 250.282314 267.926911 
L 250.599669 275.37903 
L 250.917025 249.978496 
L 251.23438 253.126682 
L 251.551736 252.248679 
L 251.869091 252.291276 
L 252.186446 245.562263 
L 252.821157 292.635682 
L 253.455868 265.608721 
L 253.773223 252.301785 
L 254.090579 253.096732 
L 254.407934 256.260776 
L 254.725289 263.479904 
L 255.042645 262.183766 
L 255.36 250.955251 
L 255.677355 262.821824 
L 255.994711 250.410077 
L 256.312066 265.018451 
L 256.946777 241.941496 
L 257.264132 263.539066 
L 257.581488 261.40984 
L 257.898843 246.677017 
L 258.216198 268.384163 
L 258.533554 271.94016 
L 258.850909 246.144843 
L 259.168264 260.620041 
L 259.48562 250.215023 
L 259.802975 255.617783 
L 260.120331 237.143912 
L 260.437686 260.521695 
L 260.755041 269.353765 
L 261.072397 248.42459 
L 261.389752 262.312769 
L 261.707107 254.630264 
L 262.024463 264.441483 
L 262.341818 252.868886 
L 262.659174 265.037383 
L 262.976529 252.425789 
L 263.293884 267.959445 
L 263.61124 244.594969 
L 263.928595 260.086657 
L 264.24595 259.945015 
L 264.563306 262.460808 
L 264.880661 253.773809 
L 265.198017 285.695194 
L 265.515372 247.855596 
L 265.832727 241.518332 
L 266.150083 256.023841 
L 266.467438 251.382051 
L 266.784793 260.696383 
L 267.102149 255.957779 
L 267.419504 266.952403 
L 267.73686 262.477067 
L 268.054215 268.584445 
L 268.37157 267.713412 
L 269.006281 276.757365 
L 269.323636 270.526183 
L 269.640992 274.018819 
L 269.958347 240.737741 
L 270.275702 262.231543 
L 270.593058 258.571116 
L 270.910413 269.183353 
L 271.227769 260.734306 
L 271.545124 256.647781 
L 271.862479 275.725365 
L 272.179835 267.422832 
L 272.49719 268.042734 
L 272.814545 250.539544 
L 273.131901 275.387675 
L 273.766612 240.949534 
L 274.083967 264.050502 
L 274.401322 276.388186 
L 274.718678 257.556544 
L 275.036033 261.917662 
L 275.353388 284.1998 
L 275.670744 246.568845 
L 275.988099 256.199712 
L 276.305455 261.240165 
L 276.62281 271.588723 
L 276.940165 263.546128 
L 277.257521 244.096262 
L 277.574876 250.978767 
L 277.892231 284.595341 
L 278.209587 270.984114 
L 278.526942 262.917011 
L 278.844298 264.600926 
L 279.161653 272.542248 
L 279.796364 238.098801 
L 280.113719 271.307013 
L 280.431074 281.188682 
L 280.74843 253.950399 
L 281.065785 278.71873 
L 281.38314 266.222508 
L 281.700496 259.401222 
L 282.017851 280.277513 
L 282.652562 244.337709 
L 282.969917 250.706982 
L 283.287273 259.518104 
L 283.604628 262.540469 
L 283.921983 278.936429 
L 284.239339 241.926639 
L 284.556694 277.445599 
L 284.87405 259.073712 
L 285.191405 252.389691 
L 285.50876 251.814528 
L 285.826116 261.823782 
L 286.143471 252.606006 
L 286.460826 270.778862 
L 286.778182 271.691492 
L 287.095537 251.729727 
L 287.412893 241.362643 
L 287.730248 252.847899 
L 288.047603 247.533771 
L 288.364959 271.30112 
L 288.999669 263.182393 
L 289.317025 262.180549 
L 289.63438 263.854924 
L 289.951736 262.256379 
L 290.269091 271.540577 
L 290.586446 257.094998 
L 290.903802 253.30357 
L 291.221157 251.61233 
L 291.538512 239.242217 
L 291.855868 276.528122 
L 292.173223 252.827856 
L 292.490579 248.292875 
L 292.807934 271.822508 
L 293.125289 234.437122 
L 293.442645 273.822658 
L 294.077355 285.563717 
L 294.394711 258.928752 
L 295.029421 270.646308 
L 295.346777 255.703437 
L 295.664132 268.074672 
L 295.981488 255.769773 
L 296.298843 255.936069 
L 296.933554 264.857292 
L 297.250909 250.067666 
L 297.568264 240.511814 
L 297.88562 247.235596 
L 298.202975 259.112158 
L 298.520331 266.386069 
L 298.837686 252.231762 
L 299.155041 259.319363 
L 299.472397 255.216029 
L 299.789752 271.98143 
L 300.107107 267.314041 
L 300.424463 270.551221 
L 300.741818 269.610145 
L 301.059174 255.10959 
L 301.376529 271.456293 
L 301.693884 254.017645 
L 302.01124 259.047065 
L 302.328595 252.795448 
L 302.64595 238.411554 
L 302.963306 240.395035 
L 303.598017 258.042045 
L 303.915372 275.484601 
L 304.867438 246.344242 
L 305.184793 246.387776 
L 305.502149 259.883485 
L 305.819504 261.531861 
L 306.13686 280.954263 
L 306.454215 256.956933 
L 306.77157 247.121469 
L 307.088926 252.331867 
L 307.406281 269.165965 
L 307.723636 257.586871 
L 308.040992 278.680907 
L 308.358347 279.759485 
L 308.675702 273.938826 
L 308.993058 247.835656 
L 309.310413 252.684865 
L 309.627769 251.147229 
L 309.945124 261.225126 
L 310.262479 263.584216 
L 310.579835 248.300506 
L 310.89719 268.443636 
L 311.214545 272.098817 
L 311.531901 257.784803 
L 311.849256 257.665315 
L 312.166612 273.102146 
L 312.483967 257.606928 
L 312.801322 270.354574 
L 313.118678 270.51277 
L 313.436033 265.418565 
L 313.753388 254.896183 
L 314.070744 251.984896 
L 314.388099 251.738444 
L 315.02281 262.763547 
L 315.340165 276.72476 
L 315.657521 261.35216 
L 315.974876 269.403672 
L 316.292231 259.105892 
L 316.609587 269.445212 
L 316.926942 283.853344 
L 317.244298 259.610841 
L 317.561653 253.405352 
L 317.879008 265.99573 
L 318.196364 259.907249 
L 318.513719 267.615142 
L 318.831074 249.631363 
L 319.14843 270.757736 
L 319.465785 268.442455 
L 319.78314 256.682997 
L 320.100496 264.113447 
L 320.417851 267.179276 
L 320.735207 263.207613 
L 321.369917 247.702599 
L 321.687273 265.71165 
L 322.004628 266.941622 
L 322.321983 276.44139 
L 322.956694 268.542026 
L 323.27405 269.565272 
L 323.591405 268.103046 
L 323.90876 256.906632 
L 324.226116 269.289064 
L 324.860826 250.149733 
L 325.178182 265.625466 
L 325.495537 253.025163 
L 325.812893 275.580999 
L 326.130248 256.65703 
L 326.447603 255.014874 
L 326.764959 268.03289 
L 327.082314 273.541401 
L 327.399669 251.989276 
L 327.717025 246.463743 
L 328.03438 252.136457 
L 328.351736 272.864623 
L 328.669091 265.614354 
L 328.986446 270.049638 
L 329.303802 245.778195 
L 329.621157 252.247579 
L 329.938512 276.639082 
L 330.255868 269.676031 
L 330.573223 248.380608 
L 330.890579 253.756408 
L 331.207934 267.039459 
L 331.525289 252.671622 
L 331.842645 255.885666 
L 332.16 266.019559 
L 332.477355 264.943507 
L 332.794711 264.657212 
L 333.112066 277.986046 
L 333.429421 245.382646 
L 333.746777 238.066791 
L 334.064132 276.06111 
L 334.381488 266.268611 
L 334.698843 238.263663 
L 335.016198 265.77094 
L 335.333554 270.484686 
L 335.650909 265.103339 
L 335.968264 273.147899 
L 336.28562 263.49686 
L 336.602975 273.928975 
L 336.920331 267.806588 
L 337.237686 257.266041 
L 337.555041 251.381244 
L 337.872397 256.957444 
L 338.507107 271.453637 
L 338.824463 288.93289 
L 339.141818 259.335056 
L 339.459174 256.303439 
L 339.776529 274.420374 
L 340.093884 262.111394 
L 340.41124 259.713347 
L 340.728595 259.709055 
L 341.04595 258.879176 
L 341.363306 248.695407 
L 341.680661 246.903811 
L 341.998017 270.906839 
L 342.315372 255.601459 
L 342.632727 270.222708 
L 342.950083 271.563168 
L 343.267438 264.938068 
L 343.584793 244.954941 
L 343.902149 274.443031 
L 344.219504 279.686234 
L 344.53686 262.7304 
L 344.854215 251.856777 
L 345.17157 245.793705 
L 345.488926 271.506691 
L 345.806281 261.772269 
L 346.123636 272.952804 
L 346.440992 254.304818 
L 346.758347 274.373649 
L 347.075702 250.93393 
L 347.393058 268.674515 
L 347.710413 251.307562 
L 348.027769 267.234633 
L 348.345124 262.574297 
L 348.662479 263.661105 
L 348.979835 246.759024 
L 349.29719 253.567013 
L 349.614545 267.944722 
L 349.931901 264.457631 
L 350.249256 265.81253 
L 350.566612 255.775977 
L 350.883967 280.53062 
L 351.201322 268.925784 
L 351.518678 272.833877 
L 351.836033 263.078889 
L 352.153388 266.539196 
L 352.470744 266.546722 
L 352.788099 241.229135 
L 353.105455 273.402143 
L 353.42281 256.282441 
L 353.740165 254.736631 
L 354.057521 278.816439 
L 354.374876 250.189027 
L 354.692231 249.904021 
L 355.009587 243.949499 
L 355.644298 269.361612 
L 355.961653 270.757962 
L 356.279008 282.795973 
L 356.596364 250.790477 
L 356.913719 266.939743 
L 357.231074 270.90253 
L 357.54843 257.665415 
L 357.865785 262.923984 
L 358.18314 253.206679 
L 358.500496 253.797215 
L 358.817851 270.03279 
L 359.135207 260.734912 
L 359.452562 266.968397 
L 359.769917 286.44185 
L 360.087273 269.766211 
L 360.404628 279.873923 
L 360.721983 280.714174 
L 361.039339 272.097326 
L 361.356694 280.108473 
L 361.67405 278.403091 
L 361.991405 273.834767 
L 362.30876 255.775228 
L 362.626116 259.753283 
L 362.943471 248.1995 
L 363.260826 268.986077 
L 363.578182 266.255482 
L 363.895537 252.497998 
L 364.212893 250.033086 
L 364.530248 260.779936 
L 364.847603 263.753355 
L 365.164959 282.074433 
L 365.482314 261.613037 
L 365.799669 261.687935 
L 366.117025 248.205227 
L 366.43438 271.353063 
L 366.751736 246.040447 
L 367.386446 272.245783 
L 367.703802 260.9205 
L 368.021157 263.774974 
L 368.338512 277.361127 
L 368.973223 264.096753 
L 369.290579 282.138698 
L 369.607934 253.666274 
L 369.925289 259.086659 
L 370.242645 251.363655 
L 370.56 253.821722 
L 371.194711 269.594349 
L 371.512066 263.74793 
L 371.829421 284.497101 
L 372.146777 274.669813 
L 372.464132 295.488 
L 372.781488 251.789561 
L 373.098843 269.121668 
L 373.416198 261.052361 
L 373.733554 272.831696 
L 374.050909 268.246831 
L 374.368264 268.290162 
L 374.68562 251.281029 
L 375.002975 281.716976 
L 375.320331 262.458125 
L 375.637686 278.592253 
L 375.955041 259.411652 
L 376.272397 254.39789 
L 376.589752 270.851712 
L 376.907107 273.667565 
L 377.224463 285.178661 
L 377.541818 265.540738 
L 377.859174 273.016279 
L 378.176529 262.926386 
L 378.493884 262.515315 
L 378.81124 271.154428 
L 379.128595 260.195325 
L 379.44595 254.15344 
L 379.763306 257.083781 
L 380.080661 263.423063 
L 380.398017 272.195282 
L 380.715372 248.694391 
L 381.032727 283.115993 
L 381.350083 288.939222 
L 381.667438 265.698699 
L 381.984793 279.584114 
L 382.302149 272.907573 
L 382.619504 239.746152 
L 382.93686 262.948851 
L 383.254215 264.515023 
L 383.57157 245.677524 
L 383.888926 264.885532 
L 384.206281 274.62924 
L 384.523636 276.695243 
L 384.840992 273.40431 
L 385.158347 272.47016 
L 385.475702 278.588077 
L 385.793058 263.867724 
L 386.110413 281.899561 
L 386.427769 260.55456 
L 386.745124 262.158246 
L 387.062479 248.936597 
L 387.379835 269.670023 
L 387.69719 256.474819 
L 388.014545 286.164331 
L 388.331901 260.697554 
L 388.649256 254.413807 
L 388.966612 271.866735 
L 389.283967 257.248053 
L 389.601322 265.46764 
L 389.918678 250.574357 
L 390.236033 293.95755 
L 390.553388 266.235992 
L 390.870744 261.884295 
L 391.188099 267.629134 
L 391.505455 278.811275 
L 391.82281 254.745539 
L 392.140165 264.034575 
L 392.457521 264.988492 
L 392.774876 284.743845 
L 393.092231 259.558468 
L 393.409587 276.222061 
L 393.726942 285.021523 
L 394.044298 242.883967 
L 394.361653 272.086081 
L 394.679008 250.666041 
L 394.996364 262.165909 
L 395.313719 263.663052 
L 395.631074 275.936141 
L 396.265785 262.580714 
L 396.58314 277.649009 
L 396.900496 248.042622 
L 397.217851 269.186214 
L 397.535207 248.161706 
L 397.852562 248.605633 
L 398.169917 275.999324 
L 398.487273 263.194394 
L 398.487273 263.194394 
" clip-path="url(#p7de8b83d87)" style="fill: none; stroke: #ff0000; stroke-width: 1.5; stroke-linecap: square"/>
   </g>
   <g id="patch_3">
    <path d="M 57.6 307.584 
L 57.6 41.472 
" style="fill: none; stroke: #000000; stroke-width: 0.8; stroke-linejoin: miter; stroke-linecap: square"/>
   </g>
   <g id="patch_4">
    <path d="M 414.72 307.584 
L 414.72 41.472 
" style="fill: none; stroke: #000000; stroke-width: 0.8; stroke-linejoin: miter; stroke-linecap: square"/>
   </g>
   <g id="patch_5">
    <path d="M 57.6 307.584 
L 414.72 307.584 
" style="fill: none; stroke: #000000; stroke-width: 0.8; stroke-linejoin: miter; stroke-linecap: square"/>
   </g>
   <g id="patch_6">
    <path d="M 57.6 41.472 
L 414.72 41.472 
" style="fill: none; stroke: #000000; stroke-width: 0.8; stroke-linejoin: miter; stroke-linecap: square"/>
   </g>
  </g>
 </g>
 <defs>
  <clipPath id="p7de8b83d87">
   <rect x="57.6" y="41.472" width="357.12" height="266.112"/>
  </clipPath>
 </defs>
</svg>
