<?xml version="1.0" encoding="utf-8" standalone="no"?>
<!DOCTYPE svg PUBLIC "-//W3C//DTD SVG 1.1//EN"
  "http://www.w3.org/Graphics/SVG/1.1/DTD/svg11.dtd">
<svg xmlns:xlink="http://www.w3.org/1999/xlink" width="504pt" height="288pt" viewBox="0 0 504 288" xmlns="http://www.w3.org/2000/svg" version="1.1">
 <metadata>
  <rdf:RDF xmlns:dc="http://purl.org/dc/elements/1.1/" xmlns:cc="http://creativecommons.org/ns#" xmlns:rdf="http://www.w3.org/1999/02/22-rdf-syntax-ns#">
   <cc:Work>
    <dc:type rdf:resource="http://purl.org/dc/dcmitype/StillImage"/>
    <dc:date>2024-02-20T09:50:29.413656</dc:date>
    <dc:format>image/svg+xml</dc:format>
    <dc:creator>
     <cc:Agent>
      <dc:title>Matplotlib v3.7.4, https://matplotlib.org/</dc:title>
     </cc:Agent>
    </dc:creator>
   </cc:Work>
  </rdf:RDF>
 </metadata>
 <defs>
  <style type="text/css">*{stroke-linejoin: round; stroke-linecap: butt}</style>
 </defs>
 <g id="figure_1">
  <g id="patch_1">
   <path d="M 0 288 
L 504 288 
L 504 0 
L 0 0 
z
" style="fill: #ffffff"/>
  </g>
  <g id="axes_1">
   <g id="patch_2">
    <path d="M 63 256.32 
L 453.6 256.32 
L 453.6 34.56 
L 63 34.56 
z
" style="fill: #ffffff"/>
   </g>
   <g id="patch_3">
    <path d="M 106.656066 256.32 
L 113.395797 256.32 
L 113.395797 255.062857 
L 106.656066 255.062857 
z
" clip-path="url(#pc69af6d64c)" style="fill: #00008b; opacity: 0.4"/>
   </g>
   <g id="patch_4">
    <path d="M 113.395797 256.32 
L 120.135527 256.32 
L 120.135527 255.062857 
L 113.395797 255.062857 
z
" clip-path="url(#pc69af6d64c)" style="fill: #00008b; opacity: 0.4"/>
   </g>
   <g id="patch_5">
    <path d="M 120.135527 256.32 
L 126.875257 256.32 
L 126.875257 252.548571 
L 120.135527 252.548571 
z
" clip-path="url(#pc69af6d64c)" style="fill: #00008b; opacity: 0.4"/>
   </g>
   <g id="patch_6">
    <path d="M 126.875257 256.32 
L 133.614988 256.32 
L 133.614988 255.062857 
L 126.875257 255.062857 
z
" clip-path="url(#pc69af6d64c)" style="fill: #00008b; opacity: 0.4"/>
   </g>
   <g id="patch_7">
    <path d="M 133.614988 256.32 
L 140.354718 256.32 
L 140.354718 252.548571 
L 133.614988 252.548571 
z
" clip-path="url(#pc69af6d64c)" style="fill: #00008b; opacity: 0.4"/>
   </g>
   <g id="patch_8">
    <path d="M 140.354718 256.32 
L 147.094448 256.32 
L 147.094448 256.32 
L 140.354718 256.32 
z
" clip-path="url(#pc69af6d64c)" style="fill: #00008b; opacity: 0.4"/>
   </g>
   <g id="patch_9">
    <path d="M 147.094448 256.32 
L 153.834179 256.32 
L 153.834179 255.062857 
L 147.094448 255.062857 
z
" clip-path="url(#pc69af6d64c)" style="fill: #00008b; opacity: 0.4"/>
   </g>
   <g id="patch_10">
    <path d="M 153.834179 256.32 
L 160.573909 256.32 
L 160.573909 253.805714 
L 153.834179 253.805714 
z
" clip-path="url(#pc69af6d64c)" style="fill: #00008b; opacity: 0.4"/>
   </g>
   <g id="patch_11">
    <path d="M 160.573909 256.32 
L 167.31364 256.32 
L 167.31364 247.52 
L 160.573909 247.52 
z
" clip-path="url(#pc69af6d64c)" style="fill: #00008b; opacity: 0.4"/>
   </g>
   <g id="patch_12">
    <path d="M 167.31364 256.32 
L 174.05337 256.32 
L 174.05337 255.062857 
L 167.31364 255.062857 
z
" clip-path="url(#pc69af6d64c)" style="fill: #00008b; opacity: 0.4"/>
   </g>
   <g id="patch_13">
    <path d="M 174.05337 256.32 
L 180.7931 256.32 
L 180.7931 242.491429 
L 174.05337 242.491429 
z
" clip-path="url(#pc69af6d64c)" style="fill: #00008b; opacity: 0.4"/>
   </g>
   <g id="patch_14">
    <path d="M 180.7931 256.32 
L 187.532831 256.32 
L 187.532831 242.491429 
L 180.7931 242.491429 
z
" clip-path="url(#pc69af6d64c)" style="fill: #00008b; opacity: 0.4"/>
   </g>
   <g id="patch_15">
    <path d="M 187.532831 256.32 
L 194.272561 256.32 
L 194.272561 239.977143 
L 187.532831 239.977143 
z
" clip-path="url(#pc69af6d64c)" style="fill: #00008b; opacity: 0.4"/>
   </g>
   <g id="patch_16">
    <path d="M 194.272561 256.32 
L 201.012292 256.32 
L 201.012292 247.52 
L 194.272561 247.52 
z
" clip-path="url(#pc69af6d64c)" style="fill: #00008b; opacity: 0.4"/>
   </g>
   <g id="patch_17">
    <path d="M 201.012292 256.32 
L 207.752022 256.32 
L 207.752022 214.834286 
L 201.012292 214.834286 
z
" clip-path="url(#pc69af6d64c)" style="fill: #00008b; opacity: 0.4"/>
   </g>
   <g id="patch_18">
    <path d="M 207.752022 256.32 
L 214.491752 256.32 
L 214.491752 233.691429 
L 207.752022 233.691429 
z
" clip-path="url(#pc69af6d64c)" style="fill: #00008b; opacity: 0.4"/>
   </g>
   <g id="patch_19">
    <path d="M 214.491752 256.32 
L 221.231483 256.32 
L 221.231483 195.977143 
L 214.491752 195.977143 
z
" clip-path="url(#pc69af6d64c)" style="fill: #00008b; opacity: 0.4"/>
   </g>
   <g id="patch_20">
    <path d="M 221.231483 256.32 
L 227.971213 256.32 
L 227.971213 201.005714 
L 221.231483 201.005714 
z
" clip-path="url(#pc69af6d64c)" style="fill: #00008b; opacity: 0.4"/>
   </g>
   <g id="patch_21">
    <path d="M 227.971213 256.32 
L 234.710944 256.32 
L 234.710944 135.634285 
L 227.971213 135.634285 
z
" clip-path="url(#pc69af6d64c)" style="fill: #00008b; opacity: 0.4"/>
   </g>
   <g id="patch_22">
    <path d="M 234.710944 256.32 
L 241.450674 256.32 
L 241.450674 212.32 
L 234.710944 212.32 
z
" clip-path="url(#pc69af6d64c)" style="fill: #00008b; opacity: 0.4"/>
   </g>
   <g id="patch_23">
    <path d="M 241.450674 256.32 
L 248.190404 256.32 
L 248.190404 58.948571 
L 241.450674 58.948571 
z
" clip-path="url(#pc69af6d64c)" style="fill: #00008b; opacity: 0.4"/>
   </g>
   <g id="patch_24">
    <path d="M 248.190404 256.32 
L 254.930135 256.32 
L 254.930135 130.605714 
L 248.190404 130.605714 
z
" clip-path="url(#pc69af6d64c)" style="fill: #00008b; opacity: 0.4"/>
   </g>
   <g id="patch_25">
    <path d="M 254.930135 256.32 
L 261.669865 256.32 
L 261.669865 45.12 
L 254.930135 45.12 
z
" clip-path="url(#pc69af6d64c)" style="fill: #00008b; opacity: 0.4"/>
   </g>
   <g id="patch_26">
    <path d="M 261.669865 256.32 
L 268.409596 256.32 
L 268.409596 209.805714 
L 261.669865 209.805714 
z
" clip-path="url(#pc69af6d64c)" style="fill: #00008b; opacity: 0.4"/>
   </g>
   <g id="patch_27">
    <path d="M 268.409596 256.32 
L 275.149326 256.32 
L 275.149326 154.491428 
L 268.409596 154.491428 
z
" clip-path="url(#pc69af6d64c)" style="fill: #00008b; opacity: 0.4"/>
   </g>
   <g id="patch_28">
    <path d="M 275.149326 256.32 
L 281.889056 256.32 
L 281.889056 238.72 
L 275.149326 238.72 
z
" clip-path="url(#pc69af6d64c)" style="fill: #00008b; opacity: 0.4"/>
   </g>
   <g id="patch_29">
    <path d="M 281.889056 256.32 
L 288.628787 256.32 
L 288.628787 221.12 
L 281.889056 221.12 
z
" clip-path="url(#pc69af6d64c)" style="fill: #00008b; opacity: 0.4"/>
   </g>
   <g id="patch_30">
    <path d="M 288.628787 256.32 
L 295.368517 256.32 
L 295.368517 227.405714 
L 288.628787 227.405714 
z
" clip-path="url(#pc69af6d64c)" style="fill: #00008b; opacity: 0.4"/>
   </g>
   <g id="patch_31">
    <path d="M 295.368517 256.32 
L 302.108248 256.32 
L 302.108248 228.662857 
L 295.368517 228.662857 
z
" clip-path="url(#pc69af6d64c)" style="fill: #00008b; opacity: 0.4"/>
   </g>
   <g id="patch_32">
    <path d="M 302.108248 256.32 
L 308.847978 256.32 
L 308.847978 251.291429 
L 302.108248 251.291429 
z
" clip-path="url(#pc69af6d64c)" style="fill: #00008b; opacity: 0.4"/>
   </g>
   <g id="patch_33">
    <path d="M 308.847978 256.32 
L 315.587708 256.32 
L 315.587708 234.948571 
L 308.847978 234.948571 
z
" clip-path="url(#pc69af6d64c)" style="fill: #00008b; opacity: 0.4"/>
   </g>
   <g id="patch_34">
    <path d="M 315.587708 256.32 
L 322.327439 256.32 
L 322.327439 251.291429 
L 315.587708 251.291429 
z
" clip-path="url(#pc69af6d64c)" style="fill: #00008b; opacity: 0.4"/>
   </g>
   <g id="patch_35">
    <path d="M 322.327439 256.32 
L 329.067169 256.32 
L 329.067169 228.662857 
L 322.327439 228.662857 
z
" clip-path="url(#pc69af6d64c)" style="fill: #00008b; opacity: 0.4"/>
   </g>
   <g id="patch_36">
    <path d="M 329.067169 256.32 
L 335.8069 256.32 
L 335.8069 256.32 
L 329.067169 256.32 
z
" clip-path="url(#pc69af6d64c)" style="fill: #00008b; opacity: 0.4"/>
   </g>
   <g id="patch_37">
    <path d="M 335.8069 256.32 
L 342.54663 256.32 
L 342.54663 252.548571 
L 335.8069 252.548571 
z
" clip-path="url(#pc69af6d64c)" style="fill: #00008b; opacity: 0.4"/>
   </g>
   <g id="patch_38">
    <path d="M 342.54663 256.32 
L 349.28636 256.32 
L 349.28636 255.062857 
L 342.54663 255.062857 
z
" clip-path="url(#pc69af6d64c)" style="fill: #00008b; opacity: 0.4"/>
   </g>
   <g id="patch_39">
    <path d="M 349.28636 256.32 
L 356.026091 256.32 
L 356.026091 253.805714 
L 349.28636 253.805714 
z
" clip-path="url(#pc69af6d64c)" style="fill: #00008b; opacity: 0.4"/>
   </g>
   <g id="patch_40">
    <path d="M 356.026091 256.32 
L 362.765821 256.32 
L 362.765821 256.32 
L 356.026091 256.32 
z
" clip-path="url(#pc69af6d64c)" style="fill: #00008b; opacity: 0.4"/>
   </g>
   <g id="patch_41">
    <path d="M 362.765821 256.32 
L 369.505551 256.32 
L 369.505551 256.32 
L 362.765821 256.32 
z
" clip-path="url(#pc69af6d64c)" style="fill: #00008b; opacity: 0.4"/>
   </g>
   <g id="patch_42">
    <path d="M 369.505552 256.32 
L 376.245282 256.32 
L 376.245282 255.062857 
L 369.505552 255.062857 
z
" clip-path="url(#pc69af6d64c)" style="fill: #00008b; opacity: 0.4"/>
   </g>
   <g id="patch_43">
    <path d="M 376.245282 256.32 
L 382.985012 256.32 
L 382.985012 255.062857 
L 376.245282 255.062857 
z
" clip-path="url(#pc69af6d64c)" style="fill: #00008b; opacity: 0.4"/>
   </g>
   <g id="patch_44">
    <path d="M 382.985012 256.32 
L 389.724743 256.32 
L 389.724743 256.32 
L 382.985012 256.32 
z
" clip-path="url(#pc69af6d64c)" style="fill: #00008b; opacity: 0.4"/>
   </g>
   <g id="patch_45">
    <path d="M 389.724743 256.32 
L 396.464473 256.32 
L 396.464473 256.32 
L 389.724743 256.32 
z
" clip-path="url(#pc69af6d64c)" style="fill: #00008b; opacity: 0.4"/>
   </g>
   <g id="patch_46">
    <path d="M 396.464473 256.32 
L 403.204203 256.32 
L 403.204203 256.32 
L 396.464473 256.32 
z
" clip-path="url(#pc69af6d64c)" style="fill: #00008b; opacity: 0.4"/>
   </g>
   <g id="patch_47">
    <path d="M 403.204203 256.32 
L 409.943934 256.32 
L 409.943934 253.805714 
L 403.204203 253.805714 
z
" clip-path="url(#pc69af6d64c)" style="fill: #00008b; opacity: 0.4"/>
   </g>
   <g id="matplotlib.axis_1">
    <g id="xtick_1">
     <g id="line2d_1">
      <defs>
       <path id="mf67964f9e6" d="M 0 0 
L 0 3.5 
" style="stroke: #000000; stroke-width: 0.8"/>
      </defs>
      <g>
       <use xlink:href="#mf67964f9e6" x="97.546401" y="256.32" style="stroke: #000000; stroke-width: 0.8"/>
      </g>
     </g>
     <g id="text_1">
      <!-- 0.00020 -->
      <g transform="translate(76.869839 270.918437) scale(0.1 -0.1)">
       <defs>
        <path id="DejaVuSans-30" d="M 2034 4250 
Q 1547 4250 1301 3770 
Q 1056 3291 1056 2328 
Q 1056 1369 1301 889 
Q 1547 409 2034 409 
Q 2525 409 2770 889 
Q 3016 1369 3016 2328 
Q 3016 3291 2770 3770 
Q 2525 4250 2034 4250 
z
M 2034 4750 
Q 2819 4750 3233 4129 
Q 3647 3509 3647 2328 
Q 3647 1150 3233 529 
Q 2819 -91 2034 -91 
Q 1250 -91 836 529 
Q 422 1150 422 2328 
Q 422 3509 836 4129 
Q 1250 4750 2034 4750 
z
" transform="scale(0.015625)"/>
        <path id="DejaVuSans-2e" d="M 684 794 
L 1344 794 
L 1344 0 
L 684 0 
L 684 794 
z
" transform="scale(0.015625)"/>
        <path id="DejaVuSans-32" d="M 1228 531 
L 3431 531 
L 3431 0 
L 469 0 
L 469 531 
Q 828 903 1448 1529 
Q 2069 2156 2228 2338 
Q 2531 2678 2651 2914 
Q 2772 3150 2772 3378 
Q 2772 3750 2511 3984 
Q 2250 4219 1831 4219 
Q 1534 4219 1204 4116 
Q 875 4013 500 3803 
L 500 4441 
Q 881 4594 1212 4672 
Q 1544 4750 1819 4750 
Q 2544 4750 2975 4387 
Q 3406 4025 3406 3419 
Q 3406 3131 3298 2873 
Q 3191 2616 2906 2266 
Q 2828 2175 2409 1742 
Q 1991 1309 1228 531 
z
" transform="scale(0.015625)"/>
       </defs>
       <use xlink:href="#DejaVuSans-30"/>
       <use xlink:href="#DejaVuSans-2e" x="63.623047"/>
       <use xlink:href="#DejaVuSans-30" x="95.410156"/>
       <use xlink:href="#DejaVuSans-30" x="159.033203"/>
       <use xlink:href="#DejaVuSans-30" x="222.65625"/>
       <use xlink:href="#DejaVuSans-32" x="286.279297"/>
       <use xlink:href="#DejaVuSans-30" x="349.902344"/>
      </g>
     </g>
    </g>
    <g id="xtick_2">
     <g id="line2d_2">
      <g>
       <use xlink:href="#mf67964f9e6" x="142.719751" y="256.32" style="stroke: #000000; stroke-width: 0.8"/>
      </g>
     </g>
     <g id="text_2">
      <!-- 0.00025 -->
      <g transform="translate(122.043188 270.918437) scale(0.1 -0.1)">
       <defs>
        <path id="DejaVuSans-35" d="M 691 4666 
L 3169 4666 
L 3169 4134 
L 1269 4134 
L 1269 2991 
Q 1406 3038 1543 3061 
Q 1681 3084 1819 3084 
Q 2600 3084 3056 2656 
Q 3513 2228 3513 1497 
Q 3513 744 3044 326 
Q 2575 -91 1722 -91 
Q 1428 -91 1123 -41 
Q 819 9 494 109 
L 494 744 
Q 775 591 1075 516 
Q 1375 441 1709 441 
Q 2250 441 2565 725 
Q 2881 1009 2881 1497 
Q 2881 1984 2565 2268 
Q 2250 2553 1709 2553 
Q 1456 2553 1204 2497 
Q 953 2441 691 2322 
L 691 4666 
z
" transform="scale(0.015625)"/>
       </defs>
       <use xlink:href="#DejaVuSans-30"/>
       <use xlink:href="#DejaVuSans-2e" x="63.623047"/>
       <use xlink:href="#DejaVuSans-30" x="95.410156"/>
       <use xlink:href="#DejaVuSans-30" x="159.033203"/>
       <use xlink:href="#DejaVuSans-30" x="222.65625"/>
       <use xlink:href="#DejaVuSans-32" x="286.279297"/>
       <use xlink:href="#DejaVuSans-35" x="349.902344"/>
      </g>
     </g>
    </g>
    <g id="xtick_3">
     <g id="line2d_3">
      <g>
       <use xlink:href="#mf67964f9e6" x="187.8931" y="256.32" style="stroke: #000000; stroke-width: 0.8"/>
      </g>
     </g>
     <g id="text_3">
      <!-- 0.00030 -->
      <g transform="translate(167.216538 270.918437) scale(0.1 -0.1)">
       <defs>
        <path id="DejaVuSans-33" d="M 2597 2516 
Q 3050 2419 3304 2112 
Q 3559 1806 3559 1356 
Q 3559 666 3084 287 
Q 2609 -91 1734 -91 
Q 1441 -91 1130 -33 
Q 819 25 488 141 
L 488 750 
Q 750 597 1062 519 
Q 1375 441 1716 441 
Q 2309 441 2620 675 
Q 2931 909 2931 1356 
Q 2931 1769 2642 2001 
Q 2353 2234 1838 2234 
L 1294 2234 
L 1294 2753 
L 1863 2753 
Q 2328 2753 2575 2939 
Q 2822 3125 2822 3475 
Q 2822 3834 2567 4026 
Q 2313 4219 1838 4219 
Q 1578 4219 1281 4162 
Q 984 4106 628 3988 
L 628 4550 
Q 988 4650 1302 4700 
Q 1616 4750 1894 4750 
Q 2613 4750 3031 4423 
Q 3450 4097 3450 3541 
Q 3450 3153 3228 2886 
Q 3006 2619 2597 2516 
z
" transform="scale(0.015625)"/>
       </defs>
       <use xlink:href="#DejaVuSans-30"/>
       <use xlink:href="#DejaVuSans-2e" x="63.623047"/>
       <use xlink:href="#DejaVuSans-30" x="95.410156"/>
       <use xlink:href="#DejaVuSans-30" x="159.033203"/>
       <use xlink:href="#DejaVuSans-30" x="222.65625"/>
       <use xlink:href="#DejaVuSans-33" x="286.279297"/>
       <use xlink:href="#DejaVuSans-30" x="349.902344"/>
      </g>
     </g>
    </g>
    <g id="xtick_4">
     <g id="line2d_4">
      <g>
       <use xlink:href="#mf67964f9e6" x="233.066449" y="256.32" style="stroke: #000000; stroke-width: 0.8"/>
      </g>
     </g>
     <g id="text_4">
      <!-- 0.00035 -->
      <g transform="translate(212.389887 270.918437) scale(0.1 -0.1)">
       <use xlink:href="#DejaVuSans-30"/>
       <use xlink:href="#DejaVuSans-2e" x="63.623047"/>
       <use xlink:href="#DejaVuSans-30" x="95.410156"/>
       <use xlink:href="#DejaVuSans-30" x="159.033203"/>
       <use xlink:href="#DejaVuSans-30" x="222.65625"/>
       <use xlink:href="#DejaVuSans-33" x="286.279297"/>
       <use xlink:href="#DejaVuSans-35" x="349.902344"/>
      </g>
     </g>
    </g>
    <g id="xtick_5">
     <g id="line2d_5">
      <g>
       <use xlink:href="#mf67964f9e6" x="278.239799" y="256.32" style="stroke: #000000; stroke-width: 0.8"/>
      </g>
     </g>
     <g id="text_5">
      <!-- 0.00040 -->
      <g transform="translate(257.563236 270.918437) scale(0.1 -0.1)">
       <defs>
        <path id="DejaVuSans-34" d="M 2419 4116 
L 825 1625 
L 2419 1625 
L 2419 4116 
z
M 2253 4666 
L 3047 4666 
L 3047 1625 
L 3713 1625 
L 3713 1100 
L 3047 1100 
L 3047 0 
L 2419 0 
L 2419 1100 
L 313 1100 
L 313 1709 
L 2253 4666 
z
" transform="scale(0.015625)"/>
       </defs>
       <use xlink:href="#DejaVuSans-30"/>
       <use xlink:href="#DejaVuSans-2e" x="63.623047"/>
       <use xlink:href="#DejaVuSans-30" x="95.410156"/>
       <use xlink:href="#DejaVuSans-30" x="159.033203"/>
       <use xlink:href="#DejaVuSans-30" x="222.65625"/>
       <use xlink:href="#DejaVuSans-34" x="286.279297"/>
       <use xlink:href="#DejaVuSans-30" x="349.902344"/>
      </g>
     </g>
    </g>
    <g id="xtick_6">
     <g id="line2d_6">
      <g>
       <use xlink:href="#mf67964f9e6" x="323.413148" y="256.32" style="stroke: #000000; stroke-width: 0.8"/>
      </g>
     </g>
     <g id="text_6">
      <!-- 0.00045 -->
      <g transform="translate(302.736586 270.918437) scale(0.1 -0.1)">
       <use xlink:href="#DejaVuSans-30"/>
       <use xlink:href="#DejaVuSans-2e" x="63.623047"/>
       <use xlink:href="#DejaVuSans-30" x="95.410156"/>
       <use xlink:href="#DejaVuSans-30" x="159.033203"/>
       <use xlink:href="#DejaVuSans-30" x="222.65625"/>
       <use xlink:href="#DejaVuSans-34" x="286.279297"/>
       <use xlink:href="#DejaVuSans-35" x="349.902344"/>
      </g>
     </g>
    </g>
    <g id="xtick_7">
     <g id="line2d_7">
      <g>
       <use xlink:href="#mf67964f9e6" x="368.586497" y="256.32" style="stroke: #000000; stroke-width: 0.8"/>
      </g>
     </g>
     <g id="text_7">
      <!-- 0.00050 -->
      <g transform="translate(347.909935 270.918437) scale(0.1 -0.1)">
       <use xlink:href="#DejaVuSans-30"/>
       <use xlink:href="#DejaVuSans-2e" x="63.623047"/>
       <use xlink:href="#DejaVuSans-30" x="95.410156"/>
       <use xlink:href="#DejaVuSans-30" x="159.033203"/>
       <use xlink:href="#DejaVuSans-30" x="222.65625"/>
       <use xlink:href="#DejaVuSans-35" x="286.279297"/>
       <use xlink:href="#DejaVuSans-30" x="349.902344"/>
      </g>
     </g>
    </g>
    <g id="xtick_8">
     <g id="line2d_8">
      <g>
       <use xlink:href="#mf67964f9e6" x="413.759847" y="256.32" style="stroke: #000000; stroke-width: 0.8"/>
      </g>
     </g>
     <g id="text_8">
      <!-- 0.00055 -->
      <g transform="translate(393.083284 270.918437) scale(0.1 -0.1)">
       <use xlink:href="#DejaVuSans-30"/>
       <use xlink:href="#DejaVuSans-2e" x="63.623047"/>
       <use xlink:href="#DejaVuSans-30" x="95.410156"/>
       <use xlink:href="#DejaVuSans-30" x="159.033203"/>
       <use xlink:href="#DejaVuSans-30" x="222.65625"/>
       <use xlink:href="#DejaVuSans-35" x="286.279297"/>
       <use xlink:href="#DejaVuSans-35" x="349.902344"/>
      </g>
     </g>
    </g>
    <g id="text_9">
     <!-- +1.24187e2 -->
     <g transform="translate(391.351562 283.596563) scale(0.1 -0.1)">
      <defs>
       <path id="DejaVuSans-2b" d="M 2944 4013 
L 2944 2272 
L 4684 2272 
L 4684 1741 
L 2944 1741 
L 2944 0 
L 2419 0 
L 2419 1741 
L 678 1741 
L 678 2272 
L 2419 2272 
L 2419 4013 
L 2944 4013 
z
" transform="scale(0.015625)"/>
       <path id="DejaVuSans-31" d="M 794 531 
L 1825 531 
L 1825 4091 
L 703 3866 
L 703 4441 
L 1819 4666 
L 2450 4666 
L 2450 531 
L 3481 531 
L 3481 0 
L 794 0 
L 794 531 
z
" transform="scale(0.015625)"/>
       <path id="DejaVuSans-38" d="M 2034 2216 
Q 1584 2216 1326 1975 
Q 1069 1734 1069 1313 
Q 1069 891 1326 650 
Q 1584 409 2034 409 
Q 2484 409 2743 651 
Q 3003 894 3003 1313 
Q 3003 1734 2745 1975 
Q 2488 2216 2034 2216 
z
M 1403 2484 
Q 997 2584 770 2862 
Q 544 3141 544 3541 
Q 544 4100 942 4425 
Q 1341 4750 2034 4750 
Q 2731 4750 3128 4425 
Q 3525 4100 3525 3541 
Q 3525 3141 3298 2862 
Q 3072 2584 2669 2484 
Q 3125 2378 3379 2068 
Q 3634 1759 3634 1313 
Q 3634 634 3220 271 
Q 2806 -91 2034 -91 
Q 1263 -91 848 271 
Q 434 634 434 1313 
Q 434 1759 690 2068 
Q 947 2378 1403 2484 
z
M 1172 3481 
Q 1172 3119 1398 2916 
Q 1625 2713 2034 2713 
Q 2441 2713 2670 2916 
Q 2900 3119 2900 3481 
Q 2900 3844 2670 4047 
Q 2441 4250 2034 4250 
Q 1625 4250 1398 4047 
Q 1172 3844 1172 3481 
z
" transform="scale(0.015625)"/>
       <path id="DejaVuSans-37" d="M 525 4666 
L 3525 4666 
L 3525 4397 
L 1831 0 
L 1172 0 
L 2766 4134 
L 525 4134 
L 525 4666 
z
" transform="scale(0.015625)"/>
       <path id="DejaVuSans-65" d="M 3597 1894 
L 3597 1613 
L 953 1613 
Q 991 1019 1311 708 
Q 1631 397 2203 397 
Q 2534 397 2845 478 
Q 3156 559 3463 722 
L 3463 178 
Q 3153 47 2828 -22 
Q 2503 -91 2169 -91 
Q 1331 -91 842 396 
Q 353 884 353 1716 
Q 353 2575 817 3079 
Q 1281 3584 2069 3584 
Q 2775 3584 3186 3129 
Q 3597 2675 3597 1894 
z
M 3022 2063 
Q 3016 2534 2758 2815 
Q 2500 3097 2075 3097 
Q 1594 3097 1305 2825 
Q 1016 2553 972 2059 
L 3022 2063 
z
" transform="scale(0.015625)"/>
      </defs>
      <use xlink:href="#DejaVuSans-2b"/>
      <use xlink:href="#DejaVuSans-31" x="83.789062"/>
      <use xlink:href="#DejaVuSans-2e" x="147.412109"/>
      <use xlink:href="#DejaVuSans-32" x="179.199219"/>
      <use xlink:href="#DejaVuSans-34" x="242.822266"/>
      <use xlink:href="#DejaVuSans-31" x="306.445312"/>
      <use xlink:href="#DejaVuSans-38" x="370.068359"/>
      <use xlink:href="#DejaVuSans-37" x="433.691406"/>
      <use xlink:href="#DejaVuSans-65" x="497.314453"/>
      <use xlink:href="#DejaVuSans-32" x="558.837891"/>
     </g>
    </g>
   </g>
   <g id="matplotlib.axis_2">
    <g id="ytick_1">
     <g id="line2d_9">
      <defs>
       <path id="mc710ffddd0" d="M 0 0 
L -3.5 0 
" style="stroke: #000000; stroke-width: 0.8"/>
      </defs>
      <g>
       <use xlink:href="#mc710ffddd0" x="63" y="256.32" style="stroke: #000000; stroke-width: 0.8"/>
      </g>
     </g>
     <g id="text_10">
      <!-- 0 -->
      <g transform="translate(49.6375 260.119219) scale(0.1 -0.1)">
       <use xlink:href="#DejaVuSans-30"/>
      </g>
     </g>
    </g>
    <g id="ytick_2">
     <g id="line2d_10">
      <g>
       <use xlink:href="#mc710ffddd0" x="63" y="208.351017" style="stroke: #000000; stroke-width: 0.8"/>
      </g>
     </g>
     <g id="text_11">
      <!-- 5000 -->
      <g transform="translate(30.55 212.150236) scale(0.1 -0.1)">
       <use xlink:href="#DejaVuSans-35"/>
       <use xlink:href="#DejaVuSans-30" x="63.623047"/>
       <use xlink:href="#DejaVuSans-30" x="127.246094"/>
       <use xlink:href="#DejaVuSans-30" x="190.869141"/>
      </g>
     </g>
    </g>
    <g id="ytick_3">
     <g id="line2d_11">
      <g>
       <use xlink:href="#mc710ffddd0" x="63" y="160.382035" style="stroke: #000000; stroke-width: 0.8"/>
      </g>
     </g>
     <g id="text_12">
      <!-- 10000 -->
      <g transform="translate(24.1875 164.181254) scale(0.1 -0.1)">
       <use xlink:href="#DejaVuSans-31"/>
       <use xlink:href="#DejaVuSans-30" x="63.623047"/>
       <use xlink:href="#DejaVuSans-30" x="127.246094"/>
       <use xlink:href="#DejaVuSans-30" x="190.869141"/>
       <use xlink:href="#DejaVuSans-30" x="254.492188"/>
      </g>
     </g>
    </g>
    <g id="ytick_4">
     <g id="line2d_12">
      <g>
       <use xlink:href="#mc710ffddd0" x="63" y="112.413052" style="stroke: #000000; stroke-width: 0.8"/>
      </g>
     </g>
     <g id="text_13">
      <!-- 15000 -->
      <g transform="translate(24.1875 116.212271) scale(0.1 -0.1)">
       <use xlink:href="#DejaVuSans-31"/>
       <use xlink:href="#DejaVuSans-35" x="63.623047"/>
       <use xlink:href="#DejaVuSans-30" x="127.246094"/>
       <use xlink:href="#DejaVuSans-30" x="190.869141"/>
       <use xlink:href="#DejaVuSans-30" x="254.492188"/>
      </g>
     </g>
    </g>
    <g id="ytick_5">
     <g id="line2d_13">
      <g>
       <use xlink:href="#mc710ffddd0" x="63" y="64.44407" style="stroke: #000000; stroke-width: 0.8"/>
      </g>
     </g>
     <g id="text_14">
      <!-- 20000 -->
      <g transform="translate(24.1875 68.243288) scale(0.1 -0.1)">
       <use xlink:href="#DejaVuSans-32"/>
       <use xlink:href="#DejaVuSans-30" x="63.623047"/>
       <use xlink:href="#DejaVuSans-30" x="127.246094"/>
       <use xlink:href="#DejaVuSans-30" x="190.869141"/>
       <use xlink:href="#DejaVuSans-30" x="254.492188"/>
      </g>
     </g>
    </g>
    <g id="text_15">
     <!-- Density -->
     <g transform="translate(18.107812 164.448594) rotate(-90) scale(0.1 -0.1)">
      <defs>
       <path id="DejaVuSans-44" d="M 1259 4147 
L 1259 519 
L 2022 519 
Q 2988 519 3436 956 
Q 3884 1394 3884 2338 
Q 3884 3275 3436 3711 
Q 2988 4147 2022 4147 
L 1259 4147 
z
M 628 4666 
L 1925 4666 
Q 3281 4666 3915 4102 
Q 4550 3538 4550 2338 
Q 4550 1131 3912 565 
Q 3275 0 1925 0 
L 628 0 
L 628 4666 
z
" transform="scale(0.015625)"/>
       <path id="DejaVuSans-6e" d="M 3513 2113 
L 3513 0 
L 2938 0 
L 2938 2094 
Q 2938 2591 2744 2837 
Q 2550 3084 2163 3084 
Q 1697 3084 1428 2787 
Q 1159 2491 1159 1978 
L 1159 0 
L 581 0 
L 581 3500 
L 1159 3500 
L 1159 2956 
Q 1366 3272 1645 3428 
Q 1925 3584 2291 3584 
Q 2894 3584 3203 3211 
Q 3513 2838 3513 2113 
z
" transform="scale(0.015625)"/>
       <path id="DejaVuSans-73" d="M 2834 3397 
L 2834 2853 
Q 2591 2978 2328 3040 
Q 2066 3103 1784 3103 
Q 1356 3103 1142 2972 
Q 928 2841 928 2578 
Q 928 2378 1081 2264 
Q 1234 2150 1697 2047 
L 1894 2003 
Q 2506 1872 2764 1633 
Q 3022 1394 3022 966 
Q 3022 478 2636 193 
Q 2250 -91 1575 -91 
Q 1294 -91 989 -36 
Q 684 19 347 128 
L 347 722 
Q 666 556 975 473 
Q 1284 391 1588 391 
Q 1994 391 2212 530 
Q 2431 669 2431 922 
Q 2431 1156 2273 1281 
Q 2116 1406 1581 1522 
L 1381 1569 
Q 847 1681 609 1914 
Q 372 2147 372 2553 
Q 372 3047 722 3315 
Q 1072 3584 1716 3584 
Q 2034 3584 2315 3537 
Q 2597 3491 2834 3397 
z
" transform="scale(0.015625)"/>
       <path id="DejaVuSans-69" d="M 603 3500 
L 1178 3500 
L 1178 0 
L 603 0 
L 603 3500 
z
M 603 4863 
L 1178 4863 
L 1178 4134 
L 603 4134 
L 603 4863 
z
" transform="scale(0.015625)"/>
       <path id="DejaVuSans-74" d="M 1172 4494 
L 1172 3500 
L 2356 3500 
L 2356 3053 
L 1172 3053 
L 1172 1153 
Q 1172 725 1289 603 
Q 1406 481 1766 481 
L 2356 481 
L 2356 0 
L 1766 0 
Q 1100 0 847 248 
Q 594 497 594 1153 
L 594 3053 
L 172 3053 
L 172 3500 
L 594 3500 
L 594 4494 
L 1172 4494 
z
" transform="scale(0.015625)"/>
       <path id="DejaVuSans-79" d="M 2059 -325 
Q 1816 -950 1584 -1140 
Q 1353 -1331 966 -1331 
L 506 -1331 
L 506 -850 
L 844 -850 
Q 1081 -850 1212 -737 
Q 1344 -625 1503 -206 
L 1606 56 
L 191 3500 
L 800 3500 
L 1894 763 
L 2988 3500 
L 3597 3500 
L 2059 -325 
z
" transform="scale(0.015625)"/>
      </defs>
      <use xlink:href="#DejaVuSans-44"/>
      <use xlink:href="#DejaVuSans-65" x="77.001953"/>
      <use xlink:href="#DejaVuSans-6e" x="138.525391"/>
      <use xlink:href="#DejaVuSans-73" x="201.904297"/>
      <use xlink:href="#DejaVuSans-69" x="254.003906"/>
      <use xlink:href="#DejaVuSans-74" x="281.787109"/>
      <use xlink:href="#DejaVuSans-79" x="320.996094"/>
     </g>
    </g>
   </g>
   <g id="line2d_14">
    <path d="M 80.754545 256.315332 
L 91.460804 256.217683 
L 98.59831 255.929675 
L 105.735815 255.373222 
L 118.22645 254.249566 
L 123.57958 254.050316 
L 128.932709 254.09924 
L 136.070215 254.439214 
L 141.423344 254.625634 
L 144.992097 254.507826 
L 148.56085 254.104714 
L 152.129603 253.439602 
L 159.267108 251.754556 
L 164.620238 250.374507 
L 168.18899 249.2322 
L 171.757743 247.820131 
L 180.679625 244.013508 
L 187.817131 241.426835 
L 189.601508 240.618394 
L 191.385884 239.641597 
L 193.17026 238.458614 
L 194.954637 237.051545 
L 196.739013 235.424164 
L 198.52339 233.597804 
L 202.092143 229.463238 
L 205.660895 224.784816 
L 207.445272 222.211018 
L 209.229648 219.433535 
L 211.014025 216.412916 
L 212.798401 213.119907 
L 214.582778 209.544187 
L 218.15153 201.621869 
L 223.50466 188.613131 
L 230.642165 170.9285 
L 232.426542 166.161235 
L 234.210918 161.016075 
L 235.995295 155.407222 
L 239.564048 142.911885 
L 243.1328 129.997584 
L 244.917177 124.173596 
L 246.701553 119.244853 
L 248.48593 115.527431 
L 250.270306 113.275584 
L 252.054682 112.669757 
L 253.839059 113.809172 
L 255.623435 116.703393 
L 257.407812 121.262938 
L 259.192188 127.295089 
L 260.976565 134.513362 
L 264.545317 151.077332 
L 268.11407 168.154231 
L 271.682823 183.834429 
L 273.4672 190.876449 
L 275.251576 197.326762 
L 277.035952 203.153027 
L 278.820329 208.321966 
L 280.604705 212.806962 
L 282.389082 216.603359 
L 284.173458 219.742558 
L 285.957835 222.29773 
L 287.742211 224.378356 
L 289.526587 226.115331 
L 293.09534 229.071564 
L 298.44847 233.428229 
L 302.017222 236.385723 
L 303.801599 237.748464 
L 305.585975 238.9617 
L 307.370352 239.987045 
L 309.154728 240.806249 
L 310.939105 241.421917 
L 312.723481 241.854558 
L 316.292234 242.315655 
L 321.645363 242.735029 
L 323.42974 243.024758 
L 325.214116 243.473828 
L 326.998492 244.111403 
L 328.782869 244.941638 
L 332.351622 247.058782 
L 337.704751 250.4599 
L 339.489127 251.409773 
L 341.273504 252.210893 
L 343.05788 252.860527 
L 346.626633 253.770486 
L 350.195386 254.334592 
L 357.332892 255.088583 
L 362.686021 255.501636 
L 368.03915 255.674845 
L 385.882915 255.752787 
L 393.02042 255.972579 
L 398.37355 255.919077 
L 410.864185 255.539654 
L 416.217314 255.718475 
L 426.923572 256.206783 
L 435.845455 256.311302 
L 435.845455 256.311302 
" clip-path="url(#pc69af6d64c)" style="fill: none; stroke: #00008b; stroke-width: 1.5; stroke-linecap: square"/>
   </g>
   <g id="patch_48">
    <path d="M 63 256.32 
L 63 34.56 
" style="fill: none; stroke: #000000; stroke-width: 0.8; stroke-linejoin: miter; stroke-linecap: square"/>
   </g>
   <g id="patch_49">
    <path d="M 453.6 256.32 
L 453.6 34.56 
" style="fill: none; stroke: #000000; stroke-width: 0.8; stroke-linejoin: miter; stroke-linecap: square"/>
   </g>
   <g id="patch_50">
    <path d="M 63 256.32 
L 453.6 256.32 
" style="fill: none; stroke: #000000; stroke-width: 0.8; stroke-linejoin: miter; stroke-linecap: square"/>
   </g>
   <g id="patch_51">
    <path d="M 63 34.56 
L 453.6 34.56 
" style="fill: none; stroke: #000000; stroke-width: 0.8; stroke-linejoin: miter; stroke-linecap: square"/>
   </g>
  </g>
 </g>
 <defs>
  <clipPath id="pc69af6d64c">
   <rect x="63" y="34.56" width="390.6" height="221.76"/>
  </clipPath>
 </defs>
</svg>
